<svg viewBox="0 0 300 300" fill="none" xmlns="http://www.w3.org/2000/svg"><path d="M298 150C298 231.738 231.738 298 150 298C68.2619 298 2 231.738 2 150C2 68.2619 68.2619 2 150 2C231.738 2 298 68.2619 298 150Z" fill="#2F406A"/><path fill-rule="evenodd" clip-rule="evenodd" d="M150 300C232.843 300 300 232.843 300 150C300 67.1573 232.843 0 150 0C67.1573 0 0 67.1573 0 150C0 232.843 67.1573 300 150 300ZM150 290C227.32 290 290 227.32 290 150C290 72.6801 227.32 10 150 10C72.6801 10 10 72.6801 10 150C10 227.32 72.6801 290 150 290Z" fill="#919191"/><path fill-rule="evenodd" clip-rule="evenodd" d="M150 300C232.843 300 300 232.843 300 150C300 67.1573 232.843 0 150 0C67.1573 0 0 67.1573 0 150C0 232.843 67.1573 300 150 300ZM150 290C227.32 290 290 227.32 290 150C290 72.6801 227.32 10 150 10C72.6801 10 10 72.6801 10 150C10 227.32 72.6801 290 150 290Z" fill="#2F406A" style="mix-blend-mode:color"/><g clip-path="url(#clip0_532_6230)"><g clip-path="url(#clip1_532_6230)"><path d="M153.237 91.9985L197.747 202.16L130.705 149.026L153.237 91.9985ZM232.521 227.474L164.086 62.2328C162.139 57.5037 158.245 55 153.515 55C148.786 55 144.613 57.5037 142.666 62.2328L67.0008 243.331H92.872L122.637 168.777L211.657 240.827C215.273 243.609 217.777 245 221.115 245C227.791 245 233.633 239.993 233.633 232.76C233.911 231.369 233.355 229.422 232.521 227.474Z" fill="white"/></g></g><defs><clipPath id="clip0_532_6230"><rect width="200" height="200" fill="white" transform="translate(50 50)"/></clipPath><clipPath id="clip1_532_6230"><rect width="190" height="190" fill="white" transform="translate(55 55)"/></clipPath></defs></svg>