<svg viewBox="0 0 300 300" fill="none" xmlns="http://www.w3.org/2000/svg"><path d="M298 150C298 231.738 231.738 298 150 298C68.2619 298 2 231.738 2 150C2 68.2619 68.2619 2 150 2C231.738 2 298 68.2619 298 150Z" fill="#9C033A"/><path fill-rule="evenodd" clip-rule="evenodd" d="M150 300C232.843 300 300 232.843 300 150C300 67.1573 232.843 0 150 0C67.1573 0 0 67.1573 0 150C0 232.843 67.1573 300 150 300ZM150 290C227.32 290 290 227.32 290 150C290 72.6801 227.32 10 150 10C72.6801 10 10 72.6801 10 150C10 227.32 72.6801 290 150 290Z" fill="#919191"/><path fill-rule="evenodd" clip-rule="evenodd" d="M150 300C232.843 300 300 232.843 300 150C300 67.1573 232.843 0 150 0C67.1573 0 0 67.1573 0 150C0 232.843 67.1573 300 150 300ZM150 290C227.32 290 290 227.32 290 150C290 72.6801 227.32 10 150 10C72.6801 10 10 72.6801 10 150C10 227.32 72.6801 290 150 290Z" fill="#9C033A" style="mix-blend-mode:color"/><path d="M230.313 97.9687L154.844 54.5313C153.594 53.75 151.875 53.4375 150 53.4375C148.125 53.4375 146.406 53.9063 145.156 54.5313L70.1563 98.125C67.5001 99.6875 65.6251 103.594 65.6251 106.562L65.6253 193.594C65.6253 195.312 65.9378 197.344 67.1878 199.062L234.063 102.187C233.125 100.312 231.719 98.9062 230.313 97.9687Z" fill="#D26383"/><path d="M232.51 104.215C232.667 104.909 232.719 105.647 232.719 106.406L232.719 193.438C232.719 194.636 232.331 196.118 231.618 197.492C230.903 198.872 229.94 199.986 228.927 200.582L153.989 244.14C152.945 244.656 151.468 245.062 149.844 245.062C148.092 245.062 146.701 244.762 145.795 244.196L145.774 244.184L145.751 244.171L70.4388 200.577L70.432 200.572C69.9399 200.291 69.4232 199.865 68.9427 199.348L232.51 104.215Z" fill="#9C033A" stroke="#D26383" stroke-width="3"/><path d="M183.281 168.906C176.719 180.469 164.219 188.281 150 188.281C128.907 188.281 111.719 171.094 111.719 150C111.719 128.906 128.906 111.719 150 111.719C164.219 111.719 176.719 119.531 183.281 131.25L203.594 119.531C192.969 100.938 172.969 88.2812 150 88.2812C115.938 88.2812 88.2814 115.938 88.2814 150C88.2815 184.062 115.938 211.719 150 211.719C172.813 211.719 192.813 199.219 203.438 180.781L183.281 168.906Z" fill="white"/><path d="M178.281 146.562H186.406L186.406 138.281H193.281L193.281 146.562H201.563L201.563 153.437H193.281L193.281 161.562H186.406L186.406 153.437H178.281L178.281 146.562ZM207.188 146.562H215.313L215.313 138.281H222.188L222.188 146.562H230.469L230.469 153.437H222.188L222.188 161.562H215.313L215.313 153.437H207.188L207.188 146.562Z" fill="white"/></svg>