<svg viewBox="0 0 300 300" fill="none" xmlns="http://www.w3.org/2000/svg"><path d="M298 150C298 231.738 231.738 298 150 298C68.2619 298 2 231.738 2 150C2 68.2619 68.2619 2 150 2C231.738 2 298 68.2619 298 150Z" fill="#1572B6"/><path fill-rule="evenodd" clip-rule="evenodd" d="M150 300C232.843 300 300 232.843 300 150C300 67.1573 232.843 0 150 0C67.1573 0 0 67.1573 0 150C0 232.843 67.1573 300 150 300ZM150 290C227.32 290 290 227.32 290 150C290 72.6801 227.32 10 150 10C72.6801 10 10 72.6801 10 150C10 227.32 72.6801 290 150 290Z" fill="#919191"/><path fill-rule="evenodd" clip-rule="evenodd" d="M150 300C232.843 300 300 232.843 300 150C300 67.1573 232.843 0 150 0C67.1573 0 0 67.1573 0 150C0 232.843 67.1573 300 150 300ZM150 290C227.32 290 290 227.32 290 150C290 72.6801 227.32 10 150 10C72.6801 10 10 72.6801 10 150C10 227.32 72.6801 290 150 290Z" fill="#1572B6" style="mix-blend-mode:color"/><path d="M226.104 64L212.285 218.813L150.496 235.943L88.8812 218.837L75.0772 64L226.104 64Z" fill="#0868AC" stroke="white" stroke-width="3"/><path d="M150.592 224.111L201.653 209.954L213.666 75.3784H150.592L150.592 224.111Z" fill="#1572B6"/><path d="M150.592 132.442H176.154L177.919 112.66H150.592L150.592 93.3429H199.032L198.568 98.526L193.819 151.759H150.592L150.592 132.442Z" fill="white"/><path d="M150.707 182.611L150.621 182.636L129.108 176.827L127.733 161.42H108.344L111.049 191.752L150.619 202.734L150.707 202.709L150.707 182.611V182.611Z" fill="white"/><path d="M174.512 150.942L172.185 176.812L150.64 182.627L150.64 202.726L190.241 191.751L190.532 188.487L193.892 150.942H174.512Z" fill="white"/><path d="M150.657 93.3429L150.657 112.66H103.997L103.61 108.32L102.73 98.526L102.268 93.3429H150.657V93.3429ZM150.592 132.444L150.592 151.762H129.35L128.963 147.421L128.082 137.627L127.621 132.444H150.592V132.444Z" fill="#EBEBEB"/></svg>