<svg viewBox="0 0 300 300" fill="none" xmlns="http://www.w3.org/2000/svg"><path d="M298 150C298 231.738 231.738 298 150 298C68.2619 298 2 231.738 2 150C2 68.2619 68.2619 2 150 2C231.738 2 298 68.2619 298 150Z" fill="#0E6AE0"/><path fill-rule="evenodd" clip-rule="evenodd" d="M150 300C232.843 300 300 232.843 300 150C300 67.1573 232.843 0 150 0C67.1573 0 0 67.1573 0 150C0 232.843 67.1573 300 150 300ZM150 290C227.32 290 290 227.32 290 150C290 72.6801 227.32 10 150 10C72.6801 10 10 72.6801 10 150C10 227.32 72.6801 290 150 290Z" fill="#919191"/><path fill-rule="evenodd" clip-rule="evenodd" d="M150 300C232.843 300 300 232.843 300 150C300 67.1573 232.843 0 150 0C67.1573 0 0 67.1573 0 150C0 232.843 67.1573 300 150 300ZM150 290C227.32 290 290 227.32 290 150C290 72.6801 227.32 10 150 10C72.6801 10 10 72.6801 10 150C10 227.32 72.6801 290 150 290Z" fill="#0E6AE0" style="mix-blend-mode:color"/><path d="M162.5 137.5H137.5C135.842 137.5 134.253 136.842 133.081 135.669C131.909 134.497 131.25 132.908 131.25 131.25L131.25 118.75C131.25 113.777 133.225 109.008 136.742 105.492C140.258 101.975 145.027 100 150 100C154.973 100 159.742 101.975 163.258 105.492C166.775 109.008 168.75 113.777 168.75 118.75L168.75 131.25C168.75 132.908 168.092 134.497 166.919 135.669C165.747 136.842 164.158 137.5 162.5 137.5ZM143.75 125H156.25L156.25 118.75C156.25 117.092 155.592 115.503 154.419 114.331C153.247 113.158 151.658 112.5 150 112.5C148.342 112.5 146.753 113.158 145.581 114.331C144.409 115.503 143.75 117.092 143.75 118.75L143.75 125Z" fill="#0E6AE0"/><path d="M168.75 125H131.25C120.895 125 112.5 133.395 112.5 143.75L112.5 181.25C112.5 191.605 120.895 200 131.25 200H168.75C179.106 200 187.5 191.605 187.5 181.25L187.5 143.75C187.5 133.395 179.106 125 168.75 125Z" fill="#0593FF"/><path d="M162.5 156.25C162.514 154.053 161.947 151.891 160.859 149.982C159.77 148.073 158.197 146.485 156.299 145.378C154.401 144.271 152.245 143.683 150.048 143.675C147.85 143.667 145.689 144.238 143.783 145.331C141.877 146.424 140.292 148 139.189 149.9C138.086 151.801 137.504 153.958 137.501 156.156C137.497 158.353 138.073 160.513 139.17 162.416C140.268 164.32 141.847 165.901 143.75 167L143.75 175C143.75 176.658 144.409 178.247 145.581 179.419C146.753 180.592 148.343 181.25 150 181.25C151.658 181.25 153.248 180.592 154.42 179.419C155.592 178.247 156.25 176.658 156.25 175L156.25 167C158.14 165.909 159.71 164.343 160.807 162.457C161.903 160.571 162.487 158.431 162.5 156.25Z" fill="#0E6AE0"/><path d="M150 93.75C148.342 93.75 146.753 93.0915 145.581 91.9194C144.409 90.7473 143.75 89.1576 143.75 87.5L143.75 75C143.75 73.3424 144.408 71.7527 145.581 70.5806C146.753 69.4085 148.342 68.75 150 68.75C151.658 68.75 153.247 69.4085 154.419 70.5806C155.592 71.7527 156.25 73.3424 156.25 75L156.25 87.5C156.25 89.1576 155.592 90.7473 154.419 91.9194C153.247 93.0915 151.658 93.75 150 93.75Z" fill="#D8E1EF"/><path d="M181.25 125C180.428 125.005 179.612 124.847 178.851 124.536C178.089 124.225 177.397 123.767 176.813 123.188C176.227 122.606 175.762 121.915 175.445 121.154C175.127 120.392 174.964 119.575 174.964 118.75C174.964 117.925 175.127 117.108 175.445 116.346C175.762 115.585 176.227 114.894 176.813 114.312L200 91.1875L200 81.25C200 79.5924 200.659 78.0027 201.831 76.8306C203.003 75.6585 204.593 75 206.25 75C207.908 75 209.497 75.6585 210.67 76.8306C211.842 78.0027 212.5 79.5924 212.5 81.25L212.5 93.75C212.505 94.5725 212.347 95.3879 212.036 96.1494C211.725 96.9109 211.267 97.6035 210.688 98.1875L185.688 123.188C185.104 123.767 184.411 124.225 183.65 124.536C182.888 124.847 182.073 125.005 181.25 125Z" fill="#D8E1EF"/><path d="M118.75 125C117.928 125.005 117.112 124.847 116.351 124.536C115.589 124.225 114.897 123.767 114.313 123.188L89.3127 98.1875C88.7334 97.6035 88.2751 96.9109 87.9641 96.1494C87.653 95.3879 87.4954 94.5725 87.5001 93.75L87.5001 81.25C87.5001 79.5924 88.1586 78.0027 89.3307 76.8306C90.5028 75.6585 92.0925 75 93.7501 75C95.4077 75 96.9974 75.6585 98.1695 76.8306C99.3416 78.0027 100 79.5924 100 81.25L100 91.1875L123.188 114.312C123.773 114.894 124.238 115.585 124.556 116.346C124.873 117.108 125.036 117.925 125.036 118.75C125.036 119.575 124.873 120.392 124.556 121.154C124.238 121.915 123.774 122.606 123.188 123.188C122.604 123.767 121.911 124.225 121.15 124.536C120.388 124.847 119.573 125.005 118.75 125Z" fill="#D8E1EF"/><path d="M206.25 225C204.593 225 203.003 224.341 201.831 223.169C200.659 221.997 200 220.408 200 218.75L200 208.812L189.313 198.187C188.136 197.011 187.475 195.414 187.475 193.75C187.475 192.086 188.136 190.489 189.313 189.312C190.49 188.136 192.086 187.474 193.75 187.474C195.415 187.474 197.011 188.136 198.188 189.312L210.688 201.812C211.267 202.396 211.725 203.089 212.036 203.851C212.347 204.612 212.505 205.427 212.5 206.25L212.5 218.75C212.5 220.408 211.842 221.997 210.67 223.169C209.498 224.341 207.908 225 206.25 225Z" fill="#D8E1EF"/><path d="M93.7504 225C92.0928 225 90.5031 224.341 89.331 223.169C88.1589 221.997 87.5004 220.408 87.5004 218.75L87.5004 206.25C87.4956 205.427 87.6533 204.612 87.9643 203.851C88.2753 203.089 88.7336 202.396 89.3129 201.812L101.813 189.312C102.396 188.73 103.087 188.267 103.849 187.952C104.61 187.637 105.426 187.474 106.25 187.474C107.074 187.474 107.891 187.637 108.652 187.952C109.413 188.267 110.105 188.73 110.688 189.312C111.271 189.895 111.733 190.587 112.048 191.348C112.364 192.11 112.526 192.926 112.526 193.75C112.526 194.574 112.364 195.39 112.048 196.151C111.733 196.913 111.271 197.605 110.688 198.187L100 208.812L100 218.75C100 220.408 99.3419 221.997 98.1698 223.169C96.9977 224.341 95.408 225 93.7504 225Z" fill="#D8E1EF"/><path d="M150 231.25C148.343 231.25 146.753 230.592 145.581 229.419C144.409 228.247 143.75 226.658 143.75 225L143.75 212.5C143.75 210.842 144.409 209.253 145.581 208.081C146.753 206.908 148.343 206.25 150 206.25C151.658 206.25 153.248 206.908 154.42 208.081C155.592 209.253 156.25 210.842 156.25 212.5L156.25 225C156.25 226.658 155.592 228.247 154.42 229.419C153.248 230.592 151.658 231.25 150 231.25Z" fill="#D8E1EF"/><path d="M225 156.25H200C198.343 156.25 196.753 155.592 195.581 154.419C194.409 153.247 193.75 151.658 193.75 150C193.75 148.342 194.409 146.753 195.581 145.581C196.753 144.408 198.343 143.75 200 143.75H225C226.658 143.75 228.248 144.408 229.42 145.581C230.592 146.753 231.25 148.342 231.25 150C231.25 151.658 230.592 153.247 229.42 154.419C228.248 155.592 226.658 156.25 225 156.25Z" fill="#D8E1EF"/><path d="M100 156.25H75.0003C73.3427 156.25 71.753 155.592 70.5808 154.419C69.4087 153.247 68.7503 151.658 68.7503 150C68.7503 148.342 69.4087 146.753 70.5808 145.581C71.7529 144.408 73.3426 143.75 75.0002 143.75H100C101.658 143.75 103.248 144.408 104.42 145.581C105.592 146.753 106.25 148.342 106.25 150C106.25 151.658 105.592 153.247 104.42 154.419C103.248 155.592 101.658 156.25 100 156.25Z" fill="#D8E1EF"/><path d="M206.25 87.5C203.357 87.5122 200.55 86.5208 198.307 84.6949C196.063 82.8689 194.523 80.3215 193.947 77.4867C193.372 74.6519 193.797 71.7053 195.151 69.1491C196.505 66.593 198.704 64.5855 201.372 63.4689C204.041 62.3524 207.014 62.1958 209.785 63.0259C212.556 63.8561 214.953 65.6215 216.568 68.0213C218.183 70.4211 218.915 73.3067 218.641 76.1863C218.366 79.0658 217.102 81.761 215.063 83.8125C212.729 86.1599 209.56 87.4861 206.25 87.5Z" fill="#D8E1EF"/><path d="M93.75 87.5C90.8575 87.5122 88.0502 86.5208 85.8067 84.6949C83.5633 82.8689 82.0225 80.3215 81.4471 77.4867C80.8717 74.6519 81.2973 71.7053 82.6512 69.1491C84.0052 66.593 86.2038 64.5855 88.8722 63.4689C91.5406 62.3524 94.5136 62.1958 97.2846 63.0259C100.056 63.8561 102.453 65.6215 104.068 68.0213C105.683 70.4211 106.415 73.3067 106.141 76.1863C105.866 79.0658 104.602 81.761 102.563 83.8125C100.229 86.1599 97.0599 87.4861 93.75 87.5Z" fill="#D8E1EF"/><path d="M206.25 237.5C203.358 237.512 200.55 236.521 198.307 234.695C196.064 232.869 194.523 230.321 193.947 227.487C193.372 224.652 193.798 221.705 195.151 219.149C196.505 216.593 198.704 214.586 201.372 213.469C204.041 212.352 207.014 212.196 209.785 213.026C212.556 213.856 214.953 215.621 216.568 218.021C218.183 220.421 218.916 223.307 218.641 226.186C218.367 229.066 217.102 231.761 215.063 233.813C212.729 236.16 209.56 237.486 206.25 237.5Z" fill="#D8E1EF"/><path d="M93.7503 237.5C90.8577 237.512 88.0504 236.521 85.807 234.695C83.5635 232.869 82.0228 230.321 81.4474 227.487C80.872 224.652 81.2975 221.705 82.6515 219.149C84.0054 216.593 86.204 214.586 88.8724 213.469C91.5408 212.352 94.5139 212.196 97.2848 213.026C100.056 213.856 102.453 215.621 104.068 218.021C105.683 220.421 106.416 223.307 106.141 226.186C105.867 229.066 104.602 231.761 102.563 233.813C100.229 236.16 97.0601 237.486 93.7503 237.5Z" fill="#D8E1EF"/><path d="M231.25 162.5C238.154 162.5 243.75 156.904 243.75 150C243.75 143.096 238.154 137.5 231.25 137.5C224.347 137.5 218.75 143.096 218.75 150C218.75 156.904 224.347 162.5 231.25 162.5Z" fill="#D8E1EF"/><path d="M68.7503 162.5C75.6539 162.5 81.2503 156.904 81.2503 150C81.2503 143.096 75.6538 137.5 68.7502 137.5C61.8467 137.5 56.2503 143.096 56.2503 150C56.2503 156.904 61.8467 162.5 68.7503 162.5Z" fill="#D8E1EF"/><path d="M150 243.75C147.528 243.75 145.111 243.017 143.056 241.643C141 240.27 139.398 238.318 138.452 236.034C137.506 233.749 137.258 231.236 137.74 228.811C138.223 226.387 139.413 224.159 141.161 222.411C142.91 220.663 145.137 219.473 147.562 218.99C149.986 218.508 152.5 218.755 154.784 219.702C157.068 220.648 159.02 222.25 160.394 224.305C161.767 226.361 162.5 228.778 162.5 231.25C162.5 234.565 161.183 237.745 158.839 240.089C156.495 242.433 153.316 243.75 150 243.75Z" fill="#D8E1EF"/><path d="M150 81.25C147.528 81.25 145.111 80.5169 143.055 79.1434C141 77.7699 139.398 75.8176 138.452 73.5335C137.505 71.2495 137.258 68.7361 137.74 66.3114C138.223 63.8866 139.413 61.6593 141.161 59.9112C142.909 58.163 145.137 56.9725 147.561 56.4902C149.986 56.0079 152.499 56.2554 154.784 57.2015C157.068 58.1476 159.02 59.7498 160.393 61.8054C161.767 63.861 162.5 66.2777 162.5 68.75C162.5 72.0652 161.183 75.2446 158.839 77.5888C156.495 79.933 153.315 81.25 150 81.25Z" fill="#D8E1EF"/></svg>