<svg viewBox="0 0 300 300" fill="none" xmlns="http://www.w3.org/2000/svg"><path d="M298 150C298 231.738 231.738 298 150 298C68.2619 298 2 231.738 2 150C2 68.2619 68.2619 2 150 2C231.738 2 298 68.2619 298 150Z" fill="#924703"/><path d="M150 0C232.843 0 300 67.1573 300 150C300 232.843 232.843 300 150 300C67.1573 300 0 232.843 0 150C0 67.1573 67.1573 0 150 0ZM150 10C72.6801 10 10 72.6801 10 150C10 227.32 72.6801 290 150 290C227.32 290 290 227.32 290 150C290 72.6801 227.32 10 150 10Z" fill="#919191"/><path d="M150 0C232.843 0 300 67.1573 300 150C300 232.843 232.843 300 150 300C67.1573 300 0 232.843 0 150C0 67.1573 67.1573 0 150 0ZM150 10C72.6801 10 10 72.6801 10 150C10 227.32 72.6801 290 150 290C227.32 290 290 227.32 290 150C290 72.6801 227.32 10 150 10Z" fill="#DE7210" style="mix-blend-mode:color"/><path d="M150.767 130.734C151.022 130.128 151.154 129.476 151.154 128.818C151.154 128.159 151.022 127.508 150.767 126.901C150.22 125.698 149.229 124.754 148 124.268C147.422 124.06 146.814 123.948 146.2 123.934C145.019 123.92 143.871 124.324 142.959 125.075C142.047 125.826 141.431 126.876 141.219 128.038C141.007 129.2 141.214 130.4 141.802 131.424C142.391 132.449 143.323 133.232 144.433 133.634C145.672 134.091 147.04 134.043 148.243 133.501C149.447 132.958 150.389 131.965 150.867 130.734H150.767Z" fill="white"/><path d="M191.267 146.201C190.951 147.023 190.974 147.937 191.33 148.743C191.686 149.549 192.346 150.181 193.167 150.501C193.576 150.657 194.012 150.73 194.449 150.717C194.887 150.704 195.318 150.605 195.717 150.425C196.116 150.246 196.476 149.989 196.777 149.67C197.077 149.352 197.311 148.977 197.467 148.568C197.8 147.756 197.8 146.846 197.467 146.034C197.113 145.226 196.454 144.591 195.633 144.268C195.247 144.136 194.842 144.069 194.433 144.068C193.965 144.072 193.502 144.163 193.067 144.334C192.657 144.51 192.287 144.765 191.978 145.086C191.669 145.406 191.427 145.785 191.267 146.201Z" fill="white"/><path d="M229.767 84.9344L152.633 63.8011C150.944 63.3414 149.18 63.219 147.443 63.4409C145.706 63.6628 144.03 64.2247 142.51 65.0945C140.99 65.9643 139.656 67.1249 138.585 68.5102C137.514 69.8954 136.726 71.478 136.267 73.1678L109 172.834C108.07 176.242 108.531 179.88 110.281 182.949C112.031 186.017 114.927 188.266 118.333 189.201L139.8 195.068C140.031 193.731 140.493 192.445 141.167 191.268L141.867 190.068C140.397 188.156 139.6 185.812 139.6 183.401C139.6 163.968 187.467 163.401 192.933 163.401C202.482 163.433 212.008 164.314 221.4 166.034L239.133 101.301C239.593 99.6114 239.715 97.8478 239.494 96.1108C239.272 94.3738 238.71 92.6975 237.84 91.1777C236.97 89.6579 235.809 88.3243 234.424 87.2531C233.039 86.1818 231.456 85.394 229.767 84.9344ZM215.6 119.834C214.878 121.725 213.599 123.353 211.933 124.501C210.266 125.65 208.291 126.266 206.267 126.268C205.048 126.26 203.84 126.034 202.7 125.601C201.471 125.132 200.347 124.426 199.392 123.522C198.437 122.618 197.669 121.535 197.133 120.334C196.544 118.968 196.259 117.489 196.3 116.001L183.267 111.034L173.767 135.934L186.767 140.934C187.722 139.783 188.931 138.87 190.3 138.268C191.661 137.661 193.14 137.366 194.63 137.404C196.12 137.443 197.582 137.814 198.91 138.49C200.238 139.166 201.398 140.13 202.305 141.313C203.212 142.495 203.844 143.865 204.154 145.322C204.463 146.78 204.444 148.288 204.096 149.737C203.747 151.186 203.08 152.539 202.142 153.696C201.204 154.854 200.019 155.788 198.674 156.429C197.328 157.07 195.857 157.402 194.367 157.401C193.148 157.393 191.94 157.167 190.8 156.734C188.878 155.993 187.231 154.677 186.086 152.964C184.94 151.252 184.351 149.227 184.4 147.168L171.367 142.168L155.3 136.034C154.14 137.572 152.617 138.798 150.867 139.601C149.366 140.271 147.743 140.623 146.1 140.634C144.673 140.63 143.26 140.359 141.933 139.834C139.895 139.071 138.111 137.754 136.78 136.032C135.45 134.309 134.626 132.25 134.402 130.085C134.177 127.921 134.561 125.736 135.51 123.778C136.458 121.819 137.935 120.164 139.773 118.998C141.61 117.833 143.737 117.203 145.913 117.179C148.089 117.156 150.229 117.74 152.091 118.866C153.954 119.991 155.466 121.614 156.456 123.552C157.447 125.49 157.878 127.665 157.7 129.834L167.7 133.601L179.6 102.434L198.833 109.801C199.783 108.658 200.98 107.747 202.333 107.134C203.538 106.579 204.84 106.268 206.166 106.221C207.491 106.174 208.813 106.391 210.054 106.859C211.295 107.328 212.43 108.038 213.394 108.95C214.357 109.861 215.13 110.955 215.667 112.168C216.16 113.387 216.409 114.692 216.397 116.008C216.386 117.323 216.115 118.624 215.6 119.834Z" fill="white"/><path d="M207.467 113.134C207.082 112.993 206.676 112.914 206.267 112.901C205.591 112.906 204.933 113.115 204.38 113.502C203.826 113.889 203.403 114.435 203.167 115.068C202.833 115.879 202.833 116.79 203.167 117.601C203.52 118.409 204.179 119.045 205 119.368C205.406 119.537 205.843 119.625 206.283 119.625C206.724 119.625 207.16 119.537 207.567 119.368C208.369 119 208.992 118.328 209.3 117.501C209.633 116.69 209.633 115.779 209.3 114.968C209.132 114.555 208.884 114.18 208.569 113.866C208.254 113.551 207.879 113.302 207.467 113.134Z" fill="white"/><path d="M141.133 204.601C140.163 206.262 139.635 208.144 139.6 210.068C139.561 212.464 140.311 214.806 141.733 216.734L120.933 225.901C117.711 227.354 114.043 227.469 110.737 226.218C107.43 224.968 104.755 222.456 103.3 219.234L61.1666 124.801C59.7237 121.582 59.6151 117.923 60.8646 114.624C62.1141 111.325 64.6199 108.656 67.8332 107.201L127.2 80.5344L102.533 171.068C101.134 176.182 101.822 181.643 104.448 186.249C107.073 190.856 111.42 194.232 116.533 195.634L141.133 202.301L142.267 202.601L141.833 203.334L141.133 204.601Z" fill="white"/><path d="M192.934 230.068C188.8 230.068 160.567 229.734 146.934 221.234C146.527 221.887 146.298 222.633 146.267 223.401C146.267 230.768 167.167 236.734 192.934 236.734C218.7 236.734 239.6 230.768 239.6 223.401C239.569 222.633 239.34 221.887 238.934 221.234C225.3 229.734 197.067 230.068 192.934 230.068Z" fill="white"/><path d="M192.934 216.734C188.8 216.734 160.567 216.401 146.934 207.901C146.527 208.553 146.298 209.3 146.267 210.068C146.267 217.434 167.167 223.401 192.934 223.401C218.7 223.401 239.6 217.434 239.6 210.068C239.569 209.3 239.34 208.553 238.934 207.901C225.3 216.401 197.067 216.734 192.934 216.734Z" fill="white"/><path d="M192.934 203.401C188.8 203.401 160.567 203.068 146.934 194.568C146.527 195.22 146.298 195.967 146.267 196.734C146.267 204.101 167.167 210.068 192.934 210.068C218.7 210.068 239.6 204.101 239.6 196.734C239.569 195.967 239.34 195.22 238.934 194.568C225.3 203.068 197.067 203.401 192.934 203.401Z" fill="white"/><path d="M192.934 170.068C167.167 170.068 146.267 176.034 146.267 183.401C146.267 190.768 167.167 196.734 192.934 196.734C218.7 196.734 239.6 190.768 239.6 183.401C239.6 176.034 218.7 170.068 192.934 170.068ZM212.934 186.734H172.934V180.068H212.934V186.734Z" fill="white"/></svg>
