<svg viewBox="0 0 300 300" fill="none" xmlns="http://www.w3.org/2000/svg"><path d="M298 150C298 231.738 231.738 298 150 298C68.2619 298 2 231.738 2 150C2 68.2619 68.2619 2 150 2C231.738 2 298 68.2619 298 150Z" fill="#5CD4FF"/><path fill-rule="evenodd" clip-rule="evenodd" d="M150 300C232.843 300 300 232.843 300 150C300 67.1573 232.843 0 150 0C67.1573 0 0 67.1573 0 150C0 232.843 67.1573 300 150 300ZM150 290C227.32 290 290 227.32 290 150C290 72.6801 227.32 10 150 10C72.6801 10 10 72.6801 10 150C10 227.32 72.6801 290 150 290Z" fill="#919191"/><path fill-rule="evenodd" clip-rule="evenodd" d="M150 300C232.843 300 300 232.843 300 150C300 67.1573 232.843 0 150 0C67.1573 0 0 67.1573 0 150C0 232.843 67.1573 300 150 300ZM150 290C227.32 290 290 227.32 290 150C290 72.6801 227.32 10 150 10C72.6801 10 10 72.6801 10 150C10 227.32 72.6801 290 150 290Z" fill="#28B8EB" style="mix-blend-mode:color"/><path fill-rule="evenodd" clip-rule="evenodd" d="M165.313 129.375H182.969L182.969 147.344H191.875C195.938 147.344 200.156 146.563 204.063 145.313C205.938 144.688 208.125 143.75 210 142.656C207.5 139.375 206.25 135.313 205.938 131.25C205.469 125.781 206.563 118.594 210.313 114.375L212.188 112.188L214.375 113.906C220 118.438 224.531 124.531 225.469 131.719C232.188 129.688 240 130.156 245.938 133.594L248.281 135L247.031 137.5C242.031 147.188 231.563 150.313 221.406 149.688C206.094 187.656 172.969 205.625 132.657 205.625C111.875 205.625 92.8128 197.813 81.8753 179.375L81.719 179.062L80.1565 175.781C76.4065 167.656 75.3127 158.75 76.0939 149.844L76.4064 147.188H91.4064L91.4064 129.375H109.063L109.063 111.875H144.219L144.219 94.2188H165.313L165.313 129.375V129.375Z" fill="#262626"/><path d="M222.5 136.094C223.75 126.875 216.875 119.688 212.5 116.25C207.656 121.875 206.875 136.875 214.531 143.125C210.157 146.875 201.25 150.469 191.875 150.469H79.0628C78.1253 160.156 79.8441 169.062 83.7503 176.719L85.0003 179.062C85.7816 180.469 86.7191 181.719 87.6566 183.125C92.3441 183.437 96.5628 183.594 100.469 183.438C108.125 183.281 114.375 182.344 119.219 180.781C120 180.469 120.625 180.937 120.938 181.562C121.25 182.344 120.782 182.969 120.157 183.281C119.532 183.438 118.907 183.75 118.125 183.906C114.375 185 110.313 185.625 105.157 185.937H104.219C102.188 186.094 100 186.094 97.6566 186.094C95.1566 186.094 92.8128 186.094 90.0003 185.937C99.3754 196.562 114.063 202.813 132.5 202.813C171.563 202.813 204.688 185.469 219.219 146.719C229.688 147.812 239.688 145.156 244.219 136.25C237.188 132.031 227.813 133.437 222.5 136.094V136.094Z" fill="#323330"/><path d="M222.5 136.094C223.75 126.875 216.875 119.688 212.5 116.25C207.656 121.875 206.875 136.875 214.531 143.125C210.156 146.875 201.25 150.469 191.875 150.469H85.6252C85.1565 165.313 90.6253 176.563 100.469 183.281C108.125 183.125 114.375 182.187 119.219 180.625C120 180.312 120.625 180.781 120.938 181.406C121.25 182.187 120.782 182.812 120.157 183.125C119.532 183.281 118.907 183.594 118.125 183.75C114.375 184.844 110 185.625 104.844 185.937L104.688 185.781C117.969 192.656 137.188 192.5 159.375 184.063C184.063 174.531 207.188 156.406 223.281 135.781C222.969 135.938 222.656 135.937 222.5 136.094V136.094Z" fill="#28B8EB"/><path d="M79.219 162.188C79.844 167.344 81.4065 172.187 83.7503 176.719L85.0003 179.062C85.7815 180.469 86.719 181.719 87.6565 183.125C92.344 183.437 96.5628 183.594 100.469 183.437C108.125 183.281 114.375 182.344 119.219 180.781C120 180.469 120.625 180.937 120.938 181.562C121.25 182.344 120.782 182.969 120.157 183.281C119.532 183.438 118.907 183.75 118.125 183.906C114.375 185 110 185.781 104.844 186.094H104.219C102.188 186.25 100 186.25 97.8128 186.25C95.3128 186.25 92.8128 186.25 90.1565 186.094C99.5316 196.719 114.375 202.969 132.813 202.969C166.25 202.969 195.313 190.312 212.188 162.344H79.219L79.219 162.188Z" fill="#028BB8"/><path d="M86.719 162.188C88.7503 171.25 93.4378 178.438 100.469 183.281C108.125 183.125 114.375 182.187 119.219 180.625C120 180.312 120.625 180.781 120.938 181.406C121.25 182.187 120.782 182.812 120.157 183.125C119.532 183.281 118.907 183.594 118.125 183.75C114.375 184.844 110 185.625 104.688 185.937C117.969 192.812 137.188 192.656 159.219 184.219C172.5 179.062 185.469 171.406 197.031 162.188H86.719V162.188Z" fill="#019BC6"/><path fill-rule="evenodd" clip-rule="evenodd" d="M94.3752 132.344H109.688L109.688 147.656H94.3752L94.3752 132.344V132.344ZM95.6252 133.594H96.8752L96.8752 146.25H95.6252L95.6252 133.594ZM97.8127 133.594H99.0627L99.0627 146.25H97.8127L97.8127 133.594ZM100.156 133.594H101.406L101.406 146.25H100.156L100.156 133.594ZM102.5 133.594H103.75L103.75 146.25H102.5L102.5 133.594ZM104.844 133.594H106.094L106.094 146.25H104.844L104.844 133.594ZM107.188 133.594H108.438L108.438 146.25H107.188L107.188 133.594ZM111.875 114.844H127.188L127.188 130.156H111.875L111.875 114.844ZM113.281 116.094H114.531L114.531 128.75H113.281L113.281 116.094ZM115.469 116.094H116.719L116.719 128.75H115.469L115.469 116.094ZM117.813 116.094H119.063L119.063 128.75H117.813L117.813 116.094ZM120.156 116.094H121.406L121.406 128.75H120.156L120.156 116.094ZM122.344 116.094H123.594L123.594 128.75H122.344L122.344 116.094ZM124.688 116.094H125.938L125.938 128.75H124.688L124.688 116.094Z" fill="#00ACD3"/><path fill-rule="evenodd" clip-rule="evenodd" d="M111.875 132.344H127.188L127.188 147.656H111.875L111.875 132.344V132.344ZM113.281 133.594H114.531L114.531 146.25H113.281L113.281 133.594ZM115.469 133.594H116.719L116.719 146.25H115.469L115.469 133.594ZM117.813 133.594H119.063L119.063 146.25H117.813L117.813 133.594ZM120.156 133.594H121.406L121.406 146.25H120.156L120.156 133.594ZM122.344 133.594H123.594L123.594 146.25H122.344L122.344 133.594ZM124.688 133.594H125.938L125.938 146.25H124.688L124.688 133.594Z" fill="#23C2EE"/><path fill-rule="evenodd" clip-rule="evenodd" d="M129.531 132.344H144.844L144.844 147.656H129.531L129.531 132.344V132.344ZM130.781 133.594H132.031L132.031 146.25H130.781L130.781 133.594ZM133.125 133.594H134.375L134.375 146.25H133.125L133.125 133.594ZM135.469 133.594H136.719L136.719 146.25H135.469L135.469 133.594ZM137.656 133.594H138.906L138.906 146.25H137.656L137.656 133.594ZM140 133.594H141.25L141.25 146.25H140L140 133.594ZM142.344 133.594H143.594L143.594 146.25H142.344L142.344 133.594Z" fill="#00ACD3"/><path fill-rule="evenodd" clip-rule="evenodd" d="M129.531 114.844H144.844L144.844 130.156H129.531L129.531 114.844V114.844ZM130.781 116.094H132.031L132.031 128.75H130.781L130.781 116.094ZM133.125 116.094H134.375L134.375 128.75H133.125L133.125 116.094ZM135.469 116.094H136.719L136.719 128.75H135.469L135.469 116.094ZM137.656 116.094H138.906L138.906 128.75H137.656L137.656 116.094ZM140 116.094H141.25L141.25 128.75H140L140 116.094ZM142.344 116.094H143.594L143.594 128.75H142.344L142.344 116.094ZM147.188 132.344H162.5L162.5 147.656H147.188L147.188 132.344V132.344ZM148.438 133.594H149.688L149.688 146.25H148.438L148.438 133.594V133.594ZM150.781 133.594H152.031L152.031 146.25H150.781L150.781 133.594ZM152.969 133.594H154.219L154.219 146.25H152.969L152.969 133.594ZM155.313 133.594H156.563L156.563 146.25H155.313L155.313 133.594ZM157.656 133.594H158.906L158.906 146.25H157.656L157.656 133.594ZM160 133.594H161.25L161.25 146.25H160L160 133.594Z" fill="#23C2EE"/><path fill-rule="evenodd" clip-rule="evenodd" d="M147.188 114.844H162.5L162.5 130.156H147.188L147.188 114.844ZM148.438 116.094H149.688L149.688 128.75H148.438L148.438 116.094ZM150.781 116.094H152.031L152.031 128.75H150.781L150.781 116.094ZM152.969 116.094H154.219L154.219 128.75H152.969L152.969 116.094ZM155.313 116.094H156.563L156.563 128.75H155.313L155.313 116.094ZM157.656 116.094H158.906L158.906 128.75H157.656L157.656 116.094ZM160 116.094H161.25L161.25 128.75H160L160 116.094Z" fill="#00ACD3"/><path fill-rule="evenodd" clip-rule="evenodd" d="M147.188 97.1875H162.5L162.5 112.5H147.188L147.188 97.1875ZM148.438 98.4375H149.688L149.688 111.094H148.438L148.438 98.4375ZM150.781 98.4375H152.031L152.031 111.094H150.781L150.781 98.4375ZM152.969 98.4375H154.219L154.219 111.094H152.969L152.969 98.4375ZM155.313 98.4375H156.563L156.563 111.094H155.313L155.313 98.4375ZM157.656 98.4375H158.906L158.906 111.094H157.656L157.656 98.4375ZM160 98.4375H161.25L161.25 111.094H160L160 98.4375Z" fill="#23C2EE"/><path fill-rule="evenodd" clip-rule="evenodd" d="M164.844 132.344H180.156L180.156 147.656H164.844L164.844 132.344ZM166.094 133.594H167.344L167.344 146.25H166.094L166.094 133.594ZM168.281 133.594H169.531L169.531 146.25H168.281L168.281 133.594ZM170.625 133.594H171.875L171.875 146.25H170.625L170.625 133.594ZM172.969 133.594H174.219L174.219 146.25H172.969L172.969 133.594ZM175.313 133.594H176.563L176.563 146.25H175.313L175.313 133.594ZM177.656 133.594H178.906L178.906 146.25H177.656L177.656 133.594Z" fill="#00ACD3"/><path fill-rule="evenodd" clip-rule="evenodd" d="M126.25 172.344C128.594 172.344 130.469 174.219 130.469 176.562C130.469 178.906 128.594 180.781 126.25 180.781C123.907 180.781 122.032 178.906 122.032 176.562C122.031 174.219 123.906 172.344 126.25 172.344Z" fill="#D4EEF1"/><path fill-rule="evenodd" clip-rule="evenodd" d="M126.25 173.594C126.563 173.594 127.032 173.594 127.344 173.75C127.032 173.906 126.719 174.375 126.719 174.844C126.719 175.469 127.344 176.094 127.969 176.094C128.438 176.094 128.907 175.781 129.063 175.469C129.219 175.781 129.219 176.25 129.219 176.563C129.219 178.281 127.813 179.531 126.25 179.531C124.532 179.531 123.282 178.125 123.282 176.563C123.282 175 124.532 173.594 126.25 173.594M51.719 163.75H247.657C243.438 162.656 234.219 161.25 235.625 155.625C227.813 164.531 209.219 161.875 204.375 157.5C199.063 165.156 168.438 162.188 166.406 156.25C159.844 164.063 139.375 164.063 132.813 156.25C130.625 162.188 100 165.156 94.844 157.5C90.1565 161.875 71.4065 164.531 63.594 155.625C65.3128 161.094 55.9378 162.656 51.719 163.75" fill="#3A4D54"/><path d="M137.5 202.813C127.032 197.813 121.407 191.094 118.125 183.75C114.219 184.844 109.532 185.625 104.219 185.938C102.188 186.094 100 186.094 97.8128 186.094C95.1565 186.094 92.5002 186.094 89.6877 185.938C99.0628 195.313 110.938 202.656 132.657 202.813H137.5Z" fill="#BFDBE0"/><path d="M122.032 190.469C120.625 188.438 119.219 186.094 118.125 183.75C114.219 184.844 109.531 185.625 104.219 185.938C107.813 187.813 113.125 189.688 122.032 190.469V190.469Z" fill="#D4EEF1"/></svg>