<svg viewBox="0 0 300 300" fill="none" xmlns="http://www.w3.org/2000/svg"><path d="M298 150C298 231.738 231.738 298 150 298C68.2619 298 2 231.738 2 150C2 68.2619 68.2619 2 150 2C231.738 2 298 68.2619 298 150Z" fill="#F34F29"/><path fill-rule="evenodd" clip-rule="evenodd" d="M150 300C232.843 300 300 232.843 300 150C300 67.1573 232.843 0 150 0C67.1573 0 0 67.1573 0 150C0 232.843 67.1573 300 150 300ZM150 290C227.32 290 290 227.32 290 150C290 72.6801 227.32 10 150 10C72.6801 10 10 72.6801 10 150C10 227.32 72.6801 290 150 290Z" fill="#919191"/><path fill-rule="evenodd" clip-rule="evenodd" d="M150 300C232.843 300 300 232.843 300 150C300 67.1573 232.843 0 150 0C67.1573 0 0 67.1573 0 150C0 232.843 67.1573 300 150 300ZM150 290C227.32 290 290 227.32 290 150C290 72.6801 227.32 10 150 10C72.6801 10 10 72.6801 10 150C10 227.32 72.6801 290 150 290Z" fill="#F34F29" style="mix-blend-mode:color"/><path d="M244.902 141.216L158.783 55.1C153.827 50.1406 145.783 50.1406 140.819 55.1L122.938 72.9844L145.622 95.6688C150.895 93.8891 156.939 95.0828 161.141 99.2844C165.364 103.513 166.549 109.608 164.725 114.898L186.588 136.763C191.877 134.939 197.981 136.117 202.203 140.348C208.11 146.25 208.11 155.817 202.203 161.722C200.8 163.126 199.133 164.24 197.299 165C195.465 165.76 193.499 166.151 191.514 166.151C189.528 166.151 187.562 165.76 185.728 165C183.894 164.24 182.227 163.126 180.824 161.722C178.715 159.612 177.277 156.925 176.692 154C176.107 151.075 176.4 148.042 177.535 145.283L157.147 124.895L157.144 178.553C158.623 179.282 159.974 180.246 161.142 181.409C167.046 187.311 167.046 196.875 161.143 202.789C155.238 208.691 145.668 208.691 139.769 202.789C133.866 196.877 133.866 187.313 139.769 181.409C141.183 179.993 142.866 178.872 144.717 178.113L144.717 123.958C142.864 123.2 141.181 122.079 139.769 120.659C135.297 116.191 134.22 109.628 136.514 104.134L114.15 81.7703L55.1002 140.817C52.7179 143.2 51.3796 146.432 51.3796 149.802C51.3796 153.171 52.7179 156.403 55.1003 158.786L141.221 244.902C146.18 249.861 154.221 249.861 159.188 244.902L244.903 159.186C247.285 156.802 248.623 153.57 248.623 150.2C248.622 146.831 247.284 143.599 244.902 141.216Z" fill="white"/></svg>