<svg viewBox="0 0 300 300" fill="none" xmlns="http://www.w3.org/2000/svg"><path d="M298 150C298 231.738 231.738 298 150 298C68.2619 298 2 231.738 2 150C2 68.2619 68.2619 2 150 2C231.738 2 298 68.2619 298 150Z" fill="#6AD7E5"/><path fill-rule="evenodd" clip-rule="evenodd" d="M150 300C232.843 300 300 232.843 300 150C300 67.1573 232.843 0 150 0C67.1573 0 0 67.1573 0 150C0 232.843 67.1573 300 150 300ZM150 290C227.32 290 290 227.32 290 150C290 72.6801 227.32 10 150 10C72.6801 10 10 72.6801 10 150C10 227.32 72.6801 290 150 290Z" fill="#919191"/><path fill-rule="evenodd" clip-rule="evenodd" d="M150 300C232.843 300 300 232.843 300 150C300 67.1573 232.843 0 150 0C67.1573 0 0 67.1573 0 150C0 232.843 67.1573 300 150 300ZM150 290C227.32 290 290 227.32 290 150C290 72.6801 227.32 10 150 10C72.6801 10 10 72.6801 10 150C10 227.32 72.6801 290 150 290Z" fill="#6AD7E5" style="mix-blend-mode:color"/><path fill-rule="evenodd" clip-rule="evenodd" d="M82.9689 157.344C83.2814 162.813 88.7502 160.313 91.2502 158.594C93.5939 156.875 94.3752 158.281 94.5314 155C94.6877 152.813 94.8439 150.781 94.8439 148.594C91.2501 148.281 87.3439 149.063 84.3751 151.25C82.9689 152.344 80.0002 155.938 82.9689 157.344Z" fill="white"/><path d="M85.9377 161.25C84.844 161.25 82.8127 160.781 82.5002 157.656C81.5627 157.031 81.2502 156.25 81.2502 155.781C81.094 153.906 83.1252 151.719 84.219 150.937C86.719 149.062 90.0002 148.125 93.4377 148.125H95.469L95.469 148.594C95.6252 150.312 95.469 152.031 95.3127 153.594C95.3127 154.063 95.3127 154.531 95.1565 155C95.0002 157.344 94.5315 157.656 93.4377 158.125C92.969 158.281 92.5002 158.438 91.719 159.063C90.9377 159.531 88.2815 161.25 85.9377 161.25ZM93.4377 149.063C90.1565 149.063 87.1877 150 84.844 151.719C83.7502 152.5 82.1877 154.375 82.344 155.625C82.344 156.094 82.6565 156.563 83.2815 156.875L83.594 157.031L83.594 157.344C83.7502 159.844 85.0002 160.156 85.9377 160.156C87.5002 160.156 89.6877 159.062 91.094 158.125C92.0315 157.5 92.6565 157.344 93.1252 157.187C93.9065 156.875 94.0627 156.875 94.219 155C94.219 154.531 94.219 154.063 94.3752 153.594C94.5315 152.188 94.5315 150.625 94.5315 149.219C94.0627 149.063 93.7502 149.063 93.4377 149.063Z" fill="black"/><path fill-rule="evenodd" clip-rule="evenodd" d="M82.969 157.344C83.7502 157.031 84.6877 156.875 85.1565 156.094L82.969 157.344Z" fill="#C6B198"/><path d="M82.969 157.812C82.8128 157.812 82.5003 157.656 82.5003 157.5C82.344 157.187 82.5003 156.875 82.8128 156.875C82.969 156.875 83.1253 156.719 83.1253 156.719C83.7503 156.406 84.3753 156.25 84.6878 155.781C84.844 155.625 85.1565 155.469 85.469 155.625C85.6253 155.781 85.7815 156.094 85.6253 156.406C85.0003 157.187 84.219 157.5 83.594 157.656L83.2815 157.812H82.969Z" fill="black"/><path fill-rule="evenodd" clip-rule="evenodd" d="M95.7812 91.25C74.5312 85.3125 90.3124 58.2812 107.344 69.375L95.7812 91.25Z" fill="#6AD7E5"/><path d="M96.0939 91.875L95.6251 91.7188C84.6876 88.5938 84.8438 80.7813 85.1563 78.4375C85.9376 72.5 91.5626 66.25 99.0626 66.25C102.031 66.25 104.844 67.1875 107.656 69.0625L108.125 69.375L96.0939 91.875ZM99.0626 67.3438C92.0313 67.3438 86.8751 73.125 86.0938 78.5937C85.3126 84.2188 88.7501 88.5938 95.4689 90.625L106.563 69.5313C104.219 68.125 101.719 67.3438 99.0626 67.3438Z" fill="black"/><path fill-rule="evenodd" clip-rule="evenodd" d="M190 67.3438C206.719 55.625 222.031 82.1875 202.5 88.9062L190 67.3438Z" fill="#6AD7E5"/><path d="M202.344 89.5312L189.375 67.1875L189.844 66.875C192.813 64.8438 195.781 63.75 198.75 63.75C205.937 63.75 211.094 69.6875 212.188 75.4687C212.656 77.8125 213.125 85.7812 202.813 89.2187L202.344 89.5312ZM190.781 67.6562L202.813 88.4375C208.906 86.25 212.031 81.5625 211.094 75.9375C210.156 70.625 205.312 65.1562 198.75 65.1562C196.094 65 193.438 65.7812 190.781 67.6562Z" fill="black"/><path fill-rule="evenodd" clip-rule="evenodd" d="M193.75 225.469C197.969 228.125 205.782 236.094 199.376 240C193.282 245.625 189.844 233.75 184.376 232.187C186.719 229.062 189.688 226.094 193.75 225.469Z" fill="#F6D2A2"/><path d="M196.094 242.031C193.594 242.031 191.407 239.531 189.532 237.188C187.813 235.313 186.094 233.281 184.219 232.656L183.438 232.5L183.907 231.875C185.782 229.219 188.907 225.781 193.594 225H193.75L193.907 225.156C196.563 226.875 202.344 231.719 202.188 236.25C202.188 237.969 201.251 239.375 199.532 240.469C198.438 241.562 197.344 242.031 196.094 242.031ZM185.157 231.875C187.032 232.656 188.594 234.688 190.157 236.406C192.032 238.75 193.907 240.781 195.938 240.781C196.876 240.781 197.813 240.312 198.751 239.375H198.907C200.313 238.437 201.094 237.344 201.094 235.937C201.094 232.344 196.563 227.812 193.438 225.781C190.625 226.562 187.813 228.438 185.157 231.875ZM199.376 240.469C199.219 240.469 199.063 240.312 198.907 240.156C198.594 239.531 198.282 238.75 198.126 238.125C197.657 236.875 197.188 235.625 196.251 234.687C196.094 234.531 196.094 234.219 196.251 233.906C196.407 233.75 196.719 233.75 197.032 233.906C198.126 235 198.751 236.406 199.219 237.812L200.001 239.688C200.157 240 200.001 240.312 199.844 240.469H199.376Z" fill="black"/><path fill-rule="evenodd" clip-rule="evenodd" d="M117.5 234.531C112.5 235.312 109.688 239.844 105.469 242.187C101.563 244.531 100 241.406 99.6878 240.781C99.0628 240.469 99.0628 241.094 98.1253 240.156C94.5315 234.375 101.875 230.156 105.782 227.344C111.25 226.094 114.688 230.781 117.5 234.531Z" fill="#F6D2A2"/><path d="M102.813 243.438C100.782 243.438 99.688 241.719 99.3755 241.094H99.2192C98.7505 241.094 98.438 240.938 97.813 240.313L97.813 240.156C94.3754 234.687 100.313 230.469 104.219 227.656L105.625 226.719H105.938C106.563 226.562 107.032 226.562 107.657 226.562C112.344 226.562 115.313 230.625 117.813 233.906L118.594 235L117.657 235.156C114.688 235.625 112.5 237.5 110.313 239.375C108.907 240.625 107.5 241.719 105.938 242.656C104.688 243.125 103.75 243.438 102.813 243.438ZM99.3755 240.156C99.5317 240.156 99.688 240.156 100 240.313H100.157L100.313 240.469C100.625 240.937 101.407 242.344 102.969 242.344C103.75 242.344 104.532 242.031 105.313 241.562C106.875 240.781 108.282 239.531 109.532 238.437C111.563 236.719 113.75 234.844 116.563 234.063C114.219 230.938 111.407 227.5 107.5 227.5C107.032 227.5 106.563 227.5 106.094 227.656L104.844 228.594C100.782 231.406 95.7817 235 98.7505 239.687C98.9067 240 99.063 240.156 99.3755 240.156ZM99.688 241.25C99.3755 241.25 99.063 240.937 99.2192 240.625C99.3755 239.062 100.157 237.969 100.938 236.719C101.407 236.094 101.719 235.469 102.032 234.844C102.188 234.531 102.5 234.531 102.657 234.531C102.969 234.687 102.969 235 102.969 235.156C102.657 235.937 102.188 236.563 101.719 237.188C100.938 238.281 100.313 239.219 100.157 240.469C100.157 241.094 100 241.25 99.688 241.25Z" fill="black"/><path fill-rule="evenodd" clip-rule="evenodd" d="M96.7187 83.9063C93.9062 82.5 91.875 80.4688 93.5937 77.1875C95.1562 74.2188 98.125 74.5313 100.937 75.9375L96.7187 83.9063ZM198.125 81.0938C200.937 79.6875 202.969 77.6563 201.25 74.375C199.687 71.4063 196.719 71.7188 193.906 73.125L198.125 81.0938Z" fill="black"/><path fill-rule="evenodd" clip-rule="evenodd" d="M217.344 156.563C217.032 162.031 211.563 159.531 209.063 157.813C206.719 156.094 205.938 157.5 205.782 154.219C205.625 152.031 205.469 150 205.469 147.813C209.063 147.5 212.969 148.281 215.938 150.469C217.5 151.719 220.313 155.156 217.344 156.563Z" fill="#F6D2A2"/><path d="M214.532 160.469C212.188 160.469 209.532 158.75 208.75 158.281C207.969 157.813 207.5 157.5 207.032 157.344C205.782 156.875 205.469 156.562 205.313 154.219C205.313 153.75 205.313 153.281 205.157 152.813C205 151.25 204.844 149.531 205 147.812L205 147.344H207.032C210.469 147.344 213.75 148.281 216.25 150.156C217.344 150.937 219.375 153.125 219.219 155C219.219 155.625 218.907 156.406 217.969 156.875C217.657 160 215.625 160.469 214.532 160.469ZM205.938 148.438C205.938 149.844 205.938 151.406 206.094 152.813C206.094 153.281 206.094 153.75 206.25 154.219C206.407 156.094 206.563 156.094 207.344 156.406C207.813 156.562 208.438 156.875 209.375 157.344C210.782 158.281 212.969 159.375 214.532 159.375C215.469 159.375 216.719 159.062 216.875 156.562L216.875 156.25L217.188 156.094C217.813 155.781 218.125 155.469 218.125 154.844C218.282 153.594 216.719 151.719 215.625 150.937C213.282 149.219 210.157 148.281 207.032 148.281C206.719 148.438 206.407 148.438 205.938 148.438Z" fill="black"/><path fill-rule="evenodd" clip-rule="evenodd" d="M217.344 156.562C216.563 156.25 215.625 156.094 215.156 155.312L217.344 156.562Z" fill="#C6B198"/><path d="M217.344 157.188H217.188L216.875 157.031C216.094 156.719 215.313 156.562 214.844 155.781C214.688 155.625 214.688 155.156 215 155C215.156 154.844 215.625 154.844 215.781 155.156C216.094 155.625 216.719 155.781 217.344 156.094C217.5 156.094 217.656 156.25 217.656 156.25C217.969 156.406 218.125 156.719 217.969 156.875C217.813 157.031 217.5 157.188 217.344 157.188Z" fill="black"/><path fill-rule="evenodd" clip-rule="evenodd" d="M148.125 56.25C169.375 56.25 189.219 59.2187 199.688 79.6875C209.063 102.5 205.625 127.188 207.188 151.406C208.438 172.188 211.094 196.094 201.563 215.312C191.407 235.469 166.094 240.625 145.313 239.844C128.907 239.219 109.219 233.906 99.8442 218.906C89.0629 201.406 94.0629 175.312 94.8441 155.781C95.7815 132.656 88.594 109.375 96.2502 86.875C103.906 63.2812 125.156 57.9688 148.125 56.25Z" fill="#6AD7E5"/><path d="M148.907 240.469H145C138.594 240.312 128.907 239.219 119.375 235.312C110.157 231.562 103.438 226.25 99.0628 219.219C90.3128 205 91.8752 185.469 93.2814 168.125C93.5939 163.75 93.9064 159.687 94.0627 155.781C94.3752 147.656 93.7501 139.219 92.9689 131.25C91.7188 116.563 90.4688 101.406 95.3125 86.7188C99.0625 75.7813 105.781 67.9688 115.937 62.9688C123.906 59.0625 133.75 56.875 147.812 55.7813C168.75 55.625 189.531 58.5938 200 79.375C206.875 96.0938 206.875 114.062 207.031 131.406C207.031 137.969 207.031 144.688 207.5 151.25C207.656 153.281 207.813 155.312 207.813 157.344C209.063 176.406 210.469 197.969 201.719 215.469C197.344 224.375 189.688 230.938 179.219 235.156C170.782 238.594 160.157 240.469 148.907 240.469ZM148.125 56.7188C126.094 58.4375 104.531 63.2813 96.5625 87.0313C91.7188 101.563 92.9688 116.563 94.2189 131.094C94.8439 139.219 95.6251 147.5 95.3127 155.781C95.1564 159.687 94.8439 163.75 94.5314 168.125C93.1252 185.312 91.5628 204.688 100.157 218.594C103.75 224.375 115.313 238.125 145.157 239.219H149.063C183.594 239.219 196.407 223.906 201.094 214.844C209.688 197.656 208.281 176.094 207.188 157.187C207.031 155.156 206.875 153.125 206.875 151.094C206.563 144.531 206.406 137.812 206.406 131.25C206.25 114.063 206.25 96.0938 199.531 79.5313C194.844 70.3125 187.812 64.0625 178.125 60.4688C168.125 57.1875 156.875 56.7188 148.125 56.7188Z" fill="black"/><path fill-rule="evenodd" clip-rule="evenodd" d="M151.875 84.6875C155.625 106.875 191.875 100.937 186.719 78.5937C182.031 58.5937 150.625 64.2187 151.875 84.6875Z" fill="white"/><path d="M169.063 99.2188C162.031 99.2188 153.125 95.4687 151.25 84.8437C150.938 79.8437 152.5 75.3125 155.781 71.875C159.375 67.9687 164.844 65.7812 170.469 65.7812C177.031 65.7812 184.844 69.2187 187.031 78.75C188.281 84.0625 187.344 88.75 184.375 92.5C181.094 96.5625 175.313 99.2188 169.063 99.2188ZM152.344 84.6875C153.125 89.0625 155.156 92.5 158.438 95C161.25 97.1875 165.156 98.2812 169.063 98.2812C174.844 98.2812 180.469 95.7812 183.594 91.875C186.406 88.4375 187.188 83.9062 186.094 78.9062C184.063 70 176.719 66.875 170.469 66.875C165.156 66.875 160 69.0625 156.563 72.6562C153.594 75.7812 152.031 80 152.344 84.6875Z" fill="black"/><path fill-rule="evenodd" clip-rule="evenodd" d="M108.594 88.2813C113.594 107.5 144.375 102.656 143.281 83.2813C141.875 60.1563 103.75 64.5313 108.594 88.2813Z" fill="white"/><path d="M125 101.094C118.281 101.094 110.469 97.8125 107.969 88.4375C106.875 82.9688 107.969 77.9688 111.094 74.2188C114.531 70 120.156 67.5 126.25 67.5C134.375 67.5 142.969 72.3437 143.594 83.2812C143.906 87.8125 142.5 91.875 139.375 95.1563C136.094 98.75 130.625 101.094 125 101.094ZM126.25 68.5937C120.469 68.5937 115.156 70.9375 111.875 74.8437C108.906 78.4375 107.969 82.9688 109.063 88.125C111.25 96.875 118.75 100 125 100C130.313 100 135.469 97.9688 138.75 94.375C141.563 91.4063 142.969 87.5 142.656 83.2812C142.344 76.5625 137.813 68.5937 126.25 68.5937Z" fill="black"/><path fill-rule="evenodd" clip-rule="evenodd" d="M156.25 111.25C156.25 114.062 156.875 117.344 156.406 120.469C155.625 121.875 154.219 122.031 152.969 122.5C151.25 122.187 149.844 121.094 149.063 119.531C148.594 116.094 149.219 112.656 149.375 109.219L156.25 111.25Z" fill="white"/><path d="M152.969 123.125C150.938 122.813 149.375 121.563 148.594 119.844C148.281 117.344 148.438 115 148.594 112.656C148.75 111.563 148.75 110.469 148.75 109.375L148.75 108.75L156.719 111.25L156.719 111.563C156.719 112.5 156.875 113.438 156.875 114.531C157.031 116.563 157.188 118.75 156.875 120.781L156.875 120.938C156.25 122.188 155.156 122.5 154.063 122.969C153.75 122.813 153.438 122.969 152.969 123.125ZM149.531 119.375C150.156 120.781 151.406 121.719 152.813 122.031C153.125 121.875 153.438 121.875 153.594 121.719C154.531 121.406 155.313 121.094 155.781 120.313C156.094 118.438 155.938 116.406 155.781 114.375C155.781 113.438 155.625 112.5 155.625 111.719L149.688 109.844C149.688 110.781 149.531 111.719 149.531 112.5C149.375 115 149.219 117.188 149.531 119.375Z" fill="black"/><path fill-rule="evenodd" clip-rule="evenodd" d="M122.344 85.1562C122.344 88.2812 120 90.7812 117.188 90.7812C114.375 90.7812 112.031 88.2812 112.031 85.1562C112.031 82.0313 114.375 79.5312 117.188 79.5312C120 79.5312 122.344 82.0313 122.344 85.1562Z" fill="black"/><path fill-rule="evenodd" clip-rule="evenodd" d="M120.625 86.4062C120.625 87.1875 120 87.8125 119.375 87.8125C118.75 87.8125 118.125 87.1875 118.125 86.4062C118.125 85.625 118.75 85 119.375 85C120.156 85 120.625 85.625 120.625 86.4062Z" fill="white"/><path fill-rule="evenodd" clip-rule="evenodd" d="M165.938 83.75C165.938 86.875 163.594 89.375 160.781 89.375C157.969 89.375 155.625 86.875 155.625 83.75C155.625 80.625 157.969 78.125 160.781 78.125C163.594 78.125 165.937 80.625 165.938 83.75Z" fill="black"/><path fill-rule="evenodd" clip-rule="evenodd" d="M164.375 85C164.375 85.7812 163.906 86.4062 163.125 86.4062C162.5 86.4062 161.875 85.7812 161.875 85C161.875 84.2187 162.344 83.5938 163.125 83.5938C163.75 83.5938 164.375 84.2187 164.375 85ZM141.25 110.938C138.906 116.406 142.5 127.5 148.75 119.375C148.281 115.938 148.906 112.5 149.063 109.062L141.25 110.938Z" fill="white"/><path d="M144.531 122.812C143.438 122.812 142.344 122.188 141.563 120.938C139.844 118.438 139.531 113.75 140.781 110.781L140.938 110.469L149.531 108.281L149.531 108.906L149.375 112.344C149.219 114.688 149.063 116.875 149.375 119.219L149.375 119.375L149.219 119.531C147.656 121.719 146.094 122.812 144.531 122.812ZM141.719 111.406C140.781 114.063 141.094 118.281 142.5 120.313C143.125 121.25 143.75 121.719 144.531 121.719C145.625 121.719 146.875 120.781 148.125 119.219C147.813 116.875 147.969 114.531 148.281 112.344L148.438 109.688L141.719 111.406Z" fill="black"/><path fill-rule="evenodd" clip-rule="evenodd" d="M142.031 100.313C137.813 100.625 134.375 105.781 136.563 109.688C139.531 115 145.938 109.219 150 109.688C154.688 109.844 158.438 114.687 162.188 110.625C166.406 106.094 160.313 101.719 155.781 99.6875L142.031 100.313Z" fill="#F6D2A2"/><path d="M158.906 112.812C157.5 112.812 156.094 112.188 154.688 111.563C153.281 110.938 151.719 110.312 150 110.312H149.531C148.281 110.312 146.875 110.781 145.313 111.406C143.594 112.031 141.875 112.5 140.313 112.5C138.438 112.5 137.031 111.719 136.094 110C135 108.125 135.156 105.937 136.25 103.906C137.5 101.562 139.688 100.156 142.031 99.8437L155.938 99.2188H156.094C159.531 100.625 163.438 103.281 164.219 106.406C164.531 107.969 164.063 109.531 162.813 110.937C161.563 112.344 160.313 112.812 158.906 112.812ZM150.156 109.375C151.875 109.375 153.594 110.156 155.156 110.781C156.563 111.406 157.813 111.875 159.063 111.875C160.156 111.875 161.094 111.406 162.031 110.469C163.125 109.375 163.438 108.125 163.281 106.875C162.656 104.219 158.906 101.719 155.938 100.469L142.344 101.094C140.313 101.25 138.438 102.656 137.344 104.531C136.406 106.25 136.406 108.125 137.188 109.688C137.969 111.094 138.906 111.719 140.469 111.719C141.875 111.719 143.438 111.094 145 110.625C146.719 110 148.125 109.531 149.688 109.531C149.688 109.219 149.844 109.219 150.156 109.375Z" fill="#231F20"/><path fill-rule="evenodd" clip-rule="evenodd" d="M141.563 100.156C141.25 92.8125 155.313 91.875 156.875 97.9688C158.594 104.219 142.188 105.625 141.563 100.156Z" fill="black"/></svg>