<svg viewBox="0 0 300 300" fill="none" xmlns="http://www.w3.org/2000/svg"><path d="M298 150C298 231.738 231.738 298 150 298C68.2619 298 2 231.738 2 150C2 68.2619 68.2619 2 150 2C231.738 2 298 68.2619 298 150Z" fill="#C94E19"/><path fill-rule="evenodd" clip-rule="evenodd" d="M150 300C232.843 300 300 232.843 300 150C300 67.1573 232.843 0 150 0C67.1573 0 0 67.1573 0 150C0 232.843 67.1573 300 150 300ZM150 290C227.32 290 290 227.32 290 150C290 72.6801 227.32 10 150 10C72.6801 10 10 72.6801 10 150C10 227.32 72.6801 290 150 290Z" fill="#919191"/><path fill-rule="evenodd" clip-rule="evenodd" d="M150 300C232.843 300 300 232.843 300 150C300 67.1573 232.843 0 150 0C67.1573 0 0 67.1573 0 150C0 232.843 67.1573 300 150 300ZM150 290C227.32 290 290 227.32 290 150C290 72.6801 227.32 10 150 10C72.6801 10 10 72.6801 10 150C10 227.32 72.6801 290 150 290Z" fill="#F16529" style="mix-blend-mode:color"/><path d="M226.105 64L212.285 218.814L150.497 235.943L88.8822 218.839L75.0772 64L226.105 64Z" fill="#E44D26" stroke="white" stroke-width="3"/><path d="M150.591 224.11L201.652 209.953L213.665 75.3776H150.591L150.591 224.11Z" fill="#F16529"/><path d="M150.591 133.795H125.028L123.263 114.013H150.591L150.591 94.6962H102.151L102.614 99.8784L107.361 153.113H150.591L150.591 133.795ZM150.591 183.965L150.506 183.989L128.992 178.178L127.618 162.773H108.224L110.931 193.104L150.503 204.088L150.591 204.065L150.591 183.965Z" fill="#EBEBEB"/><path d="M150.524 133.795L150.524 153.113H174.311L172.07 178.166L150.524 183.982L150.524 204.08L190.127 193.104L190.418 189.84L194.957 138.983L195.427 133.795H190.223H150.524ZM150.524 94.6962L150.524 114.013H197.186L197.573 109.673L198.455 99.8784L198.917 94.6962H150.524Z" fill="white"/></svg>