<svg viewBox="0 0 300 300" fill="none" xmlns="http://www.w3.org/2000/svg"><path d="M298 150C298 231.738 231.738 298 150 298C68.2619 298 2 231.738 2 150C2 68.2619 68.2619 2 150 2C231.738 2 298 68.2619 298 150Z" fill="#0074BD"/><path fill-rule="evenodd" clip-rule="evenodd" d="M150 300C232.843 300 300 232.843 300 150C300 67.1573 232.843 0 150 0C67.1573 0 0 67.1573 0 150C0 232.843 67.1573 300 150 300ZM150 290C227.32 290 290 227.32 290 150C290 72.6801 227.32 10 150 10C72.6801 10 10 72.6801 10 150C10 227.32 72.6801 290 150 290Z" fill="#919191"/><path fill-rule="evenodd" clip-rule="evenodd" d="M150 300C232.843 300 300 232.843 300 150C300 67.1573 232.843 0 150 0C67.1573 0 0 67.1573 0 150C0 232.843 67.1573 300 150 300ZM150 290C227.32 290 290 227.32 290 150C290 72.6801 227.32 10 150 10C72.6801 10 10 72.6801 10 150C10 227.32 72.6801 290 150 290Z" fill="#0074BD" style="mix-blend-mode:color"/><path d="M124.402 203.312C124.402 203.312 116.953 207.647 129.71 209.109C145.166 210.875 153.064 210.622 170.092 207.403C170.092 207.403 174.578 210.208 180.832 212.639C142.646 228.998 94.4128 211.691 124.402 203.312ZM119.733 181.961C119.733 181.961 111.377 188.147 124.144 189.469C140.655 191.173 153.691 191.313 176.26 186.969C176.26 186.969 179.374 190.133 184.278 191.861C138.119 205.361 86.7065 192.923 119.733 181.961Z" fill="white"/><path d="M159.066 145.736C168.48 156.572 156.597 166.314 156.597 166.314C156.597 166.314 180.486 153.984 169.517 138.537C159.269 124.139 151.413 116.987 193.947 92.3187C193.947 92.3203 127.18 108.991 159.066 145.736Z" fill="#EA2D2E"/><path d="M209.568 219.108C209.568 219.108 215.082 223.655 203.493 227.169C181.458 233.844 111.765 235.856 92.4083 227.436C85.4536 224.408 98.5005 220.209 102.605 219.323C106.885 218.397 109.329 218.566 109.329 218.566C101.59 213.117 59.3083 229.269 87.8552 233.902C165.701 246.52 229.757 228.219 209.568 219.108ZM127.988 159.834C127.988 159.834 92.541 168.255 115.436 171.316C125.105 172.609 144.371 172.312 162.328 170.806C177 169.573 191.724 166.941 191.724 166.941C191.724 166.941 186.555 169.158 182.811 171.711C146.808 181.181 77.2738 176.77 97.2941 167.089C114.219 158.903 127.988 159.834 127.988 159.834ZM191.577 195.377C228.172 176.366 211.25 158.095 199.439 160.556C196.552 161.158 195.257 161.681 195.257 161.681C195.257 161.681 196.332 159.995 198.382 159.27C221.746 151.059 239.711 183.494 190.846 196.341C190.846 196.337 191.407 195.83 191.577 195.377Z" fill="white"/><path d="M169.517 52.4797C169.517 52.4797 189.78 72.7547 150.294 103.922C118.628 128.931 143.074 143.187 150.283 159.483C131.797 142.806 118.238 128.123 127.333 114.459C140.689 94.4062 177.691 84.6797 169.517 52.4797Z" fill="#EA2D2E"/><path d="M131.585 246.908C166.703 249.153 220.647 245.658 221.924 229.039C221.924 229.039 219.469 235.339 192.897 240.337C162.919 245.981 125.938 245.323 104.011 241.703C104.011 241.705 108.503 245.423 131.585 246.908Z" fill="#0074BD"/></svg>