<svg viewBox="0 0 300 300" fill="none" xmlns="http://www.w3.org/2000/svg"><path d="M298 150C298 231.738 231.738 298 150 298C68.2619 298 2 231.738 2 150C2 68.2619 68.2619 2 150 2C231.738 2 298 68.2619 298 150Z" fill="#F0DB4F"/><path fill-rule="evenodd" clip-rule="evenodd" d="M150 300C232.843 300 300 232.843 300 150C300 67.1573 232.843 0 150 0C67.1573 0 0 67.1573 0 150C0 232.843 67.1573 300 150 300ZM150 290C227.32 290 290 227.32 290 150C290 72.6801 227.32 10 150 10C72.6801 10 10 72.6801 10 150C10 227.32 72.6801 290 150 290Z" fill="#919191"/><path fill-rule="evenodd" clip-rule="evenodd" d="M150 300C232.843 300 300 232.843 300 150C300 67.1573 232.843 0 150 0C67.1573 0 0 67.1573 0 150C0 232.843 67.1573 300 150 300ZM150 290C227.32 290 290 227.32 290 150C290 72.6801 227.32 10 150 10C72.6801 10 10 72.6801 10 150C10 227.32 72.6801 290 150 290Z" fill="#F0DB4F" style="mix-blend-mode:color"/><path d="M52.2 52.2L247.8 52.2L247.8 247.802H52.2004L52.2 52.2Z" fill="#F0DB4F"/><path d="M231.793 201.15C230.36 192.227 224.541 184.731 207.305 177.742C201.318 174.991 194.643 173.02 192.653 168.483C191.947 165.842 191.853 164.355 192.3 162.756C193.583 157.569 199.775 155.952 204.683 157.439C207.844 158.498 210.836 160.934 212.641 164.82C221.082 159.355 221.064 159.391 226.958 155.634C224.8 152.289 223.649 150.745 222.236 149.314C217.16 143.644 210.242 140.723 199.18 140.947L193.417 141.692C187.896 143.087 182.633 145.986 179.547 149.872C170.288 160.378 172.928 178.766 184.196 186.333C195.296 194.664 211.602 196.559 213.685 204.35C215.711 213.887 206.675 216.975 197.694 215.878C191.075 214.502 187.394 211.137 183.414 205.02C176.089 209.259 176.089 209.259 168.558 213.591C170.344 217.495 172.221 219.262 175.214 222.645C189.383 237.017 224.84 236.311 231.199 214.558C231.457 213.811 233.169 208.83 231.793 201.15ZM158.535 142.098H140.239L140.164 189.398C140.164 199.458 140.685 208.68 139.049 211.506C136.372 217.066 129.436 216.377 126.275 215.298C123.058 213.717 121.422 211.469 119.527 208.291C119.007 207.378 118.616 206.672 118.485 206.617L103.61 215.727C106.083 220.803 109.727 225.209 114.394 228.072C121.366 232.256 130.736 233.539 140.536 231.289C146.915 229.431 152.418 225.583 155.299 219.725C159.464 212.045 158.571 202.75 158.533 192.469C158.627 175.695 158.535 158.925 158.535 142.098Z" fill="#323330"/></svg>