<svg viewBox="0 0 300 300" fill="none" xmlns="http://www.w3.org/2000/svg"><path d="M298 150C298 231.738 231.738 298 150 298C68.2619 298 2 231.738 2 150C2 68.2619 68.2619 2 150 2C231.738 2 298 68.2619 298 150Z" fill="#D33833"/><path fill-rule="evenodd" clip-rule="evenodd" d="M150 300C232.843 300 300 232.843 300 150C300 67.1573 232.843 0 150 0C67.1573 0 0 67.1573 0 150C0 232.843 67.1573 300 150 300ZM150 290C227.32 290 290 227.32 290 150C290 72.6801 227.32 10 150 10C72.6801 10 10 72.6801 10 150C10 227.32 72.6801 290 150 290Z" fill="#919191"/><path fill-rule="evenodd" clip-rule="evenodd" d="M150 300C232.843 300 300 232.843 300 150C300 67.1573 232.843 0 150 0C67.1573 0 0 67.1573 0 150C0 232.843 67.1573 300 150 300ZM150 290C227.32 290 290 227.32 290 150C290 72.6801 227.32 10 150 10C72.6801 10 10 72.6801 10 150C10 227.32 72.6801 290 150 290Z" fill="#D33833" style="mix-blend-mode:color"/><path d="M149.414 249.727C147.11 249.453 143.516 248.789 141.563 248.242L139.532 247.656L138.438 244.648C137.813 242.969 136.329 238.359 135.157 234.375L132.969 227.148L129.883 226.914C125.157 226.563 122.461 225.703 114.688 222.109C110.821 220.313 107.071 218.633 106.368 218.398C105.703 218.125 104.766 217.461 104.258 216.953C103.438 216.055 103.321 215.508 103.008 209.57L102.696 203.125L100.508 201.094C88.4769 189.766 80.3909 174.102 77.9299 157.383C77.1487 151.953 77.1486 141.406 77.9299 135.977C80.3517 119.414 88.4376 103.672 100.156 92.6953L103.438 89.6094L103.906 86.3672C104.649 80.8203 106.641 76.7969 109.57 74.9219C110.43 74.336 111.133 73.3985 111.563 72.2656C113.633 66.875 116.992 63.9453 128.125 57.8125C135.391 53.7891 142.305 51.3672 149.023 50.3906C152.656 49.8828 160.312 49.8828 163.789 50.4297C173.75 51.9141 179.336 54.7266 186.484 61.836C191.328 66.6797 194.102 70.5078 195.742 74.7656C197.109 78.2813 198.594 85 199.024 89.4141L199.297 92.3047L203.008 96.4453C215.547 110.43 222.266 128.008 222.266 146.68C222.266 158.555 219.61 169.922 214.414 180.156L212.422 184.102L213.633 185.039C215.43 186.445 216.602 188.75 218.555 194.688C220 199.023 220.313 200.547 220.313 202.852C220.313 207.617 218.594 212.617 216.094 214.961C214.024 216.914 208.555 217.695 202.032 216.953C199.883 216.719 199.453 216.523 198.711 215.508L197.852 214.375L194.532 214.57C190.469 214.844 188.282 215.508 188.282 216.445C188.282 217.734 187.774 218.398 186.289 219.18C184.844 219.883 184.766 220.039 184.766 221.68C184.766 222.656 185.196 225.469 185.743 227.969C187.657 236.836 186.875 238.477 179.922 240.039C178.829 240.273 178.829 240.273 179.063 242.578C179.571 247.031 177.227 248.828 169.961 249.57C166.289 249.961 152.188 250.078 149.414 249.727Z" fill="#231F20"/><path d="M130.274 222.227C126.25 221.68 120.743 219.609 113.907 216.094C108.946 213.555 107.266 212.5 107.188 211.914C107.149 211.484 106.993 208.867 106.875 206.055C106.211 192.07 103.125 176.836 98.5941 165.43C97.6175 162.93 96.8753 160.82 96.9534 160.742C96.9925 160.703 99.2581 159.023 101.953 157.031C107.461 152.969 114.571 148.633 118.789 146.797L121.602 145.547L124.961 149.102C128.555 152.969 130.469 154.258 137.11 157.461L141.289 159.453L141.993 162.461C142.383 164.102 143.282 167.305 143.985 169.609C145.039 172.891 145.586 173.984 146.524 174.766C147.813 175.859 148.594 176.016 150.157 175.391C151.485 174.883 151.446 175.234 149.805 177.5C148.203 179.727 148.086 181.172 149.336 182.305C150.196 183.125 160.43 188.32 163.477 189.492L165.039 190.117L161.328 190.352C159.297 190.508 154.844 190.781 151.407 191.016C145.899 191.406 139.102 192.07 133.907 192.812C132.149 193.047 132.071 193.047 131.758 191.953C131.407 190.664 131.368 184.336 131.641 178.047C131.836 173.828 131.563 172.734 130.508 173.398C129.61 173.945 129.375 176.758 129.805 181.953C130.235 187.344 129.922 191.328 129.102 191.641C128.829 191.758 127.657 191.211 126.485 190.469C125.352 189.688 124.297 189.062 124.141 189.062C123.555 189.062 123.829 190.547 124.61 191.523C125.039 192.07 125.391 192.773 125.391 193.125C125.391 193.789 124.219 194.531 123.125 194.531C122.305 194.531 120.821 195.938 121.25 196.367C121.368 196.523 123.282 196.602 125.508 196.562C127.696 196.523 129.688 196.602 129.961 196.797C130.235 196.953 130.625 198.945 130.86 201.406C131.094 203.789 131.797 209.414 132.422 213.906C133.477 221.641 133.516 222.734 132.891 222.617C132.735 222.578 131.563 222.422 130.274 222.227ZM175.625 215.508C175.118 211.68 174.532 195.625 174.922 195.234C175.118 195.039 176.485 194.844 177.969 194.805L180.625 194.727L181.094 196.836C181.368 198.008 181.875 202.383 182.227 206.602C182.579 210.82 182.891 214.609 182.93 215.039C183.008 215.82 182.188 216.094 177.305 216.914C175.86 217.109 175.86 217.109 175.625 215.508ZM178.399 188.789C178.985 187.734 180.586 185.078 181.993 182.812C183.399 180.547 185.821 176.523 187.383 173.867L190.274 169.023L189.141 167.617C187.461 165.508 187.461 165.43 188.164 163.828C188.633 162.695 188.828 161.133 188.828 157.812C188.828 152.5 188.125 149.531 186.25 147.422C185.157 146.211 184.844 146.055 183.516 146.172C182.696 146.25 182.071 146.211 182.11 146.055C182.188 145.898 183.321 144.883 184.61 143.789L187.032 141.797L191.524 145.977C193.985 148.32 196.914 151.016 198.008 152.031C200.469 154.297 200.508 154.648 198.672 162.227C196.719 170.352 191.914 184.062 189.844 187.422C188.828 189.062 188.125 189.297 183.282 189.609C181.055 189.727 178.907 190 178.516 190.234C177.305 190.898 177.266 190.703 178.399 188.789Z" fill="#335061"/><path d="M176.368 187.148C177.11 184.805 177.813 180.234 178.36 174.219C179.102 166.641 179.18 166.406 181.758 166.406C183.633 166.406 185.469 167.227 186.915 168.75L188.008 169.883L185.547 174.102C182.227 179.805 176.876 187.891 176.446 187.891C176.29 187.891 176.211 187.578 176.368 187.148Z" fill="#335061"/><path d="M99.8441 194.102C77.305 169.258 75.469 131.133 95.5471 104.453C97.9689 101.25 103.399 95.3125 103.945 95.3125C104.102 95.3125 104.375 95.8984 104.492 96.6016C104.688 97.6172 104.453 98.4375 103.438 100.391C102.188 102.852 102.149 102.969 102.188 107.773C102.188 112.187 102.305 113.008 103.281 115.625C105.391 121.25 108.633 124.727 113.047 126.211L115 126.875L115.703 129.727C116.094 131.25 117.188 133.984 118.164 135.742C120.078 139.258 120.313 140.547 119.258 141.523C118.867 141.836 115.469 143.906 111.719 146.094C107.969 148.32 103.438 151.055 101.641 152.188C99.9756 153.282 98.2686 154.311 96.5237 155.273C93.9847 156.563 92.5784 158.242 92.5784 160.117C92.5784 161.484 95.8988 171.602 98.3207 177.734C98.9847 179.336 99.8832 182.148 100.313 183.984C101.25 187.891 102.461 195.508 102.266 196.133C102.188 196.406 101.094 195.469 99.8441 194.102ZM193.36 188.008C193.36 187.852 194.414 184.688 195.743 180.898C199.649 169.57 203.555 156.602 203.789 154.297C204.024 151.563 203.438 150.625 198.438 146.172C191.25 139.766 189.844 138.281 189.844 137.227C189.844 136.68 190.664 134.727 191.641 132.93C193.594 129.336 194.844 125.977 196.328 120.273C197.461 115.859 198.828 106.953 198.828 103.867C198.828 102.656 198.946 101.094 199.063 100.43L199.336 99.1797L200.313 100.078C204.453 103.945 210.938 114.805 213.633 122.422C216.641 130.898 217.696 137.344 217.696 146.68C217.696 153.906 217.266 157.891 215.782 163.711C214.375 169.336 212.696 173.867 210.118 178.984L207.774 183.516L205.274 183.945C202.774 184.375 199.688 185.43 195.625 187.227C194.375 187.773 193.36 188.125 193.36 188.008ZM147.11 171.797C146.836 171.289 145.977 169.219 145.274 167.188C144.063 163.75 143.946 163.125 143.946 158.594C143.946 153.203 144.492 151.406 146.25 150.938C147.813 150.547 153.321 152.305 158.125 154.727C160.625 156.016 162.93 157.031 163.203 157.031C163.789 157.031 163.828 158.047 163.242 158.438C163.008 158.594 161.992 158.906 160.977 159.18C159.102 159.688 159.141 159.766 162.227 160.547C163.985 161.016 164.063 161.094 164.063 162.5C164.063 163.828 163.828 164.102 160.86 166.484C156.524 169.922 155.391 170.547 151.836 171.68C148.086 172.891 147.813 172.891 147.11 171.797ZM177.149 163.828C172.891 163.086 173.047 163.203 173.047 160.977C173.047 158.828 173.633 158.203 175.586 158.203C176.172 158.203 176.524 158.047 176.367 157.813C176.25 157.617 175.391 157.422 174.492 157.422C173.008 157.422 172.774 157.305 172.383 156.25C171.953 155.117 171.953 155.078 175.078 153.125C183.516 147.695 185.196 148.281 186.328 157.148C186.68 160.078 186.524 162.5 185.86 163.789C185.43 164.609 181.797 164.648 177.149 163.828ZM166.602 161.953C166.016 161.523 165.86 160.898 165.821 159.141C165.821 156.914 165.86 156.875 167.071 156.523C170.391 155.547 172.071 160.625 168.907 162.07C167.657 162.617 167.5 162.617 166.602 161.953Z" fill="#D33833"/><path d="M150.977 245.273C149.688 245.078 147.071 244.531 145.118 244.063L141.602 243.164L140 237.695C136.875 227.227 134.493 215.43 132.852 202.734C132.461 199.609 132.266 196.914 132.422 196.758C132.891 196.211 145.235 194.609 152.422 194.141C157.461 193.828 160.743 193.828 164.532 194.102C171.211 194.648 171.953 194.883 172.305 196.289C172.5 196.875 172.813 201.367 173.047 206.211C173.321 211.055 173.555 215.156 173.672 215.273C173.75 215.391 173.985 219.961 174.219 225.43C174.61 234.609 175.118 241.445 175.625 243.047C175.86 243.828 174.571 244.297 169.883 245.117C166.25 245.742 155 245.859 150.977 245.273ZM176.407 233.32C176.29 231.641 176.094 228.164 175.938 225.547C175.664 220.234 175.508 220.547 178.829 220.078L180.704 219.844L181.758 225.234C182.344 228.242 182.813 231.641 182.813 232.852L182.813 235.039L180.547 235.703C176.68 236.797 176.68 236.797 176.407 233.32ZM201.563 214.102C200.664 213.438 201.524 213.086 205.586 212.266C210.899 211.25 209.141 210.742 201.329 211.094L194.961 211.328L194.766 209.688C194.649 208.75 194.336 206.172 194.102 203.906C193.88 201.562 193.554 199.229 193.125 196.914C192.578 194.297 192.578 193.984 193.164 193.359C194.024 192.422 196.641 191.211 200.586 189.844C202.305 189.258 204.453 188.398 205.352 187.93C209.336 185.938 212.383 187.93 214.219 193.672C217.266 203.32 217.305 207.813 214.454 211.445C212.891 213.398 210.821 214.141 206.25 214.336C203.711 214.453 201.914 214.336 201.563 214.102ZM208.594 204.258C207.188 203.672 202.305 203.359 200.547 203.711L199.024 204.063L200.391 204.297C201.133 204.453 203.516 204.609 205.664 204.609C208.672 204.648 209.336 204.531 208.594 204.258ZM206.485 199.336C208.282 199.063 208.321 199.023 207.227 198.789C205.196 198.32 201.407 198.438 200.196 199.023C199.063 199.531 199.141 199.531 201.797 199.57C203.321 199.609 205.43 199.492 206.485 199.336ZM202.735 194.844C205.43 193.281 205.782 192.969 204.688 193.164C201.797 193.711 199.649 194.609 198.203 195.938L196.68 197.305L198.047 197.031C198.789 196.914 200.899 195.938 202.735 194.844ZM187.344 212.461C187.266 212.148 186.914 209.727 186.563 207.031C186.211 204.336 185.664 200.391 185.313 198.281C184.961 195.977 184.883 194.258 185.078 194.063C185.274 193.867 186.289 193.75 187.344 193.828L189.258 193.945L190.196 196.289C191.446 199.453 192.149 203.75 192.188 208.125C192.188 211.719 192.188 211.758 191.133 212.148C189.18 212.891 187.539 213.047 187.344 212.461ZM165.43 186.172C162.657 185.039 158.36 183.125 155.938 181.875C151.993 179.844 151.563 179.531 151.797 178.789C152.657 176.016 155.196 173.164 159.258 170.391C160.625 169.492 161.797 168.75 161.875 168.75C162.617 168.75 167.735 178.555 170.664 185.469C171.68 187.891 171.758 188.281 171.172 188.281C170.821 188.281 168.243 187.344 165.43 186.172ZM176.368 187.148C177.11 184.805 177.813 180.234 178.36 174.219C178.867 169.102 179.18 167.266 179.61 166.914C181.094 165.703 185.039 166.758 187.032 168.867L187.93 169.805L186.953 171.523C184.805 175.391 183.086 178.203 180 182.93C176.993 187.539 175.782 188.945 176.368 187.148ZM173.946 186.133C173.015 184.2 172.13 182.247 171.289 180.273C168.75 174.375 167.383 171.68 165.547 169.023C164.063 166.836 164.024 166.68 164.688 165.977C165.078 165.547 165.899 165.234 166.563 165.234C167.227 165.195 168.203 164.961 168.75 164.648C170.196 163.828 171.133 163.945 173.164 165.234C174.18 165.859 175.469 166.523 176.016 166.641L177.071 166.914L176.797 173.125C176.524 179.219 175.821 184.766 175.078 186.719C174.727 187.695 174.727 187.695 173.946 186.133ZM174.414 176.758C174.414 175.781 174.258 175.586 173.438 175.586C172.813 175.586 172.422 175.82 172.344 176.289C172.11 177.461 172.578 178.203 173.516 178.047C174.219 177.969 174.414 177.695 174.414 176.758ZM173.203 170.508C173.555 169.531 173.008 168.75 172.032 168.75C171.485 168.75 170.977 169.023 170.86 169.336C170.469 170.313 171.016 171.094 172.032 171.094C172.539 171.094 173.047 170.82 173.203 170.508ZM137.696 155.117C134.922 154.141 132.735 152.969 131.875 151.992C131.016 151.016 131.289 149.766 132.344 150.195C133.555 150.703 135.703 151.094 138.789 151.367C142.11 151.641 142.149 151.68 141.367 154.414C140.938 156.055 140.586 156.133 137.696 155.117ZM164.61 153.945C163.282 153.594 160.157 151.953 160.157 151.563C160.157 151.406 161.446 151.367 163.008 151.484C165.117 151.602 166.914 151.406 169.649 150.781C171.758 150.313 173.633 150 173.828 150.078C174.063 150.156 173.047 151.133 171.602 152.266C168.867 154.414 167.735 154.688 164.61 153.945ZM138.867 149.609C135.157 149.219 130.977 147.93 128.828 146.484C126.797 145.117 124.805 142.383 123.008 138.398C121.25 134.531 119.531 129.414 119.297 127.07C119.063 125.156 119.102 124.961 120.469 123.281C121.446 122.148 121.875 121.211 121.797 120.625C121.641 119.453 120.742 119.609 118.633 121.133C115.86 123.125 112.305 122.5 109.649 119.57C106.875 116.484 104.805 111.055 105.195 107.773C105.899 101.797 111.953 97.6172 116.68 99.8438C118.125 100.547 120 103.398 120.703 105.977C121.094 107.344 121.211 107.422 122.695 107.422C123.555 107.422 124.844 107.149 125.586 106.875C127.266 106.172 127.344 105.273 126.094 100.664C125 96.4844 125.039 92.8516 126.328 86.7579C127.422 81.6016 127.617 77.5782 126.914 74.8047C126.484 73.1641 126.563 72.9297 127.695 71.1719C131.211 65.7032 141.68 58.0469 149.219 55.4297C152.461 54.336 159.531 54.2188 164.18 55.2344C170.82 56.6797 178.047 59.8047 181.484 62.7344C183.125 64.1407 189.453 71.8751 189.453 72.5001C189.453 72.5782 188.789 72.5782 187.969 72.4219C184.805 71.9141 181.641 73.7501 181.641 76.0547C181.641 76.9532 181.68 76.9532 182.5 76.4063C184.024 75.3126 187.227 75.586 189.922 77.0313C193.984 79.1797 195.43 82.0313 196.133 89.2969C196.797 95.9766 196.367 109.297 195.391 114.141C193.75 121.875 191.25 128.164 187.227 134.375C184.024 139.297 182.578 140.938 179.649 142.852C173.985 146.484 168.086 148.438 162.696 148.438C158.828 148.438 156.367 147.734 151.797 145.391C147.617 143.242 142.656 138.711 138.75 133.516C137.344 131.641 136.133 130.156 136.016 130.234C135.586 130.703 137.031 133.555 139.063 136.25C141.719 139.805 147.266 145.234 149.571 146.523C150.43 147.031 151.172 147.617 151.172 147.773C151.172 147.969 150.235 147.969 149.102 147.852C146.641 147.539 144.18 148.125 143.164 149.219C142.774 149.648 142.266 149.961 142.032 149.961C141.797 149.922 140.391 149.766 138.867 149.609ZM175.899 135.938C176.68 135.703 177.696 135.117 178.164 134.648L178.946 133.789L172.383 133.555C163.321 133.242 160.899 132.461 157.696 128.906C156.68 127.813 155.625 126.953 155.274 127.031C154.883 127.109 155.469 128.125 157.383 130.469C160.938 134.844 161.758 135.547 163.946 136.172C166.133 136.797 173.594 136.641 175.899 135.938ZM176.406 127.461C176.289 126.641 176.172 125.703 176.172 125.352C176.172 124.805 175.313 124.688 169.844 124.492C164.102 124.336 161.485 123.945 158.399 122.813C156.953 122.305 160.235 125.391 162.149 126.406C164.883 127.773 169.571 128.75 174.18 128.867L176.68 128.906L176.406 127.461ZM181.953 127.93C184.492 127.148 187.344 124.883 189.141 122.227C189.922 121.055 190.508 120.078 190.43 120C190.391 119.922 188.75 120.664 186.797 121.641C184.883 122.617 182.461 123.633 181.406 123.867C180.607 124.04 179.812 124.235 179.024 124.453C178.711 124.531 178.516 125.313 178.516 126.563C178.516 128.828 178.672 128.867 181.953 127.93ZM176.68 120.742C179.805 119.922 181.524 119.18 185.352 116.875C187.578 115.586 187.774 115.352 188.399 113.242C188.75 111.992 189.063 110.781 189.063 110.508C189.063 110.273 187.539 108.477 185.703 106.523C180.039 100.469 176.563 95.4688 174.375 90.0391C174.102 89.4532 174.024 89.6876 173.906 91.0547C173.672 94.5704 176.172 99.3751 181.758 106.094C185.703 110.781 186.25 111.953 185.508 113.75C185.117 114.766 184.336 115.274 181.094 116.836C176.406 119.023 174.688 119.531 172.031 119.531C169.688 119.531 168.477 118.516 168.086 116.211C167.891 115.039 167.774 114.883 167.461 115.43C166.914 116.445 167.071 118.906 167.774 120.273C168.36 121.445 168.477 121.484 171.055 121.484C172.5 121.484 175.039 121.133 176.68 120.742ZM112.774 111.445C112.891 108.086 113.555 106.641 115 106.641C116.055 106.641 116.758 107.383 118.008 109.766C118.906 111.523 118.945 111.524 119.063 110.391C119.258 108.672 118.086 106.055 116.367 104.531C115.117 103.359 114.531 103.125 113.125 103.125C111.68 103.125 111.25 103.32 110.391 104.336C109.141 105.82 109.102 106.445 110.313 105.664C111.406 104.922 112.695 105.273 112.227 106.211C111.602 107.422 111.914 114.453 112.578 114.453C112.656 114.453 112.735 113.125 112.774 111.445ZM162.383 100.547C163.555 99.6485 163.906 98.8282 163.672 97.2657C163.633 96.9532 162.93 95.9766 162.11 95.1172C161.25 94.2579 159.961 92.2266 159.18 90.6251L157.813 87.6954L157.93 89.4532C158.086 91.2501 159.063 93.5938 160.586 96.0157C161.367 97.2266 161.406 97.3829 160.781 97.9688C160.274 98.4766 159.57 98.5938 157.695 98.5157C151.836 98.2032 152.149 98.2032 152.031 99.0626C151.641 101.758 159.375 102.852 162.383 100.547ZM191.602 98.8672C192.461 98.4766 193.477 97.8126 193.828 97.3829C194.492 96.6797 194.414 96.4454 192.188 92.0704C190.117 88.0469 189.844 87.6563 189.844 88.8672C189.844 89.6094 190.313 91.3672 190.899 92.7735C191.68 94.6485 191.836 95.4297 191.524 95.7422C191.25 96.0157 189.688 96.3282 188.008 96.5235C186.328 96.6797 184.922 96.836 184.883 96.836C184.57 96.9141 184.844 98.0079 185.391 98.7501C185.86 99.4532 186.367 99.6094 188.008 99.6094C189.141 99.6094 190.742 99.2579 191.602 98.8672ZM142.969 81.8751C145.313 78.711 147.617 77.5391 151.289 77.5782C153.906 77.5782 153.945 77.5782 153.828 76.6016C153.633 75.0391 151.367 73.711 149.453 74.0235C146.055 74.5313 141.758 77.9688 140.391 81.211C139.453 83.3985 139.844 86.6407 140.82 84.9219C141.016 84.5704 141.992 83.2032 142.969 81.8751Z" fill="#6F6C6E"/><path d="M123.32 104.023C123.164 103.906 123.047 103.359 123.047 102.852C123.047 100.391 120.117 97.1094 116.914 96.0547C115.039 95.4297 110.352 95.7813 109.414 96.6407C109.063 96.9922 108.594 97.1485 108.477 96.9922C108.32 96.875 108.203 94.4141 108.203 91.6016C108.203 84.961 108.75 83.0469 111.445 80.1954C114.18 77.3047 118.945 74.9219 122.148 74.8438L124.414 74.8047L124.766 77.5C125.078 79.6094 124.961 81.4844 124.297 86.4844C123.242 94.336 123.242 95.0782 124.297 99.4922C125 102.461 125.039 103.164 124.649 103.672C124.063 104.336 123.711 104.453 123.32 104.023ZM115.117 72.1875C116.445 69.8829 120.039 66.3672 123.398 64.1407C129.336 60.1563 137.305 57.2266 137.305 58.9844C137.305 59.2969 136.953 59.7266 136.523 59.961C133.359 61.5625 130.039 64.7266 128.32 67.6563C127.734 68.6719 126.797 70.0391 126.172 70.7032C125.156 71.7969 124.883 71.875 122.578 71.836C120.955 71.8027 119.34 72.0675 117.813 72.6172C114.57 73.7891 114.258 73.711 115.117 72.1875Z" fill="#6F6C6E"/><path d="M108.204 213.164C107.657 212.852 107.266 212.461 107.305 212.266C107.422 211.602 106.68 200.703 106.25 197.07C105.352 189.492 103.516 180.078 101.914 174.805C100.703 170.703 99.5316 167.266 99.18 166.406C98.9065 165.859 98.594 165.078 98.3987 164.648C96.9925 161.211 96.8753 160.742 97.2659 160.625C97.5003 160.547 98.7503 159.648 100 158.633C105 154.688 112.735 149.687 117.188 147.617C118.594 146.953 120.157 146.211 120.664 145.977C121.524 145.547 121.758 145.703 124.063 148.242C125.43 149.727 126.563 151.055 126.563 151.172C126.563 151.445 126.797 151.328 113.477 157.227C108.321 159.531 104.024 161.445 103.985 161.523C103.907 161.602 104.297 163.75 104.883 166.289C107.11 176.172 108.828 186.289 109.766 194.844C110.469 201.289 110.235 213.672 109.414 213.672C109.297 213.672 108.75 213.438 108.204 213.164ZM174.922 200.937C174.532 200.586 174.532 198.203 174.844 196.563C175.118 195.195 175.625 194.922 178.477 194.766C180.352 194.609 180.43 194.648 180.821 195.82C181.055 196.445 181.25 197.578 181.25 198.32C181.25 199.492 181.055 199.727 179.805 200.273C178.086 200.977 175.313 201.367 174.922 200.937ZM126.563 199.609C123.828 199.141 122.422 198.672 121.172 197.852C120.039 197.109 119.649 196.641 120 196.445C120.235 196.289 120.664 196.25 120.899 196.406C121.094 196.562 123.164 196.68 125.469 196.68C128.008 196.68 129.805 196.836 130.078 197.109C130.313 197.344 130.469 198.164 130.391 198.906L130.274 200.234L126.563 199.609ZM131.875 192.344C131.563 191.523 131.563 181.914 131.875 177.422L132.149 173.867L133.633 175.742L135.157 177.656L135.157 185.117C135.157 189.219 135.039 192.578 134.883 192.617C134.688 192.617 134.024 192.695 133.321 192.773C132.461 192.891 132.032 192.773 131.875 192.344ZM166.446 186.523C162.227 184.844 153.086 180.469 152.071 179.609C151.328 178.984 153.086 175.898 155.508 173.633C158.243 171.055 161.25 169.023 161.914 169.258C162.852 169.648 166.328 175.781 168.946 181.68C171.446 187.461 171.758 188.281 171.211 188.281C171.016 188.281 168.907 187.461 166.446 186.523ZM176.368 187.305C177.422 184.258 178.36 177.93 178.75 171.563C179.024 167.344 179.063 167.109 179.961 166.758C182.188 165.937 185.117 166.797 187.032 168.867L187.93 169.805L186.953 171.523C182.188 180.078 175.391 190.156 176.368 187.305ZM193.672 153.32C190.508 150.977 187.305 148.398 186.602 147.695C185.86 146.953 184.727 146.133 184.024 145.898L182.774 145.508L184.883 143.672L186.992 141.836L190.664 145.43C192.696 147.422 195.508 150.039 196.953 151.289C199.688 153.633 200.43 155.117 199.727 156.836C199.453 157.539 198.867 157.227 193.672 153.32Z" fill="#4A738D"/><path d="M151.563 245.156C146.524 244.375 142.305 243.359 141.875 242.852C141.328 242.187 139.336 235.156 137.539 227.695C135.039 217.539 131.914 197.578 132.696 196.875C133.125 196.445 142.891 195.039 149.219 194.492C156.758 193.828 171.094 194.414 172.07 195.391C172.188 195.469 172.539 200.195 172.852 205.898C173.164 211.562 173.516 216.914 173.633 217.773C173.75 218.633 174.024 223.516 174.219 228.594C174.414 233.672 174.805 239.102 175.039 240.664C175.391 242.891 175.352 243.516 174.961 243.789C172.617 245.234 157.735 246.094 151.563 245.156ZM176.758 235.937C176.68 235.82 176.485 232.344 176.328 228.281L176.055 220.859L178.086 220.391C180.43 219.844 180.86 220 180.86 221.25C180.86 221.758 181.211 223.789 181.641 225.82C182.071 227.852 182.539 230.664 182.657 232.109C182.93 234.727 182.93 234.727 181.797 235.195C180.274 235.781 176.953 236.289 176.758 235.937ZM202.539 214.102C201.016 213.828 201.016 213.789 201.953 213.398C202.5 213.164 203.555 212.891 204.297 212.734C208.555 211.914 209.414 211.602 208.985 211.172C208.672 210.898 206.446 210.781 201.797 210.859L195.078 210.977L194.414 204.805C194.024 201.406 193.477 197.578 193.164 196.289L192.617 193.945L193.672 193.086C194.258 192.578 195.977 191.719 197.461 191.172C198.985 190.586 201.68 189.531 203.516 188.75C207.5 187.109 209.141 186.992 210.899 188.281C212.617 189.492 213.75 192.07 215.235 198.047C216.485 203.281 216.68 205.859 215.938 208.32C215.274 210.508 212.735 213.086 210.742 213.594C208.516 214.18 204.375 214.414 202.539 214.102ZM209.063 204.258C206.992 203.437 203.047 203.086 200.938 203.516C197.305 204.297 198.555 204.687 204.414 204.648C208.242 204.648 209.688 204.531 209.063 204.258ZM208.321 199.258C209.024 198.984 208.867 198.867 207.227 198.594C203.281 197.93 198.828 198.516 198.828 199.726C198.828 200.156 206.953 199.766 208.321 199.258ZM203.008 194.883C205.039 193.789 206.641 192.852 206.563 192.773C206.289 192.5 202.617 193.398 200.82 194.141C199.766 194.609 198.399 195.508 197.813 196.172L196.68 197.383L198.008 197.109C198.711 196.992 200.977 195.977 203.008 194.883ZM187.5 212.5C187.5 212.07 185.313 197.031 184.961 195.234C184.805 194.141 184.805 194.141 186.953 194.141H189.102L189.883 195.898C191.055 198.516 191.758 202.344 192.071 207.266L192.305 211.602L190.43 212.266C188.242 212.969 187.5 213.047 187.5 212.5ZM170.117 187.773C164.727 186.016 151.953 180.039 151.953 179.258C151.953 177.226 155.391 173.164 159.219 170.664L161.797 169.023L162.695 170.156C164.453 172.266 171.914 187.656 171.406 188.086C171.328 188.125 170.781 188.008 170.117 187.773ZM176.719 186.914C177.461 184.922 178.828 174.648 178.945 169.609L179.024 167.187L180.43 166.797C182.422 166.289 184.61 166.875 186.172 168.398C186.914 169.102 187.5 169.844 187.5 170.039C187.5 170.547 182.266 179.336 179.375 183.711C177.031 187.266 176.172 188.281 176.719 186.914ZM173.711 185.273C173.203 184.258 171.68 180.898 170.352 177.891C169.024 174.844 167.149 171.172 166.172 169.687C164.61 167.266 164.453 166.914 164.922 166.094C165.235 165.469 165.625 165.234 166.133 165.391C166.563 165.508 167.774 165.234 168.828 164.805L170.742 164.062L173.203 165.43C174.57 166.172 175.938 166.797 176.289 166.797C177.07 166.797 177.07 166.445 176.563 174.453C176.211 180.039 175.352 186.523 174.844 186.992C174.727 187.109 174.219 186.328 173.711 185.273ZM174.649 177.5C175.313 176.68 174.649 175.586 173.438 175.586C172.227 175.586 171.563 176.68 172.227 177.5C172.539 177.851 173.047 178.125 173.438 178.125C173.828 178.125 174.336 177.851 174.649 177.5ZM173.203 170.625C173.711 169.805 173.125 168.633 172.188 168.437C171.563 168.32 170.313 169.336 170.313 169.922C170.313 170.508 171.563 171.523 172.188 171.406C172.5 171.328 172.969 170.976 173.203 170.625ZM137.695 154.922C135.156 154.102 132.109 152.422 131.641 151.562C130.977 150.352 131.484 150 132.969 150.586C133.672 150.898 135.859 151.25 137.852 151.406C139.805 151.562 141.484 151.797 141.602 151.953C141.68 152.07 141.563 152.93 141.328 153.828C140.859 155.664 140.43 155.781 137.695 154.922ZM164.063 153.633C162.734 153.164 160.156 151.797 160.156 151.562C160.156 151.406 161.055 151.484 162.149 151.719C163.828 152.07 164.883 151.953 168.984 151.133C171.641 150.547 173.828 150.156 173.828 150.234C173.828 150.273 172.774 151.133 171.524 152.109C169.336 153.789 169.063 153.906 166.914 153.867C165.664 153.867 164.375 153.75 164.063 153.633ZM138.086 149.336C136.094 149.141 131.484 147.773 129.649 146.875C127.656 145.859 125.82 143.633 123.945 140.039C122.188 136.602 119.766 129.727 119.336 126.914C119.102 125.234 119.141 125.039 120.664 123.281C122.344 121.367 122.5 120.898 121.875 119.922C121.563 119.414 121.289 119.453 120.039 120.195C116.445 122.266 116.172 122.383 114.297 122.109C111.445 121.68 109.492 119.883 107.461 115.937C105.938 113.008 105.703 112.148 105.547 109.492C105.391 106.836 105.508 106.133 106.25 104.648C108.203 100.742 110.781 99.3359 115.391 99.5703C117.031 99.6484 119.18 102.07 120.117 104.883C120.508 106.172 120.977 107.383 121.133 107.539C121.602 108.125 125.43 107.344 126.484 106.445L127.5 105.586L126.445 101.133C125.117 95.4687 125.117 93.5937 126.562 86.6015C127.891 80.1562 127.969 78.4374 127.187 75.3906L126.601 73.2421L127.851 71.1328C131.133 65.664 143.555 56.914 150.391 55.3124C159.726 53.0859 175.43 57.2265 182.148 63.6328C183.984 65.3906 189.062 71.7578 189.062 72.3437C189.062 72.3828 187.93 72.4609 186.562 72.4609C184.414 72.4609 183.906 72.6171 183.008 73.4374C181.875 74.4921 181.133 76.0156 181.445 76.5624C181.562 76.7578 182.266 76.6406 183.008 76.3281C185.625 75.2343 189.023 76.0156 191.758 78.3984C195.078 81.2499 195.977 84.6874 196.328 96.0937C196.758 109.805 194.844 119.766 190 129.414C188.867 131.602 184.883 137.734 183.281 139.648C180.078 143.516 170.82 147.734 164.297 148.281C160.625 148.594 157.656 147.969 153.32 145.937C147.305 143.086 143.281 139.531 138.164 132.461C136.836 130.664 135.703 129.375 135.625 129.648C135.391 130.312 137.383 134.375 139.023 136.523C141.328 139.57 146.875 145.078 148.945 146.406L150.82 147.578L147.695 147.695C145.117 147.812 144.414 148.008 143.672 148.75C142.695 149.609 141.953 149.687 138.086 149.336ZM175.625 136.133C177.305 135.625 179.297 134.219 179.297 133.594C179.297 133.437 176.719 133.32 173.555 133.32C164.375 133.359 160.234 132.109 157.5 128.516C156.758 127.539 155.938 126.719 155.664 126.641C154.531 126.367 154.727 127.422 156.016 129.023C156.797 129.922 158.164 131.602 159.063 132.773C160.938 135.117 162.695 136.211 165.508 136.719C167.891 137.148 173.32 136.836 175.625 136.133ZM176.484 126.875L176.367 124.805L170.898 124.531C165 124.258 161.172 123.711 159.023 122.812C158.281 122.5 157.617 122.305 157.578 122.383C157.5 122.461 157.969 123.164 158.633 123.945C160.977 126.758 167.031 128.828 173.359 128.867L176.602 128.906L176.484 126.875ZM184.18 127.187C185.117 126.641 186.523 125.508 187.305 124.648C188.906 122.969 191.094 119.844 190.82 119.609C190.742 119.531 189.375 120.156 187.813 120.977C184.805 122.617 180.625 124.219 179.297 124.219C178.594 124.219 178.516 124.492 178.516 126.406L178.516 128.633L180.508 128.398C181.602 128.242 183.242 127.695 184.18 127.187ZM176.953 120.82C179.57 120.156 182.5 118.828 185.586 116.953C187.656 115.703 187.93 115.391 188.477 113.594C189.375 110.469 189.258 110.078 186.797 107.539C181.445 102.148 175.625 93.8281 174.844 90.5468C174.727 89.9218 174.336 89.4531 174.023 89.4531C172.578 89.4531 174.102 95.2734 176.562 99.3749C177.305 100.586 179.18 103.125 180.664 104.922C185.938 111.367 186.172 111.836 185.117 114.18C184.258 116.094 173.867 119.922 170.977 119.375C169.297 119.062 168.711 118.359 168.398 116.484C168.125 114.805 167.539 114.648 167.031 116.094C166.523 117.5 167.109 119.844 168.203 120.977C169.141 121.914 169.336 121.953 171.992 121.68C173.555 121.523 175.781 121.133 176.953 120.82ZM113.828 107.461C114.258 106.992 114.766 106.641 115.039 106.641C115.703 106.641 116.953 108.125 118.008 110.156L118.945 111.914L119.063 110.078C119.219 107.891 118.203 105.664 116.406 104.141C114.023 102.187 111.406 102.383 109.883 104.648C108.75 106.328 108.75 106.875 109.844 106.094C110.312 105.742 111.055 105.469 111.445 105.469C112.07 105.469 112.109 105.664 111.836 106.758C111.367 108.594 111.523 112.539 112.148 113.867C112.617 115 112.656 114.883 112.891 111.641C113.047 109.102 113.281 108.047 113.828 107.461ZM162.734 100.391C164.57 98.5546 164.492 97.4609 162.305 94.9999C161.328 93.9062 159.883 91.6406 159.062 89.9609C157.812 87.2656 157.617 87.0312 157.5 88.0468C157.344 89.2187 158.711 93.5156 159.57 94.5312C159.844 94.8437 160.352 95.664 160.664 96.3281C161.289 97.5781 161.289 97.5781 160.156 98.0468C159.336 98.3984 158.125 98.4374 155.977 98.2031C154.297 98.0468 152.773 97.8906 152.539 97.8515C151.836 97.8515 151.875 99.6484 152.578 100.43C153.594 101.562 155.312 101.953 158.516 101.797C161.133 101.68 161.484 101.562 162.734 100.391ZM192.461 98.6328C193.398 98.0468 194.297 97.3437 194.414 97.0703C194.57 96.5624 189.961 86.7187 189.531 86.7187C189.023 86.7187 189.883 91.0937 190.82 93.1249C192.031 95.8593 191.953 95.9374 188.281 96.289C186.875 96.4453 185.508 96.6015 185.273 96.6796C184.414 96.9531 184.727 98.3593 185.859 99.2187C186.719 99.9218 187.227 100.039 188.828 99.8437C189.844 99.7265 191.484 99.1796 192.461 98.6328ZM141.758 83.8281C143.164 81.4453 145.547 79.1015 147.5 78.2812C148.203 77.9687 149.922 77.7343 151.328 77.7343C152.734 77.7343 153.984 77.539 154.101 77.3437C154.883 76.0546 152.266 73.8281 149.922 73.8281C148.125 73.8281 144.922 75.4687 142.93 77.4609C141.289 79.1015 139.453 82.3828 139.453 83.7109C139.453 84.414 140.117 85.9374 140.43 85.9374C140.508 85.9374 141.094 84.9999 141.758 83.8281Z" fill="#83B3C7"/><path d="M108.359 94.6875C108.047 92.0312 108.359 86.289 108.984 84.2969C110.273 79.9219 116.211 75.7422 122.5 74.7656C123.945 74.5703 124.14 74.6093 124.336 75.4297C124.726 76.8359 124.687 76.9531 123.711 76.9531C122.187 76.9531 117.89 78.5156 115.937 79.7656C111.25 82.7343 108.476 88.8281 109.219 94.4922C109.375 95.664 109.297 96.4843 109.062 96.6406C108.789 96.7968 108.555 96.0547 108.359 94.6875ZM114.844 73.0468C114.844 72.8906 115.664 71.6797 116.64 70.3515C118.75 67.539 123.125 64.1406 127.656 61.7968C131.211 59.9609 136.211 58.0859 136.758 58.4375C137.461 58.8281 137.07 59.6484 135.976 60.1953C127.656 64.2578 124.805 66.1328 121.133 69.9609C119.414 71.7187 118.476 72.3437 116.914 72.8125C115.781 73.125 114.844 73.2422 114.844 73.0468Z" fill="#83B3C7"/><path d="M164.063 153.555C162.696 153.125 160.625 152.031 160.352 151.562C160.196 151.289 160.469 151.289 161.133 151.562C162.735 152.148 165.039 152.031 169.649 151.016C171.953 150.508 173.828 150.156 173.828 150.195C173.828 150.234 172.774 151.094 171.524 152.109C169.414 153.75 169.024 153.906 167.11 153.867C165.977 153.867 164.61 153.711 164.063 153.555ZM137.617 149.18C134.453 148.789 130.391 147.383 128.555 146.094C126.446 144.57 124.375 141.328 122.344 136.484C120.821 132.773 119.141 127.148 119.141 125.742C119.141 125.352 119.844 124.219 120.742 123.203C122.383 121.328 122.656 119.844 121.406 119.609C121.055 119.531 119.766 120.117 118.594 120.938C116.719 122.188 116.211 122.344 114.805 122.148C112.149 121.797 109.766 120.039 108.086 117.187C104.141 110.391 104.688 104.102 109.531 100.898C111.172 99.7656 111.758 99.6094 113.867 99.6094C115.781 99.6094 116.524 99.8047 117.383 100.469C118.477 101.328 120.703 105.508 120.703 106.758C120.703 107.148 120.977 107.539 121.289 107.656C122.383 108.086 125.391 107.383 126.445 106.484L127.461 105.586L126.445 101.055C125.117 95.3125 125.117 93.6719 126.563 86.7578C127.891 80.4687 128.008 77.9688 127.149 75.1563C126.602 73.3203 126.641 73.2031 127.539 71.6406C129.922 67.5781 135.547 62.7344 142.578 58.75C147.813 55.8203 150.195 55.0391 155.078 54.8047C161.953 54.4531 168.711 56.0156 176.406 59.7656C179.805 61.4063 180.742 62.0703 183.047 64.5703C184.531 66.1719 186.484 68.5547 187.422 69.8828L189.102 72.2656H186.875C184.375 72.2656 182.852 73.0078 181.875 74.6094C181.016 76.0938 181.055 77.1094 181.953 76.7578C185.078 75.4297 187.539 75.7031 190.703 77.6953C194.531 80.1172 195.508 82.9688 196.172 93.3203C196.992 106.602 195.196 118.047 190.821 127.617C189.063 131.445 184.414 138.516 182.344 140.469C179.375 143.32 173.946 146.094 168.75 147.461C165.235 148.398 159.766 148.398 157.032 147.5C150.274 145.234 144.727 140.977 139.297 133.867C137.383 131.367 135.742 129.375 135.625 129.453C135.274 129.805 136.797 133.477 138.008 135.234C140.196 138.398 145.977 144.375 148.516 146.094L150.938 147.695L148.867 147.539C146.367 147.305 144.727 147.734 143.555 148.828C142.657 149.687 142.032 149.687 137.617 149.18ZM174.571 136.445C176.953 135.938 179.297 134.492 179.297 133.516C179.297 133.359 176.719 133.203 173.555 133.203C166.914 133.242 165.039 133.008 162.188 131.953C159.805 131.055 158.203 129.805 157.031 127.93C156.524 127.148 155.86 126.562 155.43 126.562C154.063 126.562 154.297 126.914 159.414 133.32C160.078 134.141 161.016 135.078 161.563 135.391C164.063 137.07 169.571 137.5 174.571 136.445ZM176.563 127.07C176.563 125.742 176.367 124.922 176.094 124.805C175.821 124.727 173.321 124.57 170.508 124.414C164.102 124.141 160.899 123.594 158.047 122.461C157.422 122.187 157.383 122.266 157.774 122.93C159.61 126.445 166.914 129.062 174.922 129.141H176.563L176.563 127.07ZM183.438 127.539C184.571 127.07 186.172 125.938 187.071 125.039C188.555 123.555 191.133 119.883 190.86 119.609C190.781 119.57 188.946 120.391 186.758 121.445C184.571 122.5 181.836 123.594 180.664 123.828L178.516 124.258L178.516 128.984L180 128.711C180.781 128.594 182.344 128.047 183.438 127.539ZM177.422 120.859C179.727 120.156 182.305 118.945 185.625 116.953C187.5 115.82 187.93 115.312 188.438 113.789C189.414 110.977 189.258 109.57 187.891 108.516C184.336 105.742 176.406 95.0391 175.195 91.4062C174.805 90.1953 174.336 89.4531 173.945 89.4531C173.438 89.4531 173.36 89.8047 173.594 91.7188C173.985 95 176.719 100.234 180.274 104.492C184.883 110 185.547 110.977 185.547 112.148C185.547 114.375 184.922 114.961 180.508 116.914C175.977 118.906 173.711 119.453 171.328 119.258C169.375 119.102 168.789 118.594 168.516 116.719C168.203 114.922 167.774 114.531 167.227 115.586C166.367 117.187 166.797 119.492 168.321 121.25C168.867 121.875 169.336 121.914 172.149 121.719C173.906 121.562 176.289 121.172 177.422 120.859ZM113.985 107.344C114.766 106.562 114.844 106.562 115.781 107.187C116.328 107.539 117.266 108.75 117.852 109.883L118.945 111.914L119.063 110.078C119.375 105.391 114.258 101.094 111.016 103.359C110.078 103.984 108.789 106.172 109.141 106.523C109.258 106.641 109.61 106.445 109.961 106.094C110.313 105.742 110.938 105.469 111.406 105.469C112.07 105.469 112.149 105.625 111.836 106.758C111.367 108.672 111.524 112.969 112.149 114.062C112.656 114.961 112.696 114.805 112.93 111.602C113.125 108.828 113.32 107.969 113.985 107.344ZM161.563 101.328C164.61 99.8828 164.844 97.6953 162.305 94.9609C161.367 93.9453 159.922 91.7188 159.102 90C157.813 87.2656 157.617 87.0312 157.5 88.0469C157.305 89.4922 158.36 92.7344 159.805 94.9609C160.43 95.9375 160.938 96.9531 160.938 97.1875C160.938 98.4375 157.578 98.7109 153.438 97.8125C152.188 97.5391 151.719 98.2422 152.11 99.7656C152.578 101.719 158.633 102.695 161.563 101.328ZM192.266 98.75C194.922 97.2656 194.922 97.1875 192.188 91.6797C190.86 88.9453 189.688 86.7187 189.57 86.7187C189.024 86.7187 189.883 91.1328 190.82 93.1641C191.953 95.6641 191.797 96.0547 189.649 96.1328C188.125 96.1719 185.86 96.4453 185.274 96.6797C184.414 96.9922 184.727 98.3594 185.86 99.2187C186.719 99.9219 187.227 100.039 188.789 99.8437C189.844 99.7266 191.406 99.2188 192.266 98.75ZM141.563 84.2578C141.992 83.3594 143.242 81.7188 144.297 80.625C146.602 78.3594 148.867 77.5391 151.953 77.8125C153.594 77.9688 153.945 77.8906 154.102 77.3047C154.649 75.6641 152.383 73.8281 149.922 73.8281C146.719 73.8281 142.109 77.3047 140.391 80.9766C139.375 83.2031 139.258 84.0625 139.844 85.1953C140.43 86.2891 140.742 86.1328 141.563 84.2578Z" fill="#F1D8B9"/><path d="M154.297 245.469C153.75 245.391 151.993 245.117 150.391 244.883C146.797 244.375 142.5 243.359 142.032 242.93C141.211 242.188 137.735 229.414 135.977 220.625C134.688 214.336 132.891 202.188 132.735 198.828L132.617 196.719L134.375 196.406C144.571 194.57 159.492 193.672 166.992 194.492C169.375 194.766 171.524 195.195 171.758 195.43C172.227 195.898 172.93 205.156 173.828 223.438C174.258 232.188 174.922 241.016 175.235 242.617C175.469 243.594 175.352 243.672 172.93 244.258C168.243 245.43 158.477 246.055 154.297 245.469ZM176.446 231.016C176.289 228.242 176.172 224.844 176.172 223.398L176.172 220.859L178.242 220.43C179.336 220.195 180.352 220.078 180.43 220.117C180.703 220.391 182.774 231.914 182.813 233.32C182.813 235 182.071 235.469 178.672 235.82L176.68 236.016L176.446 231.016ZM203.047 214.18C202.227 214.102 201.563 213.867 201.563 213.633C201.563 213.438 201.641 213.281 201.719 213.281C201.914 213.281 207.188 212.227 208.555 211.875C209.297 211.719 209.375 211.562 209.024 211.211C208.672 210.859 206.641 210.781 201.836 210.859L195.078 210.938L194.414 204.609C194.024 201.094 193.477 197.266 193.164 196.094L192.578 193.945L193.633 193.086C194.219 192.578 196.758 191.484 199.219 190.586C201.68 189.688 204.571 188.516 205.586 188.008C208.477 186.562 211.367 187.617 212.891 190.625C213.985 192.734 216.406 202.422 216.406 204.609C216.406 208.984 214.024 212.773 210.742 213.594C208.789 214.102 204.922 214.375 203.047 214.18ZM210.078 204.492C209.961 204.375 208.477 204.023 206.797 203.672C203.086 202.969 198.828 203.32 198.828 204.336C198.828 204.531 201.406 204.688 204.571 204.688C207.696 204.688 210.196 204.609 210.078 204.492ZM208.594 199.219C209.258 198.828 206.211 198.281 203.321 198.242C201.289 198.242 198.828 199.023 198.828 199.727C198.828 200.156 207.656 199.727 208.594 199.219ZM200.821 196.094C202.194 195.327 203.587 194.597 205 193.906C206.133 193.359 206.992 192.812 206.914 192.734C206.836 192.617 205.469 192.812 203.867 193.125C201.094 193.711 196.875 195.977 196.875 196.875C196.875 197.617 198.75 197.266 200.821 196.094ZM187.305 210.664C187.188 209.414 186.641 205.664 186.094 202.344C185.586 199.023 185.156 195.82 185.156 195.234C185.156 194.18 185.235 194.141 187.149 194.141C189.102 194.141 189.102 194.141 189.883 195.898C191.016 198.477 191.758 202.305 192.031 207.266L192.305 211.562L190.235 212.227C189.102 212.578 188.047 212.891 187.891 212.891C187.735 212.891 187.461 211.875 187.305 210.664ZM173.36 184.375C172.578 182.773 171.055 179.375 169.922 176.875C168.828 174.375 167.11 171.133 166.172 169.688C165.235 168.242 164.453 166.992 164.453 166.875C164.453 166.328 165.742 165.313 166.211 165.469C166.485 165.586 167.344 165.391 168.164 165.078C170.274 164.18 171.445 164.297 173.438 165.625C174.414 166.25 175.586 166.797 176.094 166.797C176.953 166.797 176.953 166.836 176.758 171.211C176.445 177.344 175.781 183.203 175.196 185.43L174.688 187.305L173.36 184.375ZM174.649 177.5C175.313 176.68 174.649 175.586 173.438 175.586C172.227 175.586 171.563 176.68 172.227 177.5C172.539 177.852 173.047 178.125 173.438 178.125C173.828 178.125 174.336 177.852 174.649 177.5ZM173.203 170.625C173.711 169.805 173.125 168.633 172.188 168.438C171.563 168.32 170.313 169.336 170.313 169.922C170.313 170.508 171.563 171.523 172.188 171.406C172.5 171.328 172.969 170.977 173.203 170.625ZM137.188 154.688C133.242 153.281 130.781 151.445 131.445 150.391C131.563 150.195 132.227 150.273 132.93 150.586C133.594 150.859 135.82 151.25 137.813 151.484C139.805 151.68 141.524 151.914 141.602 152.031C141.68 152.109 141.563 152.93 141.328 153.828C140.86 155.742 140.391 155.859 137.188 154.688ZM129.414 146.484C127.617 145.43 127.813 145.156 129.609 146.172C131.406 147.227 131.484 147.266 131.016 147.266C130.82 147.266 130.078 146.914 129.414 146.484ZM123.984 139.805C123.438 138.711 123.047 137.734 123.125 137.656C123.203 137.578 123.75 138.477 124.336 139.648C124.922 140.82 125.313 141.797 125.195 141.797C125.078 141.797 124.57 140.898 123.984 139.805ZM119.531 124.961C119.531 124.648 120.039 124.063 120.625 123.672L121.68 122.93L120.703 124.063C120.156 124.688 119.688 125.273 119.648 125.352C119.57 125.43 119.531 125.273 119.531 124.961ZM105.586 108.789C105.586 107.93 105.664 107.617 105.742 108.125C105.82 108.594 105.82 109.297 105.742 109.688C105.625 110.039 105.547 109.648 105.586 108.789ZM108.203 102.148C108.945 101.406 109.609 100.781 109.727 100.781C109.844 100.781 109.336 101.406 108.594 102.148C107.852 102.891 107.188 103.516 107.07 103.516C106.953 103.516 107.461 102.891 108.203 102.148ZM118.086 101.836C117.93 101.562 117.344 101.016 116.797 100.664C116.289 100.312 115.977 100 116.133 100C116.68 100 118.281 101.211 118.516 101.797C118.789 102.5 118.516 102.5 118.086 101.836ZM113.203 99.7266C113.672 99.6484 114.375 99.6484 114.766 99.7266C115.117 99.8438 114.727 99.9219 113.867 99.8828C113.008 99.8828 112.695 99.8047 113.203 99.7266ZM108.398 94.2969C108.008 90.8594 108.398 86.25 109.219 83.7891C110.508 80.0781 115.508 76.4062 121.055 75.1562C122.617 74.8047 123.945 74.6094 124.023 74.6875C124.141 74.7656 124.258 75.2344 124.297 75.7422C124.414 76.5234 124.141 76.7187 121.562 77.3828C117.734 78.3594 115.156 79.8047 112.891 82.3047C110.234 85.2344 109.258 87.8906 109.18 92.6562C109.141 94.7656 109.023 96.5625 108.906 96.7188C108.75 96.8359 108.555 95.7422 108.398 94.2969ZM140.898 79.1016C141.367 78.4766 142.305 77.4219 143.008 76.7578C143.984 75.8984 143.867 76.0938 142.617 77.5391C140.312 80.1562 139.961 80.4688 140.898 79.1016ZM114.844 73.2422C114.844 72.6562 116.758 70.1562 118.633 68.2422C122.266 64.5703 127.5 61.3672 133.555 59.2188C135.547 58.4766 136.562 58.2812 136.875 58.5937C137.539 59.2578 136.719 59.8438 131.797 62.2266C127.734 64.1797 124.375 66.5625 121.484 69.5312C120.078 70.9766 118.594 72.2656 118.164 72.3828C117.734 72.5 116.797 72.7734 116.133 72.9688C115.43 73.2031 114.844 73.3203 114.844 73.2422ZM187.891 71.4844C187.656 71.0547 187.617 70.7031 187.773 70.7031C187.969 70.7031 188.32 71.0547 188.594 71.4844C188.867 71.9141 188.906 72.2656 188.672 72.2656C188.477 72.2656 188.125 71.9141 187.891 71.4844ZM131.445 67.1875C132.93 65.7031 134.258 64.4531 134.336 64.4531C134.453 64.4531 133.32 65.7031 131.836 67.1875C130.352 68.7109 129.023 69.9219 128.945 69.9219C128.828 69.9219 129.961 68.7109 131.445 67.1875ZM134.922 64.1406C135.234 63.6328 137.5 61.9531 137.5 62.2266C137.5 62.3438 136.836 62.8906 136.055 63.5156C135.273 64.1016 134.766 64.4141 134.922 64.1406ZM174.219 59.1797C173.672 58.8672 173.437 58.6328 173.633 58.6328C173.867 58.6328 174.453 58.8672 175 59.1797C175.547 59.4922 175.82 59.7266 175.586 59.7266C175.391 59.7266 174.766 59.4922 174.219 59.1797ZM143.75 58.3984C143.75 58.125 146.914 56.5625 147.109 56.7188C147.187 56.8359 146.445 57.2656 145.508 57.7344C144.531 58.2031 143.75 58.5156 143.75 58.3984ZM155.781 54.8047C156.25 54.7266 157.031 54.7266 157.539 54.8047C158.008 54.8828 157.617 54.9609 156.641 54.9609C155.664 54.9609 155.273 54.8828 155.781 54.8047Z" fill="#F6F5F5"/></svg>