<svg viewBox="0 0 300 300" fill="none" xmlns="http://www.w3.org/2000/svg"><path d="M298 150C298 231.738 231.738 298 150 298C68.2619 298 2 231.738 2 150C2 68.2619 68.2619 2 150 2C231.738 2 298 68.2619 298 150Z" fill="#486BB3"/><path fill-rule="evenodd" clip-rule="evenodd" d="M150 300C232.843 300 300 232.843 300 150C300 67.1573 232.843 0 150 0C67.1573 0 0 67.1573 0 150C0 232.843 67.1573 300 150 300ZM150 290C227.32 290 290 227.32 290 150C290 72.6801 227.32 10 150 10C72.6801 10 10 72.6801 10 150C10 227.32 72.6801 290 150 290Z" fill="#919191"/><path fill-rule="evenodd" clip-rule="evenodd" d="M150 300C232.843 300 300 232.843 300 150C300 67.1573 232.843 0 150 0C67.1573 0 0 67.1573 0 150C0 232.843 67.1573 300 150 300ZM150 290C227.32 290 290 227.32 290 150C290 72.6801 227.32 10 150 10C72.6801 10 10 72.6801 10 150C10 227.32 72.6801 290 150 290Z" fill="#486BB3" style="mix-blend-mode:color"/><path d="M138.256 136.091C138.835 136.513 139.538 136.763 140.303 136.763C142.178 136.763 143.71 135.278 143.788 133.434L143.866 133.388L145.038 112.669C143.631 112.841 142.225 113.075 140.819 113.388C133.116 115.138 126.444 118.934 121.225 124.059L138.21 136.106L138.256 136.091ZM135.991 166.45C135.793 165.573 135.262 164.807 134.509 164.314C133.757 163.822 132.843 163.641 131.96 163.809L131.928 163.763L111.538 167.216C114.597 175.687 120.371 182.911 127.96 187.763L135.866 168.669L135.803 168.591C136.069 167.934 136.163 167.2 135.991 166.45ZM129.21 151.747C129.897 151.559 130.538 151.153 131.022 150.559C132.194 149.091 131.991 146.981 130.585 145.763L130.6 145.684L115.085 131.809C110.353 139.513 108.319 148.572 109.303 157.559L129.194 151.825L129.21 151.747ZM144.272 157.841L149.991 160.591L155.71 157.856L157.116 151.684L153.163 146.747H146.819L142.85 151.684L144.272 157.841ZM156.147 133.356C156.178 134.075 156.428 134.778 156.913 135.372C158.085 136.841 160.194 137.106 161.694 136.013L161.756 136.044L178.631 124.075C172.256 117.841 163.944 113.763 154.96 112.669L156.131 133.356H156.147ZM167.991 163.716C167.725 163.669 167.46 163.638 167.194 163.653C166.741 163.669 166.288 163.794 165.866 163.997C165.057 164.387 164.43 165.074 164.115 165.916C163.801 166.757 163.823 167.687 164.178 168.513L164.147 168.544L172.132 187.825C179.835 182.919 185.585 175.591 188.6 167.138L168.038 163.653L167.991 163.716ZM153.053 173.934C152.743 173.365 152.281 172.893 151.718 172.57C151.155 172.247 150.514 172.087 149.866 172.106C148.663 172.153 147.522 172.825 146.913 173.95H146.897L136.866 192.075C144.048 194.517 151.769 194.912 159.163 193.216C160.538 192.903 161.882 192.528 163.178 192.091L153.132 173.919H153.053L153.053 173.934Z" fill="white"/><path d="M244.6 169.981L228.288 99.1531C227.862 97.3159 227.027 95.5987 225.845 94.1295C224.662 92.6604 223.163 91.4773 221.46 90.6687L155.459 59.1375C153.55 58.2296 151.446 57.8108 149.334 57.9187C147.655 58.0013 146.009 58.4155 144.491 59.1375L78.4908 90.6687C76.7899 91.4814 75.2933 92.6656 74.1115 94.1341C72.9297 95.6026 72.0928 97.3178 71.6627 99.1531L55.3972 169.997C55.0194 171.629 54.9769 173.321 55.2723 174.97C55.5678 176.619 56.195 178.191 57.116 179.591C57.3347 179.934 57.5847 180.262 57.8347 180.591L103.522 237.387C104.711 238.861 106.215 240.049 107.925 240.863C109.634 241.677 111.504 242.097 113.397 242.091L186.663 242.075C190.507 242.075 194.132 240.341 196.538 237.372L242.21 180.559C243.379 179.09 244.201 177.375 244.615 175.544C245.029 173.712 245.024 171.811 244.6 169.981ZM219.491 169.122C219.007 171.231 216.741 172.512 214.397 172.012C214.382 172.012 214.35 172.012 214.335 171.997C214.303 171.997 214.288 171.981 214.257 171.966C213.928 171.887 213.522 171.825 213.241 171.747C211.897 171.387 210.913 170.841 209.694 170.372C207.085 169.434 204.913 168.653 202.803 168.341C201.725 168.262 201.178 168.762 200.585 169.153C200.303 169.091 199.413 168.934 198.897 168.856C195.116 180.747 187.053 191.059 176.132 197.497C176.319 197.95 176.647 198.919 176.788 199.091C176.538 199.762 176.163 200.387 176.491 201.419C177.257 203.403 178.491 205.356 179.991 207.684C180.71 208.762 181.46 209.591 182.116 210.841C182.272 211.137 182.475 211.591 182.632 211.903C183.647 214.075 182.897 216.575 180.944 217.512C178.975 218.466 176.538 217.466 175.475 215.278C175.319 214.966 175.116 214.559 174.991 214.262C174.429 212.981 174.241 211.887 173.85 210.637C172.96 208.012 172.21 205.841 171.147 203.997C170.538 203.106 169.804 202.997 169.132 202.778C169.007 202.559 168.538 201.7 168.288 201.262C166.1 202.091 163.85 202.778 161.507 203.309C151.257 205.637 140.991 204.7 131.835 201.169L130.944 202.794C130.272 202.966 129.632 203.153 129.241 203.622C127.804 205.341 127.225 208.091 126.179 210.716C125.788 211.95 125.6 213.059 125.038 214.341C124.913 214.637 124.694 215.044 124.554 215.341L124.554 215.356L124.538 215.372C123.491 217.544 121.054 218.544 119.085 217.606C117.132 216.669 116.397 214.169 117.397 211.997C117.554 211.684 117.741 211.231 117.897 210.934C118.554 209.7 119.288 208.856 120.022 207.778C121.522 205.434 122.835 203.341 123.6 201.356C123.788 200.7 123.507 199.794 123.257 199.122L123.975 197.403C113.46 191.169 105.163 181.247 101.194 168.95L99.4753 169.247C99.0066 168.981 98.0847 168.372 97.2097 168.45C95.1003 168.762 92.9284 169.544 90.3191 170.481C89.1003 170.95 88.1316 171.481 86.7722 171.841C86.4909 171.919 86.0847 171.997 85.7566 172.075C85.7253 172.075 85.7097 172.091 85.6784 172.106C85.6628 172.106 85.6316 172.106 85.6159 172.122C83.2722 172.622 81.0066 171.341 80.5222 169.231C80.0378 167.122 81.5378 164.981 83.8659 164.419C83.8816 164.419 83.9128 164.403 83.9284 164.403C83.9441 164.403 83.9441 164.403 83.9597 164.387C84.2878 164.309 84.7097 164.2 85.0222 164.137C86.3972 163.872 87.5222 163.934 88.8191 163.841C91.5847 163.544 93.8659 163.309 95.8972 162.669C96.5378 162.403 97.1628 161.512 97.6003 160.95L99.2565 160.466C97.3971 147.622 100.538 135.028 107.319 124.825L106.053 123.7C105.975 123.2 105.866 122.075 105.256 121.419C103.71 119.966 101.741 118.747 99.3815 117.294C98.2565 116.637 97.2252 116.216 96.1002 115.372C95.8658 115.2 95.5377 114.919 95.2877 114.716C95.2721 114.7 95.2408 114.684 95.2252 114.669C93.3346 113.153 92.8971 110.544 94.2564 108.841C95.0221 107.887 96.1939 107.403 97.3971 107.45C98.3346 107.481 99.3189 107.825 100.147 108.481C100.413 108.7 100.788 108.981 101.022 109.184C102.085 110.091 102.725 110.997 103.616 111.95C105.569 113.934 107.178 115.575 108.944 116.762C109.866 117.309 110.585 117.091 111.288 116.997C111.522 117.169 112.272 117.716 112.71 118.012C119.428 110.872 128.272 105.591 138.522 103.262C140.913 102.716 143.288 102.356 145.663 102.169L145.756 100.497C146.288 99.9812 146.866 99.2625 147.038 98.45C147.21 96.325 146.928 94.0437 146.6 91.2781C146.413 89.9969 146.116 88.9187 146.053 87.5281C146.038 87.2469 146.053 86.8406 146.069 86.5125C146.069 86.4812 146.053 86.4344 146.053 86.4031C146.053 83.9812 147.819 82.0125 150.006 82.0125C152.194 82.0125 153.96 83.9812 153.96 86.4031C153.96 86.7469 153.975 87.2156 153.975 87.5281C153.928 88.9187 153.616 89.9969 153.428 91.2781C153.1 94.0281 152.803 96.325 152.975 98.45C153.131 99.5125 153.756 99.9344 154.272 100.419C154.288 100.7 154.335 101.653 154.366 102.184C166.928 103.294 178.585 109.044 187.163 118.028L188.663 116.95C189.178 116.981 190.288 117.137 191.053 116.684C192.819 115.497 194.428 113.841 196.381 111.872C197.272 110.919 197.928 110.028 198.991 109.106C199.225 108.903 199.6 108.622 199.866 108.403C201.756 106.887 204.397 107.059 205.756 108.762C207.116 110.466 206.678 113.075 204.788 114.591C204.522 114.809 204.178 115.106 203.913 115.294C202.788 116.122 201.756 116.544 200.631 117.216C198.272 118.669 196.303 119.887 194.756 121.341C194.022 122.122 194.085 122.872 194.006 123.575C193.788 123.778 193.022 124.466 192.6 124.825C196.096 130.026 198.606 135.826 200.006 141.934C201.444 148.169 201.663 154.387 200.835 160.372L202.428 160.841C202.71 161.247 203.303 162.231 204.132 162.559C206.163 163.2 208.444 163.434 211.21 163.731C212.507 163.841 213.632 163.778 215.007 164.028C215.335 164.091 215.819 164.216 216.147 164.294C218.491 164.872 219.975 167.012 219.491 169.122Z" fill="white"/><path d="M184.803 131.809L169.366 145.622L169.382 145.669C168.85 146.138 168.444 146.763 168.272 147.513C167.85 149.341 168.96 151.153 170.741 151.653L170.757 151.731L190.741 157.481C191.163 153.169 190.913 148.7 189.882 144.231C188.85 139.716 187.116 135.544 184.803 131.809Z" fill="white"/></svg>