<svg viewBox="0 0 300 300" fill="none" xmlns="http://www.w3.org/2000/svg"><path d="M298 150C298 231.738 231.738 298 150 298C68.2619 298 2 231.738 2 150C2 68.2619 68.2619 2 150 2C231.738 2 298 68.2619 298 150Z" fill="#2E7EEE"/><path fill-rule="evenodd" clip-rule="evenodd" d="M150 300C232.843 300 300 232.843 300 150C300 67.1573 232.843 0 150 0C67.1573 0 0 67.1573 0 150C0 232.843 67.1573 300 150 300ZM150 290C227.32 290 290 227.32 290 150C290 72.6801 227.32 10 150 10C72.6801 10 10 72.6801 10 150C10 227.32 72.6801 290 150 290Z" fill="#919191"/><path fill-rule="evenodd" clip-rule="evenodd" d="M150 300C232.843 300 300 232.843 300 150C300 67.1573 232.843 0 150 0C67.1573 0 0 67.1573 0 150C0 232.843 67.1573 300 150 300ZM150 290C227.32 290 290 227.32 290 150C290 72.6801 227.32 10 150 10C72.6801 10 10 72.6801 10 150C10 227.32 72.6801 290 150 290Z" fill="#2E7EEE" style="mix-blend-mode:color"/><path d="M182.5 75C186.642 75 190 78.3579 190 82.5V107.5C190 111.642 186.642 115 182.5 115H179.985V122.575L223.586 183.117C224.352 184.181 224.824 185.423 224.959 186.718L225 187.5V217.5C225 221.642 221.642 225 217.5 225H82.5003C78.3582 225 75.0003 221.642 75.0003 217.5L75.0002 187.5C75.0002 185.927 75.4948 184.394 76.414 183.118L120.005 122.575V115H117.5C113.602 115 110.398 112.026 110.034 108.222L110 107.5V82.5C110 78.3579 113.358 75 117.5 75H182.5ZM175 90H125V100H127.506C131.404 100 134.608 102.974 134.971 106.778L135.006 107.5V124.391C135.006 126.36 134.387 128.279 133.236 129.876L90.0002 189.915L90.0003 210H210V189.92L166.76 129.877C165.774 128.507 165.178 126.902 165.028 125.231L164.99 124.391V107.5C164.99 103.358 168.348 100 172.49 100H175V90ZM172 180C176.142 180 179.5 183.358 179.5 187.5C179.5 191.642 176.142 195 172 195H154C149.858 195 146.5 191.642 146.5 187.5C146.5 183.358 149.858 180 154 180H172ZM133.645 152.196L146.987 165.539C149.916 168.468 149.916 173.216 146.987 176.145L133.645 189.487C130.716 192.416 125.968 192.416 123.039 189.487C120.11 186.558 120.11 181.809 123.039 178.88L131.075 170.843L123.039 162.803C120.282 160.046 120.12 155.678 122.552 152.731L123.039 152.196C125.968 149.268 130.716 149.268 133.645 152.196Z" fill="white"/></svg>
