<svg viewBox="0 0 300 300" fill="none" xmlns="http://www.w3.org/2000/svg"><path d="M298 150C298 231.738 231.738 298 150 298C68.2619 298 2 231.738 2 150C2 68.2619 68.2619 2 150 2C231.738 2 298 68.2619 298 150Z" fill="#218012"/><path fill-rule="evenodd" clip-rule="evenodd" d="M150 300C232.843 300 300 232.843 300 150C300 67.1573 232.843 0 150 0C67.1573 0 0 67.1573 0 150C0 232.843 67.1573 300 150 300ZM150 290C227.32 290 290 227.32 290 150C290 72.6801 227.32 10 150 10C72.6801 10 10 72.6801 10 150C10 227.32 72.6801 290 150 290Z" fill="#919191"/><path fill-rule="evenodd" clip-rule="evenodd" d="M150 300C232.843 300 300 232.843 300 150C300 67.1573 232.843 0 150 0C67.1573 0 0 67.1573 0 150C0 232.843 67.1573 300 150 300ZM150 290C227.32 290 290 227.32 290 150C290 72.6801 227.32 10 150 10C72.6801 10 10 72.6801 10 150C10 227.32 72.6801 290 150 290Z" fill="#4FAA41" style="mix-blend-mode:color"/><path fill-rule="evenodd" clip-rule="evenodd" d="M179.38 103.484C175.311 90.8156 168.784 79.6031 159.588 69.9547C157.263 67.514 154.678 65.2781 153.056 62.2422C152.031 60.3203 151.055 58.3719 150.056 56.4375L149.422 54.8422L149.245 55.4703C149.163 58.6265 147.375 60.7656 145.15 62.764C142.644 65.0109 140.313 67.4515 137.906 69.8094L130.506 79.5422L124.524 90.5453L120.522 101.35L120.402 101.517C118.2 108.75 117.114 116.187 116.581 123.697C116.38 126.52 116.611 129.383 116.769 132.22C116.996 136.277 117.7 140.262 118.756 144.189C122.596 158.448 130.388 170.275 141.042 180.325C143.021 182.192 145.16 183.891 147.224 185.666L148.138 188.803L148.988 193.672L149.394 198.755C149.389 199.786 149.347 200.822 149.408 201.85C149.425 202.114 149.769 202.358 149.963 202.611L151.688 203.217L153.483 203.916L153.175 199.398L153.161 194.948L153.782 188.17L154.232 186.695L155.521 184.412C157.111 183.134 158.816 181.972 160.264 180.548C162.885 177.975 165.5 175.366 167.846 172.545C170.897 168.89 173.503 164.884 175.61 160.614C177.014 157.75 178.339 154.828 179.435 151.836C180.4 149.198 180.999 146.425 181.76 143.711L181.96 143.125C183.53 135.8 183.794 128.4 183.217 120.953C182.753 114.952 181.342 109.159 179.38 103.484ZM148.286 182.039C148.527 180.834 148.825 179.636 149.042 178.427C148.825 179.636 148.528 180.834 148.286 182.039ZM153.625 182.87L152.616 180.659L153.625 182.87L155.108 184.137L153.625 182.87ZM216.366 210.881C215.075 208.408 213.182 206.53 210.678 205.297C208.582 204.266 206.327 203.812 204.008 203.747C202.271 203.697 200.527 203.786 198.786 203.808C197.241 203.827 195.694 203.853 194.149 203.839C192.332 203.82 190.514 203.766 188.697 203.714C188.396 203.705 188.182 203.766 188.041 204.072C187.821 204.548 187.56 205.008 187.289 205.53L187.593 205.627C188.494 205.786 189.4 205.922 190.297 206.102C191.45 206.331 191.969 206.994 192.022 207.966C192.1 209.35 192.132 210.737 192.127 212.125C192.103 217.616 192.064 223.106 192.024 228.595C192.021 228.958 192.014 229.336 191.916 229.677C191.802 230.07 191.679 230.58 191.385 230.773C190.856 231.113 190.263 231.339 189.643 231.437C188.766 231.581 188.619 231.62 188.346 232.483L188.227 232.914C188.096 233.384 188.166 233.477 188.657 233.481C191.472 233.512 194.286 233.573 197.1 233.564C199.668 233.555 202.235 233.711 204.793 233.228C207.21 232.773 209.466 231.977 211.525 230.628C214.197 228.877 216.119 226.536 217.133 223.481C217.952 221.014 218.135 218.497 217.857 215.917C217.683 214.159 217.177 212.45 216.366 210.881ZM211.433 225.977C209.927 228.78 207.68 230.652 204.469 231.145C202.458 231.453 200.444 231.364 198.527 230.603C197.313 230.122 196.861 229.073 196.824 227.834C196.789 226.62 196.772 225.405 196.772 224.191C196.766 219.919 196.766 215.647 196.772 211.377C196.775 210.031 196.799 208.683 196.821 207.336C196.836 206.389 197.035 206.072 197.958 205.995C202.014 205.655 205.885 206.092 209.099 208.947C211.086 210.712 212.218 212.964 212.688 215.55C212.883 216.628 212.943 217.731 213.064 218.825C212.966 221.322 212.629 223.752 211.433 225.977ZM245.479 221.35C244.678 219.403 243.163 218.183 241.258 217.402C240.608 217.134 239.938 216.914 239.236 216.655L239.482 216.498C240.239 216.012 241.083 215.62 241.736 215.022C243.324 213.567 243.983 211.737 243.674 209.564C243.38 207.497 242.349 205.98 240.507 204.995C238.835 204.105 237.032 203.78 235.166 203.781C231.938 203.784 228.708 203.833 225.48 203.839C224.368 203.841 223.255 203.758 222.143 203.742C221.927 203.739 221.607 203.794 221.514 203.937C221.26 204.328 221.091 204.778 220.91 205.212C220.805 205.466 220.908 205.605 221.197 205.642C221.974 205.748 222.749 205.881 223.527 205.997C224.602 206.158 225.122 206.717 225.188 207.8L225.202 208.442C225.203 211.809 225.214 215.177 225.2 218.544C225.18 221.906 225.149 225.269 225.105 228.631C225.1 229.055 225.043 229.48 224.982 229.9C224.889 230.534 224.55 230.972 223.9 231.109L222.061 231.472C221.844 231.516 221.53 231.509 221.441 231.644C221.104 232.148 220.832 232.7 220.869 233.366L221.058 233.417L227.235 233.569L228.474 233.564C230.611 233.539 232.752 233.581 234.886 233.472C237.197 233.356 239.368 232.67 241.374 231.491C243.51 230.233 245.154 228.575 245.738 226.081C246.113 224.489 246.114 222.887 245.479 221.35ZM229.786 207.005C229.796 206.328 230.094 206.034 230.766 206.017C232.421 205.972 234.064 205.981 235.661 206.552C237.727 207.289 238.997 209.07 238.974 211.247C238.963 212.083 238.975 212.911 238.668 213.714C238.06 215.295 236.894 216.13 235.241 216.292C234.378 216.38 233.508 216.389 232.739 216.43L230.174 216.317C229.833 216.305 229.685 216.155 229.686 215.805L229.786 207.005ZM240.421 228.089C239.594 229.887 238.088 230.833 236.202 231.161C234.699 231.419 233.158 231.351 231.683 230.962C230.58 230.68 230.13 229.794 229.91 228.811C229.761 228.153 229.786 227.37 229.774 226.686C229.754 225.63 229.769 223.437 229.769 223.437H229.747C229.747 221.875 229.752 220.522 229.743 219.023C229.741 218.7 229.796 218.539 230.191 218.552C231.594 218.594 233.002 218.617 234.405 218.672C235.66 218.72 236.835 219.092 237.939 219.687C239.621 220.594 240.633 221.981 240.911 223.887C241.124 225.333 241.033 226.755 240.421 228.089ZM86.3785 229.773L86.4082 221.278C86.4129 220 86.2504 218.747 85.8316 217.534C84.6769 214.195 81.4926 212.675 78.1769 213.873C76.6691 214.419 75.3176 215.245 74.0269 216.183C73.2754 216.73 73.2754 216.73 72.7316 215.95C71.1926 213.744 68.9941 212.989 66.4347 213.803C64.7801 214.328 63.3332 215.227 61.9629 216.27C61.8347 216.367 61.5769 216.475 61.5004 216.417C61.3722 216.322 61.2832 216.095 61.2863 215.925L61.3801 214.416C61.3879 214.098 61.3269 213.78 61.2957 213.447C60.6769 213.661 60.1832 213.875 59.666 214C58.0676 214.391 56.4582 214.75 54.8504 215.117C54.4613 215.206 54.0504 215.323 54.0129 215.77C53.9738 216.209 54.3972 216.283 54.7254 216.414C55.416 216.692 56.1019 216.987 56.7848 217.287C57.3582 217.541 57.5723 217.998 57.5691 218.614C57.5582 221.247 57.5754 223.877 57.5598 226.509C57.5535 227.58 57.5035 228.648 57.4551 229.719C57.4113 230.667 57.0879 231.064 56.1692 231.303C55.6817 231.431 55.1863 231.517 54.6957 231.633C54.5879 231.658 54.4035 231.727 54.402 231.78C54.3817 232.244 54.3567 232.719 54.4348 233.17C54.4504 233.252 54.941 233.252 55.2129 233.283L55.3957 233.272C57.2895 233.244 59.1832 233.214 61.0785 233.194C62.0832 233.183 63.0863 233.192 64.177 233.192L64.2942 231.677C63.6692 231.562 63.1113 231.477 62.5613 231.356C61.7035 231.169 61.3379 230.714 61.316 229.848L61.3004 228.609C61.291 225.395 61.2785 222.183 61.2785 218.969C61.2785 218.502 61.4723 218.131 61.8832 217.852C62.7535 217.264 63.6723 216.797 64.6894 216.536C66.8332 215.987 68.6926 216.75 69.5176 218.573C69.7785 219.148 69.9832 219.784 70.041 220.409C70.3441 223.631 70.2129 226.856 70.0301 230.078C69.991 230.773 69.6645 231.123 68.9785 231.294L67.366 231.634C67.2363 231.667 67.0473 231.58 67.0379 231.687C67.002 232.133 67.0223 232.816 67.0223 232.816H67.4067L72.316 232.977C73.6613 232.973 75.0082 233.136 76.352 233.17C76.5926 233.175 76.8067 233.211 76.8207 232.933C76.8361 232.501 76.8303 232.069 76.8035 231.637L76.5473 231.592L75.1645 231.281C74.2317 231.061 73.9098 230.706 73.9067 229.762C73.8957 227.436 73.927 225.111 73.9066 222.786C73.8947 221.456 73.8452 220.127 73.7582 218.8C73.7348 218.447 73.7894 218.216 74.0707 218.017C74.8859 217.421 75.803 216.979 76.7769 216.712C79.8004 215.916 82.2754 217.573 82.4316 220.691C82.5848 223.697 82.5207 226.714 82.4973 229.727C82.4895 230.775 82.1426 231.092 81.1098 231.373L80.7535 231.466C79.6957 231.719 79.7051 231.719 79.7676 232.842C79.7879 233.194 79.8848 233.284 80.2598 233.275C82.4145 233.227 84.5692 233.214 86.7238 233.195C87.6051 233.187 88.4863 233.195 89.4457 233.195L89.641 231.733C88.7988 231.509 88.0223 231.344 87.2723 231.098C86.6098 230.873 86.3754 230.473 86.3785 229.773ZM160.58 216.897C161.468 216.073 161.474 214.986 161.225 213.778C160.522 214.514 159.735 214.853 158.836 214.917C157.632 215.003 156.449 214.898 155.327 214.419C152.293 213.116 149.305 213.208 146.327 214.637C143.822 215.837 142.282 217.708 142.127 220.544C142.029 222.361 142.369 224.081 143.582 225.527C144.308 226.392 145.241 226.953 146.293 227.341C146.746 227.508 146.78 227.723 146.4 228.012C146.12 228.224 145.83 228.422 145.53 228.606C144.895 229.005 144.257 229.398 143.614 229.784C143.238 230.012 143.11 230.303 143.233 230.748C143.594 232.058 144.524 232.814 145.686 233.366L146.11 233.661L145.739 234.031C144.6 234.955 143.416 235.827 142.325 236.806C141.41 237.63 141.114 238.733 141.391 239.95C141.949 242.38 143.56 243.883 145.846 244.573C149.841 245.783 153.593 245.089 157.013 242.722C159.041 241.317 160.496 239.489 160.938 236.973C161.433 234.147 159.863 231.694 157.052 231.187C155.193 230.85 153.289 230.753 151.408 230.537C150.53 230.437 149.639 230.378 148.785 230.177C148.058 230.005 147.697 229.412 147.764 228.834C147.832 228.266 148.436 227.736 149.129 227.681C150.522 227.569 151.888 227.352 153.172 226.764C156.575 225.208 158.155 222.483 157.76 218.814C157.708 218.32 157.596 217.833 157.494 217.258C158.583 217.441 159.697 217.717 160.58 216.897ZM150.254 234.111C151.638 234.152 153.213 234.237 154.735 234.683C156.074 235.073 157.175 235.758 157.5 237.253C157.893 239.059 157.024 240.856 155.275 241.822C153.638 242.725 151.86 242.8 150.057 242.614C148.513 242.455 147.124 241.92 146.011 240.78C144.546 239.278 144.538 237.2 146.005 235.703C147.316 234.366 148.018 234.089 150.254 234.111ZM153.718 223.233C152.911 225.812 150.564 226.169 148.725 225.344C147.158 224.642 146.475 223.261 146.118 221.684C145.979 221.078 145.946 220.448 145.864 219.828C145.897 218.939 146.044 218.086 146.427 217.286C147.6 214.822 150.483 214.969 152.079 216.084C152.763 216.562 153.239 217.212 153.538 217.983C154.202 219.66 154.266 221.515 153.718 223.233ZM139.077 231.456C138.519 231.371 137.967 231.248 137.425 231.087C136.475 230.797 136.36 230.619 136.349 229.614C136.321 226.814 136.302 224.014 136.271 221.216C136.255 219.956 136.105 218.714 135.719 217.511C134.703 214.339 131.593 212.636 128.48 213.572C126.755 214.092 125.274 215.059 123.894 216.195L123.391 216.581L123.393 216.064C123.425 215.469 123.489 214.873 123.485 214.278C123.482 213.967 123.363 213.655 123.305 213.381C122.128 213.736 121.074 214.092 119.997 214.364C118.918 214.636 117.816 214.82 116.724 215.042C116.182 215.152 115.783 215.48 115.793 215.853C115.807 216.38 116.243 216.481 116.624 216.639C117.314 216.922 118.004 217.208 118.686 217.511C119.174 217.728 119.372 218.131 119.368 218.655C119.333 222.294 119.311 225.934 119.258 229.575C119.243 230.725 118.952 231.028 117.821 231.281L117.327 231.38C116.28 231.559 116.25 231.602 116.322 232.706L116.329 232.889C116.316 233.314 116.502 233.452 116.939 233.447C119.721 233.414 122.504 233.398 125.285 233.409C126.477 233.414 126.605 233.32 126.58 232.095L126.524 231.569C125.843 231.455 125.191 231.372 124.554 231.231C123.886 231.083 123.647 230.809 123.585 230.131C123.527 229.511 123.508 228.881 123.502 228.256C123.471 225.395 123.446 222.534 123.432 219.675C123.429 218.955 123.561 218.286 124.224 217.822C125.199 217.125 126.348 216.713 127.544 216.631C130.025 216.461 131.911 217.931 132.046 220.405C132.211 223.456 132.161 226.519 132.2 229.577C132.204 229.805 132.163 230.034 132.132 230.261C132.072 230.708 131.854 231.044 131.4 231.159C130.958 231.275 130.51 231.378 130.058 231.447C129.385 231.547 129.371 231.542 129.319 232.222L129.336 232.68C129.416 233.47 129.418 233.447 130.218 233.439C132.908 233.417 135.597 233.403 138.286 233.406C139.411 233.409 139.491 233.356 139.5 232.197L139.497 231.922C139.514 231.625 139.382 231.505 139.077 231.456ZM176.658 213.764C173.838 213.075 171.163 213.587 168.622 214.902C166.153 216.178 164.503 218.152 163.875 220.877C163.241 223.631 163.544 226.319 164.761 228.877C165.554 230.537 166.772 231.822 168.432 232.656C172.316 234.612 177.068 233.725 180.114 231.108C182.519 229.044 183.402 226.295 183.455 222.894C183.422 222.553 183.389 221.897 183.299 221.247C182.788 217.544 180.224 214.636 176.658 213.764ZM178.794 228.069C178.046 231.016 175.497 232.325 172.622 231.312C171.155 230.797 170.058 229.811 169.321 228.478C167.624 225.416 167.297 222.159 168.263 218.819C168.907 216.594 170.738 215.377 172.916 215.53C174.863 215.666 176.36 216.6 177.458 218.184C178.616 219.856 179.063 221.758 179.182 223.755C179.202 224.075 179.185 224.395 179.185 224.717L179.322 224.733C179.15 225.847 179.069 226.983 178.794 228.069ZM105.725 213.716C102.758 213.037 99.9785 213.708 97.4035 215.216C95.1769 216.519 93.7379 218.466 93.1863 221.009C92.6691 223.386 92.8801 225.722 93.7223 227.998C94.2348 229.386 95.0113 230.606 96.1504 231.558C98.5488 233.559 101.352 234.066 104.335 233.508C106.86 233.034 109.079 231.912 110.691 229.814C112.2 227.852 112.775 225.598 112.835 223.156C112.746 222.383 112.724 221.595 112.56 220.841C111.744 217.073 109.541 214.586 105.725 213.716ZM108.146 228.059C107.422 230.991 104.833 232.333 101.979 231.32C100.146 230.669 98.952 229.327 98.1973 227.606C96.9879 224.842 96.741 221.966 97.5238 219.05C98.1238 216.82 99.9316 215.178 102.699 215.572C104.397 215.812 105.722 216.68 106.71 218.059C108.044 219.92 108.483 222.052 108.544 224.291L108.544 224.748L108.657 224.766C108.493 225.866 108.411 226.984 108.146 228.059Z" fill="white"/></svg>