<svg viewBox="16 16 300 300" fill="none" xmlns="http://www.w3.org/2000/svg"><path d="M314 166C314 247.738 247.738 314 166 314C84.2619 314 18 247.738 18 166C18 84.2619 84.2619 18 166 18C247.738 18 314 84.2619 314 166Z" fill="#00618A"/><g fill-rule="evenodd" clip-rule="evenodd"><path d="M166 316C248.843 316 316 248.843 316 166C316 83.1573 248.843 16 166 16C83.1573 16 16 83.1573 16 166C16 248.843 83.1573 316 166 316ZM166 306C243.32 306 306 243.32 306 166C306 88.6801 243.32 26 166 26C88.6801 26 26 88.6801 26 166C26 243.32 88.6801 306 166 306Z" fill="#919191"/><path d="M166 316C248.843 316 316 248.843 316 166C316 83.1573 248.843 16 166 16C83.1573 16 16 83.1573 16 166C16 248.843 83.1573 316 166 316ZM166 306C243.32 306 306 243.32 306 166C306 88.6801 243.32 26 166 26C88.6801 26 26 88.6801 26 166C26 243.32 88.6801 306 166 306Z" fill="#00618A" style="mix-blend-mode:color"/></g><path d="M228.049 205.618C220.006 205.398 213.864 206.147 208.613 208.361C207.121 208.99 204.74 209.008 204.496 210.877C205.317 211.736 205.444 213.02 206.096 214.077C207.35 216.105 209.466 218.826 211.355 220.251C213.42 221.809 215.547 223.475 217.76 224.823C221.695 227.222 226.088 228.593 229.877 230.997C232.11 232.415 234.329 234.2 236.507 235.798C237.585 236.589 238.308 237.818 239.709 238.314L239.709 238.087C238.973 237.149 238.783 235.863 238.108 234.884L235.135 231.911C232.229 228.053 228.538 224.664 224.616 221.85C221.488 219.605 214.489 216.572 213.185 212.934L212.956 212.705C215.173 212.454 217.769 211.653 219.816 211.103C223.254 210.182 226.327 210.42 229.877 209.504L234.678 208.131L234.678 207.217C232.884 205.376 231.604 202.939 229.648 201.272C224.527 196.913 218.94 192.557 213.186 188.924C209.993 186.911 206.05 185.602 202.667 183.895C201.529 183.319 199.53 183.02 198.779 182.064C197.001 179.8 196.034 176.929 194.664 174.291C191.794 168.763 188.976 162.727 186.433 156.911C184.698 152.945 183.565 149.036 181.402 145.478C171.019 128.407 159.844 118.105 142.532 107.978C138.848 105.824 134.412 104.975 129.725 103.861C127.211 103.71 124.695 103.557 122.18 103.403C120.644 102.763 119.048 100.885 117.607 99.973C111.872 96.3496 97.1604 88.4687 92.9136 98.8305C90.2312 105.371 96.9226 111.75 99.3144 115.066C100.995 117.388 103.145 119.996 104.345 122.61C105.135 124.329 105.271 126.053 105.947 127.871C107.608 132.35 109.055 137.222 111.205 141.36C112.292 143.455 113.489 145.661 114.864 147.534C115.705 148.683 117.15 149.189 117.378 150.964C115.967 152.939 115.886 156.007 115.093 158.511C111.518 169.778 112.867 183.784 118.066 192.123C119.659 194.685 123.418 200.175 128.583 198.068C133.102 196.229 132.093 190.524 133.386 185.492C133.677 184.352 133.498 183.512 134.071 182.748L134.071 182.977L138.188 191.208C141.235 196.115 146.64 201.242 151.222 204.701C153.597 206.495 155.467 209.596 158.539 210.646L158.539 210.416H158.31C157.715 209.489 156.783 209.105 156.024 208.36C154.235 206.605 152.245 204.425 150.766 202.415C146.599 196.758 142.917 190.567 139.561 184.123C137.958 181.045 136.565 177.651 135.215 174.518C134.695 173.311 134.702 171.484 133.616 170.86C132.136 173.154 129.958 175.011 128.814 177.72C126.985 182.051 126.749 187.334 126.071 192.811C125.67 192.954 125.848 192.856 125.613 193.039C122.427 192.271 121.309 188.993 120.125 186.18C117.132 179.066 116.575 167.615 119.209 159.427C119.891 157.307 122.971 150.637 121.724 148.679C121.129 146.726 119.165 145.596 118.067 144.105C116.706 142.26 115.349 139.832 114.406 137.702C111.957 132.157 110.813 125.931 108.234 120.325C107 117.645 104.915 114.932 103.203 112.551C101.308 109.911 99.1843 107.966 97.7148 104.775C97.1921 103.641 96.4831 101.825 97.2566 100.659C97.5026 99.8723 97.8519 99.5441 98.6288 99.2875C99.9554 98.2645 103.649 99.6273 105.03 100.2C108.696 101.724 111.757 103.175 114.864 105.232C116.353 106.221 117.863 108.133 119.665 108.662H121.723C124.942 109.402 128.548 108.891 131.556 109.805C136.872 111.42 141.635 113.934 145.961 116.665C159.14 124.988 169.916 136.833 177.288 150.965C178.473 153.241 178.987 155.411 180.031 157.825C182.138 162.692 184.792 167.699 186.889 172.459C188.982 177.208 191.021 182 193.979 185.951C195.534 188.028 201.538 189.142 204.269 190.296C206.181 191.104 209.316 191.948 211.129 193.039C214.59 195.127 217.943 197.613 221.191 199.9C222.811 201.043 227.8 203.552 228.049 205.618ZM125.839 118.499C124.162 118.468 122.976 118.682 121.722 118.955L121.722 119.184H121.95C122.751 120.827 124.163 121.886 125.151 123.3C125.912 124.902 126.675 126.502 127.438 128.102L127.666 127.875C129.082 126.876 129.73 125.281 129.722 122.843C129.155 122.247 129.072 121.499 128.58 120.787C127.928 119.836 126.664 119.296 125.839 118.499Z" fill="white"/><defs></defs></svg>