<svg viewBox="16 16 300 300" fill="none" xmlns="http://www.w3.org/2000/svg"><path d="M314 166C314 247.738 247.738 314 166 314C84.2619 314 18 247.738 18 166C18 84.2619 84.2619 18 166 18C247.738 18 314 84.2619 314 166Z" fill="#4B8CA0"/><g fill-rule="evenodd" clip-rule="evenodd"><path d="M166 316C248.843 316 316 248.843 316 166C316 83.1573 248.843 16 166 16C83.1573 16 16 83.1573 16 166C16 248.843 83.1573 316 166 316ZM166 306C243.32 306 306 243.32 306 166C306 88.6801 243.32 26 166 26C88.6801 26 26 88.6801 26 166C26 243.32 88.6801 306 166 306Z" fill="#919191"/><path d="M166 316C248.843 316 316 248.843 316 166C316 83.1573 248.843 16 166 16C83.1573 16 16 83.1573 16 166C16 248.843 83.1573 316 166 316ZM166 306C243.32 306 306 243.32 306 166C306 88.6801 243.32 26 166 26C88.6801 26 26 88.6801 26 166C26 243.32 88.6801 306 166 306Z" fill="#A0DDF5" style="mix-blend-mode:color"/></g><g clip-path="url(#clip0_3987_4459)"><path fill-rule="evenodd" clip-rule="evenodd" d="M164.709 121.852C194.707 120.14 223.697 138.008 245.375 154.107C253.098 159.842 269.479 170.818 264.443 179.797C257.947 187.29 245.623 183.538 225.28 193.27C198.283 206.186 196.506 213.869 165.451 214.089C133.328 214.316 132.597 205.494 104.137 192.814C81.6728 182.804 69.2323 187.296 66.5728 179.455C62.9492 169.161 77.3987 159.67 85.2979 154.107C121.135 128.871 136.764 121.826 164.709 121.852Z" fill="white" stroke="white" stroke-width="0.139297"/><path d="M165.451 200.692C185.63 200.692 201.988 184.691 201.988 164.954C201.988 145.217 185.63 129.216 165.451 129.216C145.272 129.216 128.914 145.217 128.914 164.954C128.914 184.691 145.272 200.692 165.451 200.692Z" fill="url(#paint0_radial_3987_4459)"/><path opacity="0.3" d="M165.451 198.354C184.179 198.354 199.362 183.554 199.362 165.297C199.362 147.039 184.179 132.239 165.451 132.239C146.722 132.239 131.54 147.039 131.54 165.297C131.54 183.554 146.723 198.354 165.451 198.354Z" stroke="#004C78" stroke-width="1.67157"/><path d="M165.451 200.692C185.63 200.692 201.988 184.691 201.988 164.954C201.988 145.217 185.63 129.216 165.451 129.216C145.272 129.216 128.914 145.217 128.914 164.954C128.914 184.691 145.272 200.692 165.451 200.692Z" stroke="#002040" stroke-width="0.139297"/><path d="M165.505 199.999C185.086 199.999 200.96 184.512 200.96 165.408C200.96 146.304 185.086 130.817 165.504 130.817C145.923 130.817 130.049 146.304 130.049 165.408C130.049 184.512 145.923 199.999 165.505 199.999Z" stroke="#002040" stroke-width="0.139297"/><path d="M165.546 199.136C184.487 199.136 199.842 184.207 199.842 165.792C199.842 147.376 184.487 132.447 165.546 132.447C146.605 132.447 131.251 147.376 131.251 165.792C131.251 184.207 146.605 199.136 165.546 199.136Z" stroke="#002040" stroke-width="0.139297"/><path d="M165.622 182.233C174.692 182.233 182.044 174.872 182.044 165.791C182.044 156.711 174.692 149.35 165.622 149.35C156.552 149.35 149.199 156.711 149.199 165.791C149.2 174.872 156.552 182.233 165.622 182.233Z" stroke="#002040" stroke-width="0.139297"/><path d="M165.47 185.735C176.515 185.735 185.47 176.806 185.47 165.792C185.469 154.777 176.515 145.848 165.47 145.848C154.424 145.848 145.47 154.777 145.47 165.792C145.47 176.806 154.424 185.735 165.47 185.735Z" stroke="#002040" stroke-width="0.139297"/><path d="M165.393 188.931C178.331 188.931 188.819 178.469 188.819 165.563C188.819 152.657 178.331 142.194 165.393 142.194C152.456 142.194 141.968 152.657 141.968 165.563C141.968 178.469 152.456 188.931 165.393 188.931Z" stroke="#002040" stroke-width="0.139297"/><path d="M165.622 191.634C180.325 191.634 192.244 179.953 192.244 165.544C192.244 151.135 180.325 139.454 165.622 139.454C150.918 139.454 138.999 151.135 138.999 165.544C138.999 179.953 150.919 191.634 165.622 191.634Z" stroke="#002040" stroke-width="0.139297"/><path d="M165.451 194.184C181.72 194.184 194.909 181.302 194.909 165.411C194.909 149.52 181.72 136.638 165.451 136.638C149.182 136.638 135.993 149.52 135.993 165.411C135.993 181.302 149.182 194.184 165.451 194.184Z" stroke="#002040" stroke-width="0.139297"/><path d="M165.394 196.125C182.767 196.125 196.85 182.45 196.85 165.582C196.85 148.714 182.766 135.039 165.394 135.039C148.021 135.039 133.938 148.714 133.938 165.582C133.938 182.45 148.021 196.125 165.394 196.125Z" stroke="#002040" stroke-width="0.139297"/><path d="M165.451 197.837C183.738 197.837 198.562 183.371 198.562 165.525C198.562 147.679 183.738 133.213 165.451 133.213C147.164 133.213 132.339 147.679 132.339 165.525C132.339 183.371 147.164 197.837 165.451 197.837Z" stroke="#002040" stroke-width="0.139297"/><path d="M155.648 155.32L141.642 137.736L141.533 137.823L155.539 155.406L155.648 155.32Z" fill="#002040"/><path d="M154.5 156.226L138.21 140.698L138.114 140.799L154.404 156.327L154.5 156.226Z" fill="#002040"/><path d="M156.944 154.028L143.852 135.988L143.739 136.07L156.831 154.11L156.944 154.028Z" fill="#002040"/><path d="M158.62 153.269L145.984 134.544L145.869 134.621L158.504 153.347L158.62 153.269Z" fill="#002040"/><path d="M160.904 152.128L148.573 133.023L148.456 133.098L160.787 152.204L160.904 152.128Z" fill="#002040"/><path d="M154.114 157.592L135.998 143.51L135.912 143.62L154.029 157.701L154.114 157.592Z" fill="#002040"/><path d="M153.346 158.805L133.784 146.854L133.711 146.973L153.274 158.924L153.346 158.805Z" fill="#002040"/><path d="M152.731 160.324L131.874 150.429L131.815 150.554L152.671 160.45L152.731 160.324Z" fill="#002040"/><path d="M152.192 161.691L130.498 153.927L130.451 154.058L152.145 161.823L152.192 161.691Z" fill="#002040"/><path d="M151.651 162.984L129.577 157.807L129.545 157.943L151.619 163.119L151.651 162.984Z" fill="#002040"/><path d="M151.493 164.581L129.038 161.308L129.018 161.445L151.473 164.719L151.493 164.581Z" fill="#002040"/><path d="M151.638 165.95L128.878 165.189L128.873 165.328L151.633 166.089L151.638 165.95Z" fill="#002040"/><path d="M151.707 167.473L129.024 168.919L129.033 169.058L151.716 167.612L151.707 167.473Z" fill="#002040"/><path d="M151.851 168.615L129.777 172.649L129.802 172.786L151.876 168.752L151.851 168.615Z" fill="#002040"/><path d="M152.224 170.064L130.835 176.458L130.875 176.591L152.264 170.197L152.224 170.064Z" fill="#002040"/><path d="M152.98 171.436L132.123 179.809L132.175 179.938L153.032 171.565L152.98 171.436Z" fill="#002040"/><path d="M153.505 172.809L134.019 183.314L134.085 183.436L153.571 172.932L153.505 172.809Z" fill="#002040"/><path d="M154.183 173.803L136.295 186.591L136.376 186.704L154.264 173.917L154.183 173.803Z" fill="#002040"/><path d="M155.244 175.177L138.498 189.259L138.588 189.366L155.334 175.283L155.244 175.177Z" fill="#002040"/><path d="M156.304 176.02L141.385 191.7L141.486 191.796L156.405 176.116L156.304 176.02Z" fill="#002040"/><path d="M157.213 176.939L144.272 194.218L144.384 194.301L157.324 177.023L157.213 176.939Z" fill="#002040"/><path d="M158.502 177.859L147.618 196.051L147.737 196.122L158.622 177.93L158.502 177.859Z" fill="#002040"/><path d="M159.793 178.474L150.963 197.656L151.09 197.714L159.919 178.532L159.793 178.474Z" fill="#002040"/><path d="M161.161 179.09L154.31 199.109L154.442 199.154L161.292 179.135L161.161 179.09Z" fill="#002040"/><path d="M162.757 179.781L157.962 199.8L158.097 199.833L162.893 179.813L162.757 179.781Z" fill="#002040"/><path d="M164.278 180.016L161.538 200.492L161.676 200.511L164.416 180.035L164.278 180.016Z" fill="#002040"/><path d="M165.419 180.254L165.381 200.692L165.521 200.692L165.558 180.254L165.419 180.254Z" fill="#002040"/><path d="M166.714 180.339L169.226 200.434L169.364 200.417L166.852 180.321L166.714 180.339Z" fill="#002040"/><path d="M168.01 180.042L172.957 199.909L173.092 199.876L168.145 180.009L168.01 180.042Z" fill="#002040"/><path d="M169.382 179.136L176.461 198.774L176.592 198.727L169.513 179.088L169.382 179.136Z" fill="#002040"/><path d="M170.678 178.381L179.965 197.715L180.091 197.655L170.804 178.321L170.678 178.381Z" fill="#002040"/><path d="M172.128 177.779L183.394 196.047L183.513 195.974L172.247 177.705L172.128 177.779Z" fill="#002040"/><path d="M173.426 176.947L186.595 194.226L186.705 194.141L173.537 176.863L173.426 176.947Z" fill="#002040"/><path d="M174.801 176.191L189.644 191.872L189.745 191.776L174.902 176.095L174.801 176.191Z" fill="#002040"/><path d="M175.796 175.131L192.237 189.289L192.328 189.183L175.887 175.025L175.796 175.131Z" fill="#002040"/><path d="M176.563 174.07L194.679 186.477L194.758 186.362L176.642 173.955L176.563 174.07Z" fill="#002040"/><path d="M177.786 173.007L196.436 183.36L196.503 183.238L177.854 172.886L177.786 173.007Z" fill="#002040"/><path d="M178.174 171.64L198.345 180.09L198.399 179.961L178.228 171.512L178.174 171.64Z" fill="#002040"/><path d="M178.712 170.197L199.797 176.971L199.84 176.838L178.755 170.064L178.712 170.197Z" fill="#002040"/><path d="M179.102 168.904L200.948 172.863L200.973 172.726L179.127 168.767L179.102 168.904Z" fill="#002040"/><path d="M179.339 167.764L201.718 168.906L201.725 168.767L179.346 167.625L179.339 167.764Z" fill="#002040"/><path d="M179.496 165.785L201.951 165.48L201.949 165.341L179.494 165.646L179.496 165.785Z" fill="#002040"/><path d="M179.427 164.566L201.806 161.75L201.789 161.612L179.41 164.428L179.427 164.566Z" fill="#002040"/><path d="M179.131 163.271L201.281 157.943L201.248 157.807L179.098 163.136L179.131 163.271Z" fill="#002040"/><path d="M179.062 161.899L200.299 154.211L200.251 154.08L179.014 161.768L179.062 161.899Z" fill="#002040"/><path d="M178.307 160.45L198.859 150.554L198.798 150.429L178.246 160.324L178.307 160.45Z" fill="#002040"/><path d="M177.856 158.924L197.266 147.278L197.194 147.159L177.784 158.805L177.856 158.924Z" fill="#002040"/><path d="M176.949 157.855L195.141 144.077L195.057 143.966L176.864 157.744L176.949 157.855Z" fill="#002040"/><path d="M175.888 156.556L192.634 141.18L192.54 141.078L175.794 156.453L175.888 156.556Z" fill="#002040"/><path d="M174.75 155.182L190.202 138.741L190.1 138.645L174.649 155.087L174.75 155.182Z" fill="#002040"/><path d="M173.384 154.341L187.618 136.529L187.509 136.442L173.275 154.254L173.384 154.341Z" fill="#002040"/><path d="M172.551 153.269L184.653 134.468L184.536 134.393L172.433 153.194L172.551 153.269Z" fill="#002040"/><path d="M170.193 152.352L181.23 132.638L181.109 132.57L170.071 152.284L170.193 152.352Z" fill="#002040"/><path d="M168.674 151.357L177.503 131.109L177.376 131.053L168.546 151.301L168.674 151.357Z" fill="#002040"/><path d="M167.002 151.045L173.472 130.188L173.339 130.147L166.869 151.004L167.002 151.045Z" fill="#002040"/><path d="M165.406 150.796L165.33 129.254L165.191 129.255L165.267 150.796L165.406 150.796Z" fill="#002040"/><path d="M164.872 150.859L160.762 129.317L160.625 129.343L164.736 150.885L164.872 150.859Z" fill="#002040"/><path d="M152.41 131.492L162.077 151.435L162.202 151.375L152.535 131.432L152.41 131.492Z" fill="#002040"/><path d="M156.745 130.189L163.367 151.273L163.5 151.232L156.878 130.147L156.745 130.189Z" fill="#002040"/><path d="M166.167 150.958L169.288 129.493L169.15 129.473L166.029 150.938L166.167 150.958Z" fill="#002040"/><path d="M133.709 144.973C134.805 143.313 135.023 141.243 136.333 139.693C137.73 138.038 139.533 135.919 141.265 134.611C143.513 132.912 146.823 131.573 149.443 130.612C151.351 129.913 153.247 129.614 155.252 129.111C159.946 127.933 164.49 127.422 169.409 127.618C173.607 127.785 177.967 128.536 181.738 130.366C183.906 131.418 185.794 132.93 187.713 134.206C189.457 135.366 190.662 136.335 192.017 137.812C193.427 139.35 195.987 142.25 195.875 144.453C187.959 141.834 180.274 139.53 171.89 139.267C163.624 139.007 152.434 139.549 146.44 140.72C142.838 141.423 137.734 143.26 133.595 144.973" fill="white"/><path d="M150.455 197.799C155.86 198.884 161.209 199.47 166.364 199.322C172.32 199.15 175.518 198.674 182.368 197.076C179.18 200.74 177.116 201.339 172.995 202.078C169.603 202.686 166.072 202.012 162.609 202.032C159.764 202.048 156.225 202.361 153.613 201.179C152.317 200.592 152.188 199.721 151.349 198.865" fill="white"/><path opacity="0.6" fill-rule="evenodd" clip-rule="evenodd" d="M164.69 122.099C194.688 120.387 223.697 138.008 245.375 154.107C253.098 159.842 269.479 170.818 264.443 179.797C257.947 187.29 245.623 183.538 225.28 193.27C198.283 206.186 196.506 213.869 165.451 214.089C133.328 214.316 132.597 205.494 104.137 192.814C81.6728 182.804 69.2323 187.296 66.5728 179.455C62.9492 169.161 77.3987 159.67 85.2979 154.107C121.135 128.871 136.745 122.073 164.69 122.099Z" fill="url(#paint1_linear_3987_4459)"/><path opacity="0.4" fill-rule="evenodd" clip-rule="evenodd" d="M164.985 138.681C184.744 137.766 199.63 141.652 239.552 170.321C242.333 172.316 252.105 176.318 250.171 177.285C245.375 179.683 241.1 177.235 230.19 180.254C209.387 186.008 187.288 199.374 165.415 199.314C143.317 199.253 133.78 190.987 99.7986 180.368C92.4912 178.085 82.6719 179.341 80.845 177.628C78.4187 175.353 88.709 172.601 92.1116 170.236C138.159 138.244 145.303 138.663 164.985 138.681Z" fill="url(#paint2_linear_3987_4459)"/><g opacity="0.5" fill="white"><path fill-rule="evenodd" clip-rule="evenodd" d="M176.486 150.118C175.83 146.708 173.078 145.293 170.625 145.662L176.486 150.118Z"/><path d="M180.897 148.935C180.021 144.909 176.354 143.488 172.556 143.962C170.592 144.207 168.183 144.684 166.642 146.038C165.143 147.356 167.968 147.452 168.693 147.361C169.568 147.252 167.889 147.328 168.773 147.351C168.137 147.334 168.93 147.409 169.036 147.433C169.403 147.519 169.799 147.772 170.177 148.03C171.279 148.781 171.8 150.041 172.074 151.3C172.353 152.582 176.185 151.567 176.827 151.395C177.574 151.195 181.184 150.255 180.897 148.935Z"/></g><g opacity="0.58"><path d="M179.495 165.545C179.495 173.576 173.258 180.087 165.563 180.087C157.871 180.087 151.635 173.576 151.635 165.545C151.635 157.512 157.871 151 165.563 151C173.258 151.001 179.495 157.512 179.495 165.545Z" fill="url(#paint3_radial_3987_4459)"/><path d="M165.4 145.848L165.381 185.221L165.521 185.221L165.539 145.848L165.4 145.848Z" fill="white"/><path opacity="0.75" d="M146.688 165.903L184.785 165.827L184.785 165.604L146.688 165.68L146.688 165.903Z" fill="white"/><path opacity="0.76" d="M165.546 172.223C169.004 172.223 171.807 169.293 171.807 165.677C171.807 162.062 169.004 159.131 165.546 159.131C162.088 159.131 159.285 162.062 159.285 165.677C159.285 169.293 162.088 172.223 165.546 172.223Z" stroke="white" stroke-width="0.222875"/><path opacity="0.79" d="M165.508 179.797C173.17 179.797 179.381 173.441 179.381 165.601C179.381 157.761 173.17 151.405 165.508 151.405C157.846 151.405 151.635 157.761 151.635 165.601C151.635 173.441 157.846 179.797 165.508 179.797Z" stroke="white" stroke-width="0.222875"/><path d="M165.413 167.733C166.632 167.733 167.62 166.779 167.62 165.602C167.62 164.425 166.632 163.471 165.413 163.471C164.193 163.471 163.205 164.425 163.205 165.602C163.205 166.779 164.193 167.733 165.413 167.733Z" fill="white" stroke="white" stroke-width="0.139297"/></g><path opacity="0.8" fill-rule="evenodd" clip-rule="evenodd" d="M164.709 121.852C194.707 120.14 223.697 138.008 245.375 154.107C253.098 159.842 269.479 170.818 264.443 179.797C257.947 187.29 245.623 183.538 225.28 193.27C198.283 206.186 196.506 213.869 165.451 214.089C133.328 214.316 132.597 205.494 104.137 192.814C81.6728 182.804 69.2323 187.296 66.5728 179.455C62.9492 169.161 77.3987 159.67 85.2979 154.107C121.135 128.871 136.764 121.826 164.709 121.852Z" stroke="#004C78" stroke-width="0.139297"/><path opacity="0.8" fill-rule="evenodd" clip-rule="evenodd" d="M164.309 123.85C192.929 122.227 220.69 139.016 241.373 154.269C248.74 159.701 265.936 170.263 261.132 178.77C254.933 185.867 241.833 182.681 222.426 191.9C196.667 204.138 194.736 211.331 165.108 211.539C134.461 211.755 133.345 203.344 106.193 191.329C84.7601 181.846 72.4748 185.453 69.7697 178.085C66.4586 169.064 81.1105 159.539 88.6474 154.269C122.838 130.36 137.648 123.825 164.309 123.85Z" stroke="#004C78" stroke-width="0.139297"/><path opacity="0.8" fill-rule="evenodd" clip-rule="evenodd" d="M164.651 124.878C192.452 123.279 219.336 139.269 239.426 154.296C246.582 159.647 265.673 171.692 259.077 178.655C252.911 185.164 239.873 182.285 221.021 191.368C196.001 203.425 194.125 210.054 165.346 210.259C135.577 210.472 134.493 202.643 108.119 190.806C87.3 181.463 74.4525 185.001 71.8249 177.742C68.6087 168.856 83.7555 159.487 91.0763 154.296C124.287 130.741 138.754 124.853 164.651 124.878Z" stroke="#004C78" stroke-width="0.139297"/><path opacity="0.8" fill-rule="evenodd" clip-rule="evenodd" d="M164.584 122.872C194.057 121.199 222.273 138.537 243.571 154.268C251.158 159.871 267.535 170.476 262.589 179.25C256.205 186.572 244.234 183.337 224.112 192.415C197.337 204.495 195.842 212.543 165.331 212.757C133.771 212.979 132.682 204.117 105.093 191.969C83.2413 182.348 70.8191 185.864 68.1868 178.915C64.5772 169.386 78.57 160.235 86.762 154.384C120.47 130.311 137.129 122.846 164.584 122.872Z" stroke="#004C78" stroke-width="0.139297"/><path opacity="0.7" fill-rule="evenodd" clip-rule="evenodd" d="M164.88 136.923C186.406 136.914 201.417 139.949 245.613 171.943C248.618 174.119 256.222 177.171 254.51 178.77C249.421 183.52 247.463 178.863 235.634 182.135C213.081 188.374 189.114 203.192 165.4 203.126C141.442 203.06 132.282 193.998 95.4598 182.423C90.452 180.849 79.1002 182.388 76.7346 178.884C74.7168 175.895 82.2379 174.164 85.9268 171.601C135.85 136.917 143.542 136.933 164.88 136.923Z" stroke="#004C78" stroke-width="0.0835783"/><path opacity="0.7" fill-rule="evenodd" clip-rule="evenodd" d="M164.823 137.494C185.822 137.457 201.588 140.463 244.012 171.68C246.941 173.835 254.646 176.876 253.596 178.427C250.97 182.309 245.189 178.799 234.528 181.852C212.606 188.132 188.629 202.062 165.404 202.239C142.043 202.417 132.345 193.424 96.259 182.081C91.3513 180.538 80.0457 181.852 77.648 178.998C75.3747 176.292 83.905 173.856 87.5201 171.344C136.445 137.354 144.147 137.531 164.823 137.494Z" stroke="#004C78" stroke-width="0.0835783"/><path opacity="0.7" fill-rule="evenodd" clip-rule="evenodd" d="M164.937 138.037C185.353 138.041 201.246 140.748 242.444 171.418C245.303 173.546 253.368 176.943 252.34 178.313C250.046 181.372 243.243 178.729 233.044 181.51C211.693 187.333 188.183 201.429 165.408 201.365C142.399 201.302 132.651 192.854 97.2866 181.738C92.4771 180.227 81.0733 181.167 78.6756 178.884C76.1677 176.495 85.5387 173.551 89.0816 171.089C137.028 137.778 144.444 138.032 164.937 138.037Z" stroke="#004C78" stroke-width="0.0835783"/><path opacity="0.7" fill-rule="evenodd" clip-rule="evenodd" d="M164.965 138.608C185.254 138.553 199.875 140.92 240.907 171.27C243.715 173.347 253.102 177.084 251.198 178.199C246.517 180.939 242.857 178.191 231.674 181.167C210.367 186.839 187.731 200.681 165.412 200.619C142.863 200.556 132.628 192.175 97.9716 181.282C93.2582 179.8 82.5576 180.711 79.8173 178.541C77.1567 176.435 87.1399 173.36 90.6118 170.948C137.599 138.303 144.882 138.662 164.965 138.608Z" stroke="#004C78" stroke-width="0.0835783"/><path opacity="0.7" fill-rule="evenodd" clip-rule="evenodd" d="M165.008 139.136C184.771 139.034 199.876 141.833 239.552 171.006C242.31 173.033 252.105 177.003 250.171 177.97C245.376 180.368 241.1 177.92 230.19 180.939C209.387 186.693 187.288 200.059 165.415 199.999C143.317 199.938 133.78 191.672 99.7986 181.053C92.4912 178.77 82.5673 180.131 80.8451 178.313C78.7898 176.144 88.7091 173.286 92.1116 170.921C138.159 138.929 145.327 139.237 165.008 139.136Z" stroke="#004C78" stroke-width="0.0835783"/><path opacity="0.8" d="M195.787 193.673C198.053 195.002 200.007 196.279 201.144 198.114C202.277 199.944 202.603 202.34 201.578 205.925L201.712 205.963C202.743 202.354 202.422 199.914 201.262 198.04C200.105 196.172 198.121 194.88 195.858 193.553L195.787 193.673Z" fill="#004C78"/><path opacity="0.8" d="M207.077 203.227C208.113 200.235 207.469 197.274 206.171 195.062C205.522 193.956 204.709 193.035 203.857 192.391C203.006 191.747 202.112 191.374 201.303 191.374L201.303 191.513C202.071 191.513 202.936 191.868 203.773 192.502C204.609 193.134 205.41 194.041 206.051 195.133C207.333 197.317 207.965 200.235 206.946 203.181L207.077 203.227Z" fill="#004C78"/><path opacity="0.8" d="M212.1 200.262C213.196 197.665 212.473 195.043 211.152 192.99C210.492 191.963 209.68 191.077 208.869 190.403C208.058 189.731 207.243 189.267 206.573 189.093L206.537 189.227C207.18 189.395 207.978 189.845 208.78 190.511C209.581 191.175 210.382 192.051 211.035 193.065C212.341 195.095 213.044 197.668 211.971 200.208L212.1 200.262Z" fill="#004C78"/><path opacity="0.8" d="M217.47 197.282C218.103 194.519 217.325 192.187 216.103 190.447C214.882 188.71 213.215 187.558 212.058 187.153L212.012 187.285C213.139 187.679 214.783 188.811 215.989 190.527C217.193 192.241 217.957 194.534 217.334 197.251L217.47 197.282Z" fill="#004C78"/><path opacity="0.8" d="M222.38 194.654C223.416 189.356 219.615 186.017 216.851 185.211L216.812 185.345C219.528 186.137 223.262 189.42 222.243 194.627L222.38 194.654Z" fill="#004C78"/><path opacity="0.8" d="M226.833 192.368C227.75 186.637 225.23 183.509 222.784 182.927L222.752 183.062C225.102 183.622 227.605 186.659 226.696 192.346L226.833 192.368Z" fill="#004C78"/><path opacity="0.8" d="M230.595 190.788C231.916 187.974 231.775 185.728 231.139 184.097C230.505 182.468 229.381 181.457 228.739 181.106L228.672 181.229C229.286 181.563 230.388 182.55 231.01 184.147C231.63 185.741 231.775 187.948 230.469 190.729L230.595 190.788Z" fill="#004C78"/><path opacity="0.8" d="M234.59 189.422C236.364 186.16 236.657 183.887 236.323 182.38C235.99 180.872 235.029 180.136 234.317 179.958L234.283 180.093C234.941 180.258 235.864 180.949 236.187 182.41C236.511 183.871 236.233 186.109 234.467 189.355L234.59 189.422Z" fill="#004C78"/><path opacity="0.8" d="M239.954 179.27C241.649 181.416 241.574 183.645 241.027 185.342C240.753 186.191 240.361 186.906 240.015 187.408C239.842 187.659 239.681 187.856 239.552 187.989C239.488 188.055 239.433 188.105 239.39 188.137C239.368 188.153 239.351 188.164 239.338 188.171C239.324 188.178 239.32 188.177 239.324 188.177L239.324 188.316C239.352 188.316 239.378 188.306 239.4 188.295C239.423 188.284 239.448 188.268 239.473 188.249C239.525 188.21 239.586 188.155 239.653 188.085C239.788 187.946 239.953 187.743 240.13 187.487C240.483 186.975 240.881 186.249 241.159 185.385C241.717 183.656 241.794 181.376 240.064 179.183L239.954 179.27Z" fill="#004C78"/><path opacity="0.8" d="M244.752 179.158C246.446 181.078 246.432 182.964 245.989 184.372C245.767 185.078 245.438 185.664 245.159 186.074C245.02 186.279 244.894 186.439 244.801 186.548C244.755 186.602 244.717 186.643 244.69 186.67C244.677 186.684 244.667 186.693 244.66 186.699C244.657 186.702 244.656 186.703 244.656 186.702C244.656 186.702 244.658 186.701 244.661 186.699C244.662 186.699 244.674 186.693 244.69 186.693L244.69 186.832C244.708 186.832 244.722 186.825 244.724 186.824C244.729 186.821 244.733 186.818 244.736 186.817C244.741 186.813 244.747 186.808 244.752 186.804C244.762 186.795 244.775 186.783 244.789 186.768C244.819 186.738 244.859 186.694 244.907 186.638C245.003 186.525 245.132 186.361 245.274 186.152C245.558 185.734 245.895 185.136 246.122 184.414C246.577 182.967 246.588 181.029 244.857 179.066L244.752 179.158Z" fill="#004C78"/><path opacity="0.8" d="M248.856 178.578C250.099 180.613 250.01 182.447 249.557 183.771C249.33 184.434 249.013 184.97 248.725 185.339C248.581 185.523 248.446 185.665 248.335 185.76C248.279 185.807 248.23 185.842 248.191 185.864C248.149 185.888 248.125 185.893 248.116 185.893L248.116 186.033C248.162 186.033 248.212 186.012 248.259 185.986C248.309 185.957 248.365 185.917 248.425 185.866C248.545 185.763 248.687 185.614 248.835 185.424C249.131 185.044 249.457 184.495 249.689 183.816C250.153 182.457 250.242 180.58 248.974 178.505L248.856 178.578Z" fill="#004C78"/><path opacity="0.8" d="M250.142 178.034C253.886 179.736 255.123 182.907 255.011 184.588L255.15 184.597C255.266 182.853 253.992 179.631 250.2 177.907L250.142 178.034Z" fill="#004C78"/><path opacity="0.8" d="M250.33 177.4C250.33 177.424 250.339 177.442 250.348 177.454C250.357 177.466 250.368 177.475 250.378 177.482C250.397 177.496 250.422 177.509 250.45 177.521C250.505 177.544 250.586 177.57 250.687 177.597C250.89 177.65 251.187 177.711 251.567 177.775C252.328 177.901 253.425 178.036 254.776 178.135C257.477 178.332 261.192 178.383 265.25 177.926L265.235 177.787C261.186 178.243 257.48 178.192 254.786 177.996C253.439 177.897 252.346 177.763 251.59 177.637C251.212 177.574 250.919 177.514 250.722 177.462C250.623 177.436 250.551 177.412 250.504 177.392C250.48 177.382 250.467 177.374 250.46 177.37C250.456 177.367 250.457 177.367 250.46 177.37C250.462 177.373 250.469 177.384 250.469 177.4H250.33Z" fill="#004C78"/><path opacity="0.8" d="M263.702 170.851C262.97 171.864 261.335 173.142 258.863 174.167C256.393 175.191 253.091 175.96 249.029 175.96L249.029 176.099C253.109 176.099 256.429 175.327 258.917 174.296C261.403 173.265 263.062 171.974 263.814 170.932L263.702 170.851Z" fill="#004C78"/><path opacity="0.8" d="M258.55 164.726C258.55 167.47 257.002 169.306 254.757 170.789C252.507 172.275 249.578 173.394 246.83 174.711L246.89 174.836C249.622 173.527 252.573 172.399 254.833 170.906C257.098 169.41 258.69 167.536 258.69 164.726H258.55Z" fill="#004C78"/><path opacity="0.8" d="M253.184 159.816C253.184 167.406 247.177 170.254 242.942 172.773L243.013 172.892C247.227 170.387 253.323 167.5 253.323 159.816H253.184Z" fill="#004C78"/><path opacity="0.8" d="M247.475 155.82C247.475 163.734 242.594 167.41 238.486 170.149L238.563 170.264C242.676 167.522 247.614 163.81 247.614 155.82H247.475Z" fill="#004C78"/><path opacity="0.8" d="M242.565 152.052C242.565 156.077 241.456 159.06 239.767 161.363C238.077 163.667 235.803 165.295 233.467 166.606L233.535 166.728C235.88 165.412 238.173 163.772 239.88 161.445C241.587 159.117 242.705 156.105 242.705 152.052H242.565Z" fill="#004C78"/><path opacity="0.8" d="M237.541 148.513C237.541 152.537 236.433 155.406 234.758 157.652C233.082 159.9 230.835 161.529 228.552 163.07L228.63 163.185C230.914 161.644 233.178 160.004 234.87 157.735C236.563 155.464 237.681 152.566 237.681 148.513H237.541Z" fill="#004C78"/><path opacity="0.8" d="M231.604 144.516C231.604 148.926 230.835 152.255 229.556 154.806C228.278 157.357 226.489 159.135 224.443 160.443L224.518 160.56C226.583 159.241 228.39 157.445 229.681 154.869C230.971 152.293 231.744 148.942 231.744 144.516H231.604Z" fill="#004C78"/><path opacity="0.8" d="M225.668 140.648C227.488 149.862 222.37 155.661 220.211 157.479L220.301 157.586C222.481 155.75 227.639 149.904 225.805 140.621L225.668 140.648Z" fill="#004C78"/><path opacity="0.8" d="M219.052 136.783C220.868 140.472 220.472 143.99 219.32 147.032C218.168 150.077 216.262 152.638 215.061 154.411L215.176 154.489C216.372 152.722 218.291 150.145 219.451 147.081C220.611 144.015 221.015 140.454 219.177 136.721L219.052 136.783Z" fill="#004C78"/><path opacity="0.8" d="M214.251 134.486C216.642 143.82 212.201 149.725 209.488 151.307L209.559 151.427C212.327 149.812 216.792 143.843 214.386 134.451L214.251 134.486Z" fill="#004C78"/><path opacity="0.8" d="M208.201 131.407C209.623 135.844 209.196 139.367 208.103 142.136C207.009 144.907 205.247 146.925 203.991 148.352L204.095 148.445C205.351 147.017 207.129 144.983 208.232 142.187C209.337 139.389 209.766 135.833 208.334 131.365L208.201 131.407Z" fill="#004C78"/><path opacity="0.8" d="M203.176 129.234C204.085 132.7 203.66 136.368 202.65 139.399C202.145 140.914 201.494 142.268 200.793 143.357C200.091 144.446 199.341 145.264 198.639 145.714L198.714 145.831C199.439 145.367 200.202 144.53 200.91 143.432C201.618 142.333 202.273 140.968 202.782 139.443C203.798 136.394 204.229 132.698 203.311 129.199L203.176 129.234Z" fill="#004C78"/><path opacity="0.8" d="M127.361 128.712C126.636 133.672 127.399 137.681 128.545 140.593C129.689 143.503 131.218 145.324 132.032 145.905L132.113 145.792C131.329 145.231 129.813 143.437 128.674 140.542C127.537 137.651 126.777 133.667 127.498 128.732L127.361 128.712Z" fill="#004C78"/><path opacity="0.8" d="M122.643 130.835C119.969 140.689 125.545 147.488 126.695 148.638L126.794 148.54C125.66 147.406 120.123 140.656 122.777 130.872L122.643 130.835Z" fill="#004C78"/><path opacity="0.8" d="M117.163 133.496C114.03 143.202 119.915 150.003 121.52 151.532L121.616 151.431C120.025 149.915 114.188 143.167 117.296 133.538L117.163 133.496Z" fill="#004C78"/><path opacity="0.8" d="M111.225 136.85C109.009 146.095 114.433 153.122 116.19 154.955L116.29 154.858C114.546 153.038 109.161 146.058 111.36 136.883L111.225 136.85Z" fill="#004C78"/><path opacity="0.8" d="M105.209 140.592C104.904 145.209 105.877 149.274 107.194 152.346C107.852 153.882 108.597 155.171 109.311 156.158C110.025 157.144 110.712 157.833 111.256 158.163L111.328 158.044C110.807 157.728 110.133 157.056 109.424 156.076C108.716 155.099 107.977 153.819 107.322 152.291C106.013 149.236 105.045 145.194 105.348 140.601L105.209 140.592Z" fill="#004C78"/><path opacity="0.8" d="M99.1211 144.465C98.3175 148.483 99.5044 152.268 101.242 155.208C102.111 156.679 103.118 157.939 104.085 158.914C105.052 159.887 105.981 160.579 106.696 160.907L106.754 160.781C106.061 160.462 105.145 159.783 104.184 158.816C103.225 157.849 102.225 156.598 101.362 155.138C99.6357 152.217 98.4628 148.466 99.2577 144.492L99.1211 144.465Z" fill="#004C78"/><path opacity="0.8" d="M93.4115 148.351C92.8757 152.447 94.3117 155.795 96.328 158.347C98.3433 160.897 100.94 162.653 102.735 163.57L102.799 163.446C101.016 162.536 98.4372 160.791 96.4373 158.26C94.4383 155.731 93.0198 152.419 93.5496 148.369L93.4115 148.351Z" fill="#004C78"/><path opacity="0.8" d="M88.235 151.862C88.2351 160.143 93.8913 165.239 97.9461 166.846L97.9974 166.716C93.9834 165.126 88.3744 160.074 88.3743 151.862H88.235Z" fill="#004C78"/><path opacity="0.8" d="M83.2872 155.587C83.0195 159.641 84.4542 163.026 86.4419 165.549C88.4286 168.071 90.9708 169.735 92.9268 170.349L92.9685 170.216C91.0425 169.612 88.5229 167.965 86.5514 165.463C84.581 162.962 83.1612 159.61 83.4262 155.596L83.2872 155.587Z" fill="#004C78"/><path opacity="0.8" d="M78.6441 158.631C78.0318 167.126 84.62 170.803 87.7296 173.154L87.8136 173.043C84.6817 170.675 78.1773 167.045 78.783 158.641L78.6441 158.631Z" fill="#004C78"/><path opacity="0.8" d="M72.0217 164.498C72.0217 167.349 73.6793 169.347 75.9913 170.913C78.301 172.477 81.2785 173.621 83.9384 174.761L83.9933 174.633C81.3247 173.49 78.3649 172.352 76.0695 170.798C73.7763 169.244 72.161 167.284 72.161 164.498H72.0217Z" fill="#004C78"/><path opacity="0.8" d="M66.9216 171.12C66.9216 171.824 67.3355 172.441 68.0644 172.977C68.7931 173.513 69.8459 173.977 71.1479 174.375C73.7526 175.173 77.3741 175.718 81.4481 176.061L81.4598 175.922C77.3889 175.58 73.7791 175.036 71.1887 174.242C69.893 173.845 68.8573 173.387 68.1469 172.865C67.4367 172.342 67.0609 171.762 67.0609 171.12H66.9216Z" fill="#004C78"/><path opacity="0.8" d="M66.0017 177.742C65.9897 177.811 65.9898 177.811 65.9898 177.811C65.9899 177.811 65.99 177.811 65.9901 177.811C65.9903 177.811 65.9906 177.811 65.991 177.811C65.9919 177.811 65.9931 177.811 65.9947 177.812C65.998 177.812 66.0028 177.813 66.0092 177.814C66.0219 177.816 66.0409 177.819 66.066 177.823C66.1162 177.832 66.1907 177.843 66.2882 177.858C66.4832 177.887 66.7705 177.927 67.1399 177.972C67.8786 178.061 68.9458 178.168 70.2606 178.24C72.8899 178.383 76.5103 178.383 80.4741 177.811L80.4542 177.673C76.5018 178.243 72.891 178.243 70.2682 178.101C68.9568 178.03 67.8927 177.923 67.1566 177.834C66.7886 177.789 66.5026 177.749 66.3087 177.72C66.2118 177.706 66.1379 177.694 66.0883 177.686C66.0635 177.682 66.0448 177.679 66.0323 177.677C66.026 177.676 66.0214 177.675 66.0182 177.674C66.0167 177.674 66.0155 177.674 66.0148 177.674C66.0144 177.674 66.0141 177.674 66.0139 177.674C66.0138 177.674 66.0138 177.674 66.0137 177.674C66.0137 177.674 66.0137 177.674 66.0017 177.742Z" fill="#004C78"/><path opacity="0.8" d="M75.5863 184.821C75.5863 181.263 78.2962 178.947 80.8598 178.381L80.8298 178.245C78.2175 178.821 75.447 181.184 75.447 184.821H75.5863Z" fill="#004C78"/><path opacity="0.8" d="M81.9254 178.775C80.8488 180.774 80.9865 182.698 81.4782 184.121C81.724 184.832 82.0585 185.419 82.3755 185.829C82.5339 186.035 82.6891 186.197 82.8279 186.309C82.8973 186.365 82.9638 186.409 83.0257 186.44C83.0869 186.47 83.1478 186.489 83.2046 186.489L83.2046 186.35C83.1773 186.35 83.1384 186.34 83.0875 186.315C83.0373 186.29 82.9794 186.252 82.9153 186.201C82.7873 186.097 82.6396 185.944 82.4858 185.744C82.1783 185.346 81.8509 184.772 81.6099 184.075C81.1282 182.682 80.9934 180.799 82.0481 178.841L81.9254 178.775Z" fill="#004C78"/><path opacity="0.8" d="M85.8116 179.301C84.3893 181.338 84.4314 183.264 84.8573 184.679C85.07 185.386 85.3783 185.966 85.6471 186.369C85.7815 186.571 85.9066 186.729 86.0056 186.838C86.055 186.892 86.0989 186.935 86.135 186.965C86.153 186.98 86.1704 186.993 86.1866 187.002C86.1998 187.01 86.223 187.022 86.2494 187.022L86.2494 186.883C86.2627 186.883 86.2673 186.888 86.2571 186.882C86.2498 186.878 86.2388 186.87 86.224 186.858C86.1946 186.833 86.1555 186.796 86.1086 186.744C86.0151 186.641 85.8943 186.489 85.7631 186.292C85.5007 185.898 85.1989 185.331 84.9907 184.639C84.5749 183.257 84.5318 181.377 85.9259 179.38L85.8116 179.301Z" fill="#004C78"/><path opacity="0.8" d="M90.7592 179.453C89.1461 181.796 89.2569 184.009 89.8419 185.634C90.134 186.446 90.5443 187.112 90.9169 187.575C91.1032 187.807 91.2809 187.989 91.4308 188.114C91.5057 188.177 91.5749 188.226 91.6358 188.26C91.6944 188.293 91.7536 188.316 91.8061 188.316L91.8061 188.177C91.7902 188.177 91.7569 188.168 91.7037 188.138C91.6527 188.11 91.5908 188.066 91.5201 188.007C91.3788 187.889 91.2074 187.714 91.0255 187.488C90.6618 187.036 90.2595 186.383 89.973 185.587C89.4007 183.997 89.2901 181.833 90.874 179.532L90.7592 179.453Z" fill="#004C78"/><path opacity="0.8" d="M95.8573 180.065C94.3227 182.52 94.3655 184.901 94.8185 186.665C95.045 187.547 95.3739 188.276 95.6599 188.785C95.8029 189.039 95.9355 189.239 96.0399 189.377C96.092 189.445 96.1379 189.499 96.1752 189.537C96.1937 189.556 96.2115 189.572 96.228 189.584C96.2362 189.59 96.2455 189.596 96.2554 189.6C96.2645 189.604 96.2793 189.61 96.297 189.61L96.297 189.471C96.3031 189.471 96.3076 189.472 96.3101 189.472C96.3127 189.473 96.3142 189.474 96.3146 189.474C96.3151 189.474 96.3135 189.474 96.3096 189.471C96.3017 189.465 96.2899 189.455 96.2741 189.439C96.2427 189.407 96.2009 189.358 96.1508 189.293C96.051 189.161 95.9218 188.967 95.7813 188.717C95.5005 188.217 95.1765 187.499 94.9535 186.631C94.5076 184.894 94.4654 182.555 95.9754 180.139L95.8573 180.065Z" fill="#004C78"/><path opacity="0.8" d="M100.699 191.338C99.3746 188.462 99.5115 186.045 100.06 184.348C100.334 183.499 100.711 182.831 101.06 182.376C101.235 182.148 101.401 181.975 101.543 181.86C101.614 181.802 101.677 181.76 101.731 181.732C101.787 181.704 101.827 181.694 101.854 181.694L101.854 181.555C101.796 181.555 101.733 181.575 101.668 181.608C101.603 181.641 101.531 181.69 101.455 181.752C101.303 181.875 101.129 182.057 100.95 182.291C100.591 182.759 100.206 183.441 99.9271 184.305C99.3685 186.034 99.233 188.488 100.573 191.396L100.699 191.338Z" fill="#004C78"/><path opacity="0.8" d="M104.962 193.089C103.715 190.369 104.02 187.974 104.822 186.259C105.223 185.401 105.748 184.714 106.265 184.242C106.785 183.768 107.286 183.521 107.639 183.521L107.639 183.382C107.233 183.382 106.699 183.658 106.171 184.14C105.64 184.624 105.104 185.326 104.695 186.2C103.878 187.949 103.57 190.387 104.835 193.147L104.962 193.089Z" fill="#004C78"/><path opacity="0.8" d="M108.622 194.869C108.622 192.292 109.247 190.078 110.192 188.453C111.137 186.827 112.398 185.798 113.664 185.575L113.64 185.438C112.318 185.671 111.029 186.737 110.071 188.383C109.113 190.032 108.482 192.271 108.482 194.869H108.622Z" fill="#004C78"/><path opacity="0.8" d="M113.644 197.368C112.586 191.698 116.442 188.155 118.843 187.63L118.813 187.493C116.342 188.034 112.435 191.646 113.507 197.394L113.644 197.368Z" fill="#004C78"/><path opacity="0.8" d="M118.516 199.881C117.986 196.702 118.725 194.342 119.913 192.664C121.102 190.984 122.745 189.983 124.027 189.53L123.981 189.399C122.676 189.86 121.007 190.876 119.799 192.583C118.589 194.292 117.843 196.69 118.379 199.904L118.516 199.881Z" fill="#004C78"/><path opacity="0.8" d="M123.465 202.704C123.01 196.337 126.724 192.34 129.651 191.74L129.623 191.604C126.613 192.221 122.867 196.294 123.326 202.714L123.465 202.704Z" fill="#004C78"/><path opacity="0.8" d="M128.336 205.439C127.2 198.248 131.891 194.473 134.98 193.795L134.95 193.659C131.798 194.351 127.05 198.188 128.198 205.46L128.336 205.439Z" fill="#004C78"/><path opacity="0.5" fill-rule="evenodd" clip-rule="evenodd" d="M241.395 173.385C242.224 173.959 243.022 174.281 243.921 174.769C244.649 175.165 245.39 175.536 246.12 175.927C246.69 176.231 247.745 176.871 247.105 177.619C246.69 178.106 245.684 178.03 245.095 178.112C244.161 178.242 243.012 178.193 242.08 178.112C240.94 178.013 239.747 178.283 238.586 178.283C237.748 178.283 236.904 178.32 236.075 178.317C235.776 178.316 235.399 178.386 235.195 178.122C234.983 177.849 235.132 177.546 235.298 177.318C235.496 177.047 235.684 176.685 235.923 176.474C236.138 176.285 236.419 176.154 236.634 175.988C237.157 175.585 237.339 175.158 236.876 174.637C236.414 174.118 236.075 173.751 236.052 173.016C236.022 172.078 236.618 171.885 237.416 171.68C238.611 171.374 238.511 171.579 239.511 172.152C239.991 172.426 241.169 173.227 241.395 173.385Z" fill="url(#paint4_linear_3987_4459)" stroke="#004C78" stroke-width="0.139297"/><g opacity="0.5"><path d="M239.114 175.726C238.973 176.644 240.079 176.683 240.734 176.683C241.034 176.683 241.354 176.616 241.608 176.449C241.796 176.324 241.777 176.157 241.53 176.157C241.092 176.157 240.232 176.182 240.334 175.516C240.384 175.191 239.161 175.416 239.114 175.726Z" fill="#262261"/></g><path opacity="0.5" fill-rule="evenodd" clip-rule="evenodd" d="M241.171 174.004C241.775 174.423 242.356 174.657 243.012 175.012C243.542 175.301 244.082 175.572 244.615 175.856C245.03 176.078 245.799 176.545 245.333 177.091C245.03 177.446 244.297 177.39 243.867 177.449C243.187 177.544 242.349 177.508 241.67 177.449C240.838 177.378 239.969 177.575 239.123 177.575C238.512 177.575 237.896 177.601 237.291 177.599C237.074 177.599 236.799 177.65 236.65 177.458C236.496 177.259 236.604 177.037 236.725 176.871C236.87 176.674 237.007 176.41 237.182 176.255C237.338 176.118 237.543 176.023 237.699 175.902C238.081 175.608 238.214 175.296 237.876 174.917C237.539 174.538 237.292 174.27 237.274 173.735C237.253 173.051 237.687 172.911 238.27 172.761C239.141 172.538 239.067 172.688 239.797 173.105C240.147 173.305 241.005 173.889 241.171 174.004Z" stroke="#1B75BC" stroke-width="0.0557188"/><path opacity="0.5" fill-rule="evenodd" clip-rule="evenodd" d="M240.892 174.678C241.288 174.952 241.67 175.106 242.101 175.339C242.448 175.529 242.803 175.706 243.153 175.893C243.425 176.038 243.929 176.345 243.624 176.703C243.425 176.936 242.944 176.899 242.662 176.938C242.215 177.001 241.666 176.977 241.221 176.938C240.675 176.891 240.104 177.02 239.549 177.02C239.148 177.02 238.744 177.037 238.347 177.036C238.205 177.036 238.024 177.069 237.927 176.943C237.825 176.813 237.897 176.667 237.975 176.558C238.071 176.429 238.161 176.256 238.275 176.154C238.378 176.064 238.512 176.002 238.615 175.922C238.865 175.73 238.952 175.525 238.73 175.276C238.51 175.028 238.347 174.852 238.336 174.501C238.322 174.052 238.607 173.96 238.989 173.862C239.56 173.716 239.512 173.813 239.991 174.087C240.222 174.219 240.784 174.602 240.892 174.678Z" stroke="#1B75BC" stroke-width="0.0557188"/><path opacity="0.5" fill-rule="evenodd" clip-rule="evenodd" d="M88.8026 173.761C87.9592 174.313 87.1526 174.614 86.2418 175.078C85.5039 175.455 84.753 175.806 84.0127 176.178C83.4353 176.467 82.364 177.079 82.984 177.844C83.3863 178.342 84.3936 178.292 84.981 178.389C85.9111 178.544 87.061 178.524 87.994 178.469C89.1371 178.399 90.3222 178.701 91.4827 178.731C92.3205 178.754 93.1635 178.812 93.9924 178.831C94.291 178.838 94.6656 178.917 94.8768 178.659C95.096 178.392 94.9551 178.084 94.7952 177.853C94.6036 177.577 94.4257 177.21 94.192 176.992C93.9823 176.797 93.7052 176.66 93.4944 176.488C92.9815 176.071 92.8107 175.639 93.2881 175.131C93.7629 174.624 94.1112 174.266 94.1543 173.532C94.2087 172.595 93.6465 172.23 92.8251 172.161C91.7679 172.071 91.8091 172.288 90.7595 172.68C90.2419 172.873 89.0334 173.609 88.8026 173.761Z" fill="url(#paint5_linear_3987_4459)" stroke="#004C78" stroke-width="0.139297"/><g opacity="0.5"><path d="M89.7977 176.205C89.8131 176.327 89.8097 176.422 89.758 176.534C89.7596 176.53 89.7058 176.599 89.7326 176.578C89.7825 176.54 89.8657 176.53 89.9248 176.518C89.7689 176.551 89.6188 176.545 89.3842 176.539C89.0881 176.532 88.76 176.608 88.5107 176.773C88.3178 176.901 88.3455 177.058 88.589 177.065C89.3534 177.084 91.1779 177.019 91.0327 175.874C90.999 175.608 89.7542 175.864 89.7977 176.205Z" fill="#262261"/></g><path opacity="0.5" fill-rule="evenodd" clip-rule="evenodd" d="M89.0111 174.385C88.3965 174.788 87.8089 175.007 87.1443 175.345C86.6065 175.62 86.0596 175.876 85.5195 176.147C85.0983 176.358 84.318 176.804 84.7691 177.362C85.0624 177.725 85.7974 177.688 86.2251 177.759C86.903 177.872 87.7413 177.857 88.4213 177.816C89.2548 177.767 90.1185 177.987 90.9648 178.009C91.5756 178.025 92.1904 178.067 92.795 178.081C93.0124 178.087 93.2851 178.145 93.4392 177.956C93.5994 177.762 93.4961 177.537 93.3801 177.368C93.2401 177.167 93.1105 176.9 92.9397 176.74C92.7874 176.599 92.5847 176.499 92.4312 176.373C92.0577 176.069 91.933 175.755 92.2809 175.384C92.6272 175.015 92.8813 174.753 92.9129 174.219C92.9524 173.535 92.522 173.384 91.9435 173.219C91.078 172.973 91.148 173.125 90.4079 173.523C90.0527 173.713 89.1794 174.275 89.0111 174.385Z" stroke="#1B75BC" stroke-width="0.0557188"/><path opacity="0.5" fill-rule="evenodd" clip-rule="evenodd" d="M89.2716 175.066C88.8687 175.33 88.4828 175.474 88.046 175.696C87.6943 175.876 87.3349 176.044 86.9805 176.222C86.7046 176.36 86.1922 176.653 86.4881 177.019C86.681 177.258 87.1625 177.233 87.4435 177.279C87.8883 177.353 88.4385 177.344 88.8845 177.317C89.4313 177.284 89.9987 177.429 90.5537 177.443C90.9543 177.454 91.3572 177.482 91.7539 177.491C91.8966 177.494 92.0762 177.532 92.177 177.409C92.2825 177.281 92.2138 177.133 92.1384 177.023C92.0462 176.891 91.9611 176.716 91.8494 176.611C91.7492 176.518 91.6161 176.452 91.5157 176.37C91.2709 176.171 91.189 175.964 91.4172 175.722C91.6437 175.479 91.8112 175.307 91.8315 174.957C91.8572 174.508 91.5751 174.409 91.1959 174.301C90.6284 174.14 90.6739 174.239 90.1877 174.5C89.9542 174.625 89.3816 174.993 89.2716 175.066Z" stroke="#1B75BC" stroke-width="0.0557188"/></g><defs><linearGradient id="paint1_linear_3987_4459" x1="165.694" y1="121.984" x2="165.694" y2="214.093" gradientUnits="userSpaceOnUse"><stop offset="0.4725" stop-color="#C7E9F2"/><stop offset="0.5702" stop-color="#B2DFF1"/><stop offset="1" stop-color="#45BEEE"/></linearGradient><linearGradient id="paint2_linear_3987_4459" x1="165.45" y1="199.314" x2="165.45" y2="138.564" gradientUnits="userSpaceOnUse"><stop offset="0.4176" stop-color="white"/><stop offset="0.4917" stop-color="#DEF1F8"/><stop offset="0.6692" stop-color="#9CD7EC"/><stop offset="0.8192" stop-color="#65C7E5"/><stop offset="0.934" stop-color="#34BEE0"/><stop offset="1" stop-color="#04BBDF"/></linearGradient><linearGradient id="paint4_linear_3987_4459" x1="247.305" y1="174.932" x2="235.09" y2="174.932" gradientUnits="userSpaceOnUse"><stop stop-color="white"/><stop offset="0.1144" stop-color="#E0EDF4"/><stop offset="0.3368" stop-color="#AACEE1"/><stop offset="0.5443" stop-color="#80B5D3"/><stop offset="0.7305" stop-color="#61A3C8"/><stop offset="0.8886" stop-color="#4F98C1"/><stop offset="1" stop-color="#4894BF"/></linearGradient><linearGradient id="paint5_linear_3987_4459" x1="82.8532" y1="175.218" x2="95.0635" y2="175.538" gradientUnits="userSpaceOnUse"><stop stop-color="white"/><stop offset="0.1144" stop-color="#E0EDF4"/><stop offset="0.3368" stop-color="#AACEE1"/><stop offset="0.5443" stop-color="#80B5D3"/><stop offset="0.7305" stop-color="#61A3C8"/><stop offset="0.8886" stop-color="#4F98C1"/><stop offset="1" stop-color="#4894BF"/></linearGradient><radialGradient id="paint0_radial_3987_4459" cx="0" cy="0" r="1" gradientTransform="translate(165.451 164.954)scale(36.1395)" gradientUnits="userSpaceOnUse"><stop offset="0.533" stop-color="#1B617E"/><stop offset="0.5626" stop-color="#457E96"/><stop offset="0.5984" stop-color="#709CAE"/><stop offset="0.637" stop-color="#97B7C4"/><stop offset="0.678" stop-color="#B7CDD6"/><stop offset="0.722" stop-color="#D1DFE5"/><stop offset="0.7701" stop-color="#E6EEF1"/><stop offset="0.8244" stop-color="#F4F7F9"/><stop offset="0.8904" stop-color="#FCFDFE"/><stop offset="1" stop-color="white"/></radialGradient><radialGradient id="paint3_radial_3987_4459" cx="0" cy="0" r="1" gradientTransform="translate(165.565 165.544)scale(13.999 14.4722)" gradientUnits="userSpaceOnUse"><stop offset="0.8022" stop-color="#091520"/><stop offset="0.8238" stop-color="#0D1925"/><stop offset="0.8536" stop-color="#162431"/><stop offset="0.8883" stop-color="#233445"/><stop offset="0.9267" stop-color="#324B65"/><stop offset="0.9676" stop-color="#436A93"/><stop offset="1" stop-color="#4D88C7"/></radialGradient><clipPath id="clip0_3987_4459"><rect width="200" height="200" fill="white" transform="translate(66 66)"/></clipPath></defs></svg>