<svg viewBox="0 0 300 300" fill="none" xmlns="http://www.w3.org/2000/svg"><path d="M298 150C298 231.738 231.738 298 150 298C68.2619 298 2 231.738 2 150C2 68.2619 68.2619 2 150 2C231.738 2 298 68.2619 298 150Z" fill="#500078"/><path fill-rule="evenodd" clip-rule="evenodd" d="M150 300C232.843 300 300 232.843 300 150C300 67.1573 232.843 0 150 0C67.1573 0 0 67.1573 0 150C0 232.843 67.1573 300 150 300ZM150 290C227.32 290 290 227.32 290 150C290 72.6801 227.32 10 150 10C72.6801 10 10 72.6801 10 150C10 227.32 72.6801 290 150 290Z" fill="#919191"/><path fill-rule="evenodd" clip-rule="evenodd" d="M150 300C232.843 300 300 232.843 300 150C300 67.1573 232.843 0 150 0C67.1573 0 0 67.1573 0 150C0 232.843 67.1573 300 150 300ZM150 290C227.32 290 290 227.32 290 150C290 72.6801 227.32 10 150 10C72.6801 10 10 72.6801 10 150C10 227.32 72.6801 290 150 290Z" fill="#1E0040" style="mix-blend-mode:color"/><path d="M196.577 193.925C197.803 183.717 197.436 182.219 205.039 183.873L206.969 184.042C212.816 184.308 220.464 183.102 224.958 181.014C234.631 176.525 240.366 169.033 230.83 171C209.074 175.489 207.578 168.122 207.578 168.122C230.552 134.036 240.155 90.7657 231.864 80.1735C209.255 51.2844 170.119 64.9454 169.464 65.2985L169.255 65.3376C164.956 64.4454 160.145 63.9126 154.741 63.8251C144.895 63.6626 137.425 66.4063 131.758 70.7032C131.758 70.7032 61.9406 41.9391 65.1891 106.877C65.8798 120.691 84.9894 211.405 107.783 184.005C116.114 173.986 124.164 165.514 124.164 165.514C128.161 168.169 132.949 169.525 137.967 169.038L138.356 168.706C138.235 169.95 138.288 171.167 138.511 172.608C132.641 179.169 134.366 180.32 122.627 182.736C110.749 185.183 117.727 189.541 122.282 190.68C127.805 192.061 140.582 194.017 149.216 181.933L148.872 183.311C151.175 185.155 151.021 196.556 151.346 204.702C151.672 212.848 152.218 220.45 153.878 224.933C155.539 229.414 157.499 240.958 172.927 237.652C185.821 234.895 195.678 230.919 196.577 193.925Z" fill="black"/><path d="M167.904 245.713C161.08 245.713 156.636 243.074 153.938 240.525C149.864 236.681 148.249 231.73 147.283 228.772L146.866 227.538C144.922 222.291 144.263 214.736 143.872 205.008C143.813 203.547 143.772 202.042 143.727 200.447C143.694 199.28 143.653 197.816 143.594 196.284C141.136 197.457 138.526 198.281 135.841 198.734C131.03 199.556 125.858 199.291 120.466 197.942C116.661 196.991 112.708 195.019 110.455 191.974C103.888 197.725 97.6237 196.945 94.2112 195.806C88.1909 193.799 82.8034 188.156 77.7393 178.561C74.1315 171.725 70.6424 162.819 67.3674 152.088C61.6642 133.4 58.0407 113.717 57.7189 107.255C56.7063 87.0282 62.1516 72.5626 73.9 64.2641C92.4328 51.1735 120.513 58.8719 130.75 62.3673C137.628 58.2219 145.72 56.2048 154.864 56.3501C159.775 56.4298 164.452 56.861 168.795 57.636C173.327 56.211 182.277 54.1657 192.522 54.2938C211.398 54.5188 227.041 61.8751 237.755 75.5673C245.402 85.336 241.62 105.85 238.688 117.209C234.56 133.188 227.327 150.181 218.442 164.975C220.855 164.992 224.35 164.703 229.319 163.677C239.122 161.653 241.989 166.909 242.767 169.263C245.885 178.703 232.335 185.838 228.108 187.8C222.692 190.314 213.863 191.845 206.632 191.514L206.316 191.494L204.416 191.327L204.228 192.911L204.047 194.459C203.561 213.208 200.883 225.081 195.372 232.927C189.596 241.152 181.568 243.456 174.496 244.972C172.083 245.488 169.891 245.713 167.904 245.713ZM153.544 177.477C157.949 181.002 158.335 187.634 158.68 200.03C158.724 201.577 158.764 203.041 158.819 204.408C158.985 208.549 159.374 218.244 160.893 222.341C161.107 222.92 161.299 223.508 161.502 224.131C163.194 229.313 164.043 231.911 171.36 230.347C177.502 229.03 180.66 227.849 183.132 224.33C186.724 219.214 188.733 208.924 189.102 193.744L196.575 193.925L189.153 193.034L189.372 191.181C190.083 185.072 190.596 180.659 194.678 177.741C197.955 175.4 201.688 175.627 204.661 176.163C201.394 173.694 200.491 170.799 200.25 169.611L199.627 166.541L201.378 163.942C211.467 148.974 219.786 130.577 224.205 113.467C228.745 95.8876 227.361 86.5516 225.977 84.786C207.65 61.3688 175.87 71.0376 172.552 72.1344L171.991 72.4376L169.178 72.961L167.738 72.6626C163.766 71.8376 159.353 71.3813 154.623 71.3048C147.192 71.1798 141.197 72.936 136.281 76.6657L132.87 79.2516L128.913 77.6219C120.456 74.1641 95.6188 67.2126 82.5125 76.4954C75.2376 81.6485 71.9235 91.7454 72.661 106.506C72.9048 111.38 76.2158 129.828 81.6783 147.72C89.2268 172.447 96.0862 180.661 98.9503 181.616C99.4503 181.784 100.747 180.777 102.038 179.227C107.419 172.776 112.991 166.486 118.747 160.367L123.075 155.813L128.308 159.289C130.417 160.691 132.744 161.486 135.133 161.636L147.613 150.992L145.805 169.442C145.764 169.856 145.744 170.42 145.907 171.467L146.45 174.964L144.091 177.602L143.819 177.908L150.675 181.072L153.544 177.477Z" fill="black"/><path d="M230.83 171C209.072 175.489 207.577 168.122 207.577 168.122C230.55 134.034 240.153 90.7624 231.866 80.1734C209.256 51.2859 170.117 64.9468 169.464 65.3015L169.253 65.339C164.955 64.4468 160.144 63.9156 154.736 63.8281C144.891 63.6671 137.423 66.4093 131.756 70.7062C131.756 70.7062 61.9374 41.9437 65.1844 106.88C65.875 120.695 84.9846 211.409 107.778 184.009C116.11 173.991 124.158 165.519 124.158 165.519C128.156 168.173 132.942 169.53 137.96 169.042L138.35 168.711C138.228 169.955 138.285 171.172 138.506 172.612C132.635 179.173 134.36 180.325 122.62 182.741C110.742 185.187 117.721 189.545 122.277 190.684C127.799 192.066 140.577 194.022 149.21 181.937L148.864 183.316C151.166 185.159 152.781 195.303 152.511 204.498C152.239 213.694 152.058 220.008 153.872 224.939C155.685 229.87 157.491 240.964 172.922 237.658C185.816 234.895 192.497 227.734 193.428 215.791C194.088 207.298 195.58 208.555 195.675 200.962L196.874 197.369C198.255 185.858 197.092 182.145 205.038 183.872L206.967 184.041C212.814 184.306 220.466 183.1 224.958 181.012C234.63 176.526 240.366 169.033 230.83 171Z" fill="#4C3391"/><path d="M168.683 241.105C155.821 241.105 151.746 230.919 150.079 226.753C147.638 220.648 147.111 196.958 147.655 177.53C147.663 177.202 147.736 176.879 147.869 176.58C148.003 176.281 148.194 176.011 148.432 175.785C148.67 175.56 148.951 175.385 149.257 175.268C149.564 175.152 149.89 175.097 150.218 175.108C150.545 175.117 150.867 175.19 151.166 175.324C151.465 175.457 151.734 175.648 151.959 175.886C152.184 176.124 152.36 176.404 152.477 176.71C152.594 177.016 152.649 177.342 152.639 177.669C152.013 200.077 152.902 220.383 154.708 224.902C157.527 231.947 161.802 238.109 173.888 235.52C185.361 233.059 189.658 228.709 191.572 217.614C193.041 209.1 195.946 184.878 196.304 180.099C196.327 179.772 196.416 179.453 196.563 179.161C196.71 178.868 196.914 178.608 197.162 178.394C197.41 178.18 197.698 178.018 198.009 177.916C198.321 177.813 198.649 177.774 198.975 177.799C199.634 177.848 200.247 178.158 200.678 178.659C201.109 179.16 201.324 179.811 201.275 180.47C200.902 185.447 198.011 209.622 196.486 218.463C194.227 231.567 188.385 237.511 174.933 240.395C172.647 240.884 170.571 241.103 168.683 241.105ZM98.9395 191.353C97.8152 191.349 96.6989 191.165 95.6332 190.806C87.2785 188.019 79.3207 174.413 71.98 150.361C66.3925 132.053 62.8518 112.944 62.5409 106.733C61.6205 88.3204 66.3611 75.2938 76.6345 68.0172C96.9579 53.6172 131.147 67.3297 132.592 67.9204C133.205 68.1705 133.692 68.6535 133.949 69.2633C134.205 69.8731 134.208 70.5597 133.958 71.1719C133.708 71.7842 133.225 72.2721 132.615 72.5282C132.005 72.7843 131.319 72.7876 130.706 72.5376C130.377 72.4032 97.5923 59.2688 79.5064 72.0922C70.722 78.3204 66.6893 89.8923 67.519 106.484C67.7799 111.717 71.0878 130.367 76.7472 148.905C83.3004 170.377 90.7582 183.925 97.2098 186.077C98.2223 186.414 101.304 187.441 105.708 182.144C110.845 175.975 116.174 169.969 121.688 164.134C122.149 163.674 122.772 163.413 123.424 163.406C124.076 163.4 124.704 163.649 125.174 164.1C125.645 164.55 125.92 165.168 125.941 165.819C125.963 166.47 125.728 167.104 125.288 167.584C125.213 167.663 117.714 175.502 109.543 185.333C105.672 189.988 101.963 191.353 98.9395 191.353ZM207.422 170.345C206.97 170.345 206.527 170.221 206.14 169.988C205.752 169.755 205.436 169.421 205.224 169.022C205.011 168.623 204.912 168.174 204.935 167.722C204.959 167.271 205.104 166.834 205.357 166.459C228.58 131.998 236.731 90.3594 229.75 81.4376C220.963 70.2094 208.555 64.3454 192.869 64.0063C181.255 63.7563 172.024 66.7219 170.514 67.2391L170.135 67.3938C168.617 67.8704 167.453 67.0391 167.014 66.0672C166.764 65.5104 166.726 64.8812 166.908 64.2984C167.089 63.7155 167.478 63.2192 168 62.9032C168.072 62.861 168.3 62.7641 168.67 62.6282L168.638 62.6376L168.67 62.6266C171.235 61.6876 180.606 58.8766 192.214 59.0094C209.57 59.1938 223.908 65.886 233.674 78.3657C238.294 84.2704 238.305 97.8735 233.703 115.689C229.013 133.853 220.186 153.374 209.489 169.247C209.011 169.961 208.224 170.345 207.422 170.345ZM208.61 186.299C204.644 186.299 201.089 185.739 198.961 184.464C196.774 183.153 196.357 181.372 196.302 180.427C195.705 169.942 201.489 168.117 204.439 167.284C204.028 166.663 203.444 165.931 202.839 165.177C201.119 163.027 198.763 160.083 196.947 155.68C196.663 154.992 195.772 153.394 194.741 151.542C189.149 141.514 177.513 120.647 184.988 109.961C188.447 105.016 195.336 103.069 205.486 104.155C202.5 95.0579 188.281 66.6016 154.542 66.0485C144.395 65.8797 136.074 69.0001 129.82 75.3141C115.82 89.4532 116.327 115.036 116.335 115.292C116.343 115.62 116.287 115.945 116.17 116.251C116.053 116.557 115.876 116.836 115.651 117.074C115.426 117.311 115.156 117.502 114.857 117.635C114.558 117.768 114.235 117.841 113.908 117.85C113.581 117.859 113.255 117.803 112.949 117.685C112.644 117.568 112.364 117.392 112.127 117.167C111.889 116.941 111.698 116.671 111.565 116.372C111.432 116.073 111.359 115.751 111.35 115.423C111.319 114.288 110.797 87.4407 126.278 71.8047C133.524 64.4876 143.061 60.8751 154.625 61.0641C176.21 61.4188 190.103 72.3922 197.956 81.5344C206.517 91.4985 210.714 102.489 211.06 106.158C211.317 108.886 209.36 109.431 208.964 109.513L208.064 109.533C198.103 107.938 191.713 109.045 189.071 112.82C183.385 120.947 194.392 140.686 199.093 149.116C200.293 151.266 201.158 152.82 201.555 153.78C203.099 157.523 205.113 160.039 206.73 162.061C208.153 163.839 209.386 165.381 209.827 167.191C210.032 167.55 212.936 171.847 230.172 168.289C234.493 167.399 237.083 168.159 237.875 170.555C239.433 175.266 230.693 180.761 225.854 183.008C221.518 185.023 214.597 186.299 208.61 186.299ZM201.272 180.016C201.819 180.567 204.555 181.519 210.221 181.275C215.258 181.059 220.571 179.964 223.758 178.484C227.835 176.591 230.557 174.474 231.966 173.028L231.185 173.172C220.164 175.447 212.369 175.144 208.016 172.27C207.724 172.077 207.442 171.868 207.172 171.644C206.7 171.83 206.264 171.952 205.953 172.039C203.485 172.731 200.932 173.449 201.272 180.016ZM130.082 193.945C127.344 193.945 124.463 193.572 121.521 192.836C118.472 192.074 113.333 189.778 113.411 186.008C113.5 181.778 119.652 180.509 121.968 180.033C130.333 178.309 130.879 177.619 133.493 174.299C134.255 173.331 135.203 172.127 136.497 170.683C138.418 168.533 140.516 167.444 142.735 167.444C144.28 167.444 145.547 167.967 146.385 168.316C149.053 169.422 151.28 172.097 152.196 175.295C153.022 178.181 152.627 180.959 151.086 183.117C146.029 190.2 138.764 193.945 130.082 193.945ZM118.797 186.222C119.549 186.803 121.055 187.58 122.732 187.999C125.28 188.636 127.752 188.959 130.083 188.959C137.186 188.959 142.889 186.019 147.032 180.219C147.896 179.009 147.636 177.474 147.405 176.666C146.921 174.974 145.718 173.434 144.478 172.92C143.807 172.642 143.249 172.43 142.736 172.43C142.461 172.43 141.624 172.43 140.214 174.006C139.242 175.1 138.307 176.227 137.411 177.384C134.155 181.519 132.663 182.922 122.975 184.917C120.611 185.402 119.399 185.895 118.797 186.222ZM137.968 174.722C137.372 174.721 136.797 174.507 136.346 174.119C135.895 173.731 135.597 173.195 135.507 172.606C135.445 172.192 135.403 171.776 135.382 171.358C129.032 171.239 122.905 168.514 118.253 163.661C112.372 157.525 109.696 149.023 110.911 140.338C112.232 130.905 111.738 122.578 111.472 118.105C111.399 116.861 111.346 115.963 111.349 115.341C111.353 114.552 111.369 112.459 118.363 108.914C120.85 107.653 125.838 105.453 131.286 104.889C140.313 103.956 146.263 107.977 148.044 116.211C152.852 138.442 148.425 148.275 145.193 155.456C144.591 156.794 144.022 158.056 143.568 159.28L143.166 160.358C141.458 164.938 139.982 168.894 140.435 171.849C140.484 172.172 140.47 172.502 140.392 172.82C140.314 173.138 140.174 173.438 139.981 173.702C139.787 173.966 139.543 174.189 139.263 174.359C138.983 174.528 138.672 174.641 138.349 174.691L137.968 174.722ZM116.35 116.031L116.447 117.811C116.722 122.458 117.235 131.105 115.847 141.03C114.846 148.194 117.033 155.186 121.852 160.211C125.66 164.183 130.671 166.375 135.821 166.375H135.927C136.503 163.945 137.461 161.38 138.493 158.616L138.891 157.544C139.405 156.163 140.007 154.825 140.644 153.409C143.755 146.497 147.628 137.892 143.167 117.266C142.285 113.18 140.142 110.816 136.622 110.036C129.391 108.439 118.614 113.878 116.35 116.031ZM131.397 114.973C131.272 115.855 133.011 118.208 135.28 118.522C137.544 118.839 139.482 116.998 139.605 116.117C139.728 115.236 137.991 114.264 135.722 113.948C133.455 113.633 131.517 114.092 131.397 114.973ZM135.8 119.389L135.164 119.345C133.758 119.15 132.336 118.264 131.363 116.973C131.021 116.52 130.463 115.642 130.574 114.858C130.731 113.708 132.135 113.019 134.324 113.019C134.813 113.019 135.322 113.055 135.835 113.127C137.031 113.292 138.142 113.638 138.963 114.095C140.385 114.889 140.489 115.775 140.425 116.233C140.25 117.503 138.23 119.389 135.8 119.389ZM132.224 115.12C132.294 115.664 133.641 117.458 135.394 117.7L135.802 117.728C137.421 117.728 138.63 116.455 138.772 116.038C138.622 115.753 137.581 115.047 135.608 114.772C135.183 114.711 134.754 114.68 134.325 114.68C133.056 114.68 132.383 114.966 132.224 115.12ZM200.356 113.175C200.48 114.056 198.742 116.409 196.475 116.725C194.21 117.041 192.271 115.202 192.146 114.32C192.027 113.439 193.764 112.466 196.03 112.152C198.296 111.834 200.231 112.295 200.356 113.175ZM195.952 117.175C193.771 117.175 191.888 115.478 191.733 114.377C191.553 113.055 193.73 112.05 195.971 111.739C196.464 111.67 196.953 111.636 197.424 111.636C199.358 111.636 200.639 112.203 200.767 113.119C200.85 113.711 200.396 114.625 199.613 115.45C199.096 115.992 198.01 116.931 196.53 117.136L195.952 117.175ZM197.425 112.467C196.994 112.467 196.544 112.5 196.088 112.563C193.836 112.877 192.492 113.78 192.558 114.264C192.633 114.797 194.071 116.345 195.953 116.345L196.417 116.313C197.647 116.142 198.571 115.339 199.011 114.877C199.703 114.15 199.978 113.466 199.946 113.233C199.902 112.923 199.071 112.467 197.425 112.467ZM203.621 163.784C203.169 163.785 202.726 163.662 202.338 163.43C201.951 163.198 201.634 162.864 201.422 162.466C201.209 162.067 201.109 161.618 201.132 161.167C201.155 160.716 201.3 160.28 201.552 159.905C206.861 151.975 205.889 143.889 204.95 136.069C204.549 132.738 204.136 129.292 204.242 125.986C204.352 122.584 204.785 119.778 205.202 117.064C205.697 113.848 206.166 110.811 205.972 107.205C205.954 106.878 206.001 106.551 206.11 106.242C206.219 105.933 206.387 105.649 206.606 105.405C206.825 105.162 207.089 104.964 207.384 104.822C207.68 104.681 208 104.599 208.327 104.581C208.654 104.564 208.981 104.611 209.29 104.719C209.598 104.828 209.883 104.997 210.126 105.215C210.37 105.434 210.568 105.698 210.709 105.994C210.851 106.289 210.933 106.609 210.95 106.936C211.172 111.058 210.642 114.495 210.13 117.822C209.735 120.389 209.325 123.044 209.227 126.145C209.132 129.073 209.505 132.183 209.9 135.473C210.9 143.789 212.033 153.214 205.696 162.678C205.467 163.019 205.159 163.298 204.797 163.491C204.435 163.684 204.031 163.785 203.621 163.784Z" fill="white"/></svg>