<svg viewBox="0 0 300 300" fill="none" xmlns="http://www.w3.org/2000/svg"><path d="M298 150C298 231.738 231.738 298 150 298C68.2619 298 2 231.738 2 150C2 68.2619 68.2619 2 150 2C231.738 2 298 68.2619 298 150Z" fill="#316A99"/><path fill-rule="evenodd" clip-rule="evenodd" d="M150 300C232.843 300 300 232.843 300 150C300 67.1573 232.843 0 150 0C67.1573 0 0 67.1573 0 150C0 232.843 67.1573 300 150 300ZM150 290C227.32 290 290 227.32 290 150C290 72.6801 227.32 10 150 10C72.6801 10 10 72.6801 10 150C10 227.32 72.6801 290 150 290Z" fill="#919191"/><path fill-rule="evenodd" clip-rule="evenodd" d="M150 300C232.843 300 300 232.843 300 150C300 67.1573 232.843 0 150 0C67.1573 0 0 67.1573 0 150C0 232.843 67.1573 300 150 300ZM150 290C227.32 290 290 227.32 290 150C290 72.6801 227.32 10 150 10C72.6801 10 10 72.6801 10 150C10 227.32 72.6801 290 150 290Z" fill="#316A99" style="mix-blend-mode:color"/><g clip-path="url(#clip0_258_2579)"><path d="M148.808 50.0015C140.56 50.0402 132.687 50.7339 125.756 51.9473C105.342 55.5142 101.638 62.9804 101.638 76.7515L101.638 94.9359H149.877L149.877 100.997H83.5322C69.5135 100.997 57.2374 109.331 53.3968 125.191C48.9662 143.364 48.7709 154.706 53.3969 173.683C56.8254 187.809 65.0147 197.872 79.0354 197.872H95.6229L95.6229 176.073C95.6229 160.323 109.397 146.432 125.758 146.432H173.943C187.356 146.432 198.061 135.507 198.061 122.186L198.061 76.7535C198.061 63.8209 187.031 54.1076 173.942 51.9492C165.652 50.5851 157.054 49.9648 148.808 50.0015ZM122.72 64.6267C127.702 64.6267 131.773 68.7173 131.773 73.7488C131.773 78.7591 127.704 82.811 122.72 82.811C117.719 82.811 113.67 78.7591 113.67 73.7488C113.668 68.7173 117.719 64.6267 122.72 64.6267Z" fill="url(#paint0_linear_258_2579)"/><path d="M204.076 100.997L204.076 122.186C204.076 138.61 189.995 152.435 173.941 152.435H125.756C112.558 152.435 101.638 163.609 101.638 176.683L101.638 222.12C101.638 235.048 113.004 242.656 125.756 246.364C141.025 250.802 155.669 251.606 173.941 246.364C186.084 242.884 198.059 235.885 198.059 222.12L198.059 203.933H149.877L149.877 197.87H222.182C236.2 197.87 241.428 188.199 246.304 173.68C251.34 158.734 251.123 144.36 246.304 125.189C242.838 111.383 236.222 100.995 222.181 100.995L204.076 100.995L204.076 100.997ZM176.975 216.056C181.978 216.056 186.027 220.108 186.027 225.122C186.027 230.15 181.976 234.241 176.975 234.241C171.993 234.241 167.924 230.15 167.924 225.122C167.924 220.108 171.993 216.056 176.975 216.056Z" fill="url(#paint1_linear_258_2579)"/></g><defs><linearGradient id="paint0_linear_258_2579" x1="45.1642" y1="55.6874" x2="155.397" y2="150.73" gradientUnits="userSpaceOnUse"><stop stop-color="white"/><stop offset="1" stop-color="white"/></linearGradient><linearGradient id="paint1_linear_258_2579" x1="198.287" y1="207.874" x2="158.965" y2="152.123" gradientUnits="userSpaceOnUse"><stop stop-color="#FFD43B"/><stop offset="1" stop-color="#FFE873"/></linearGradient><clipPath id="clip0_258_2579"><rect width="200" height="200" fill="white" transform="translate(50 50)"/></clipPath></defs></svg>