<svg viewBox="0 0 300 300" fill="none" xmlns="http://www.w3.org/2000/svg"><path d="M298 150C298 231.738 231.738 298 150 298C68.2619 298 2 231.738 2 150C2 68.2619 68.2619 2 150 2C231.738 2 298 68.2619 298 150Z" fill="#61DAFB"/><path fill-rule="evenodd" clip-rule="evenodd" d="M150 300C232.843 300 300 232.843 300 150C300 67.1573 232.843 0 150 0C67.1573 0 0 67.1573 0 150C0 232.843 67.1573 300 150 300ZM150 290C227.32 290 290 227.32 290 150C290 72.6801 227.32 10 150 10C72.6801 10 10 72.6801 10 150C10 227.32 72.6801 290 150 290Z" fill="#919191"/><path fill-rule="evenodd" clip-rule="evenodd" d="M150 300C232.843 300 300 232.843 300 150C300 67.1573 232.843 0 150 0C67.1573 0 0 67.1573 0 150C0 232.843 67.1573 300 150 300ZM150 290C227.32 290 290 227.32 290 150C290 72.6801 227.32 10 150 10C72.6801 10 10 72.6801 10 150C10 227.32 72.6801 290 150 290Z" fill="#61DAFB" style="mix-blend-mode:color"/><path d="M150 167.813C159.838 167.813 167.813 159.838 167.813 150C167.813 140.162 159.838 132.188 150 132.188C140.163 132.188 132.188 140.162 132.188 150C132.188 159.838 140.163 167.813 150 167.813Z" fill="white"/><path d="M217.656 120.625C214.219 119.375 210.625 118.125 206.875 117.031C207.813 113.281 208.594 109.531 209.219 105.938C212.5 85.3125 208.906 70.7812 198.906 65.1562C195.938 63.4375 192.656 62.6563 188.906 62.6563C177.969 62.6563 164.063 70.7812 150 84.375C135.938 70.7812 122.031 62.6563 111.094 62.6563C107.344 62.6562 104.063 63.4375 101.094 65.1562C91.0938 70.9375 87.5 85.4687 90.7813 105.938C91.4064 109.531 92.1876 113.281 93.1251 117.031C89.3751 118.125 85.7814 119.219 82.3439 120.625C62.8126 128.125 52.1877 138.438 52.1877 150C52.1877 161.562 62.969 171.875 82.344 179.375C85.7815 180.625 89.3753 181.875 93.1253 182.969C92.1878 186.719 91.4065 190.469 90.7815 194.062C87.5003 214.688 91.0941 229.219 101.094 234.844C104.063 236.562 107.344 237.344 111.094 237.344C122.188 237.344 136.094 229.219 150 215.625C164.063 229.219 177.969 237.344 188.907 237.344C192.657 237.344 195.938 236.562 198.907 234.844C208.907 229.062 212.5 214.531 209.219 194.062C208.594 190.469 207.813 186.719 206.875 182.969C210.625 181.875 214.219 180.781 217.657 179.375C237.188 171.875 247.813 161.562 247.813 150C247.813 138.438 237.188 128.125 217.656 120.625ZM194.531 72.9687C200.938 76.7187 203.125 88.2813 200.469 104.688C200 107.969 199.219 111.406 198.281 115C190.156 113.125 181.563 111.875 172.5 111.094C167.188 103.594 161.719 96.875 156.25 90.7812C167.813 79.375 179.531 71.5625 189.063 71.5625C191.094 71.5625 192.969 72.0312 194.531 72.9687ZM177.031 165.625C174.219 170.625 170.938 175.625 167.5 180.625C161.719 181.094 155.938 181.25 150 181.25C143.907 181.25 138.125 181.094 132.5 180.625C129.063 175.625 125.938 170.625 123.125 165.625C120.156 160.469 117.344 155.156 114.844 150C117.344 144.844 120.156 139.531 123.125 134.375C125.938 129.375 129.219 124.375 132.656 119.375C138.438 118.906 144.219 118.75 150.156 118.75C156.25 118.75 162.031 118.906 167.656 119.375C171.094 124.375 174.219 129.375 177.031 134.375C180 139.531 182.813 144.844 185.313 150C182.656 155.156 180 160.312 177.031 165.625ZM190 160.469C192.344 165.938 194.219 171.25 195.938 176.562C190.625 177.812 185 178.75 179.063 179.531C180.938 176.563 182.969 173.438 184.688 170.156C186.563 166.875 188.281 163.594 190 160.469ZM150 202.812C146.25 198.75 142.657 194.375 139.219 189.844C142.813 190 146.407 190.156 150 190.156C153.594 190.156 157.188 190 160.782 189.844C157.344 194.375 153.75 198.75 150 202.812ZM120.938 179.375C115 178.594 109.375 177.656 104.063 176.406C105.781 171.25 107.656 165.781 110 160.312C111.719 163.438 113.438 166.719 115.313 169.844C117.188 173.281 119.063 176.25 120.938 179.375ZM110 139.531C107.656 134.062 105.781 128.75 104.063 123.438C109.375 122.188 115 121.25 120.938 120.469C119.063 123.438 117.031 126.562 115.313 129.844C113.438 133.125 111.719 136.406 110 139.531ZM150 97.1875C153.75 101.25 157.344 105.625 160.781 110.156C157.188 110 153.594 109.844 150 109.844C146.406 109.844 142.813 110 139.219 110.156C142.656 105.625 146.25 101.25 150 97.1875ZM184.688 130L179.063 120.625C185 121.406 190.625 122.344 195.938 123.594C194.219 128.75 192.344 134.219 190 139.688C188.281 136.406 186.563 133.125 184.688 130ZM99.5313 104.688C96.8751 88.2812 99.0625 76.7187 105.469 72.9687C107.031 72.0312 108.906 71.5625 110.938 71.5625C120.313 71.5625 132.031 79.2188 143.75 90.7812C138.281 96.7188 132.813 103.594 127.5 111.094C118.438 111.875 109.844 113.281 101.719 115C100.781 111.406 100.156 107.969 99.5313 104.688ZM60.9377 150C60.9377 142.656 69.8439 134.844 85.4689 129.062C88.5939 127.812 92.0314 126.719 95.4689 125.781C97.9689 133.594 101.094 141.875 104.844 150.156C101.094 158.438 97.8127 166.562 95.469 174.375C73.9065 168.125 60.9377 158.75 60.9377 150ZM105.469 227.031C99.0628 223.281 96.8753 211.719 99.5315 195.312C100 192.031 100.782 188.594 101.719 185C109.844 186.875 118.438 188.125 127.5 188.906C132.813 196.406 138.282 203.125 143.75 209.219C132.188 220.625 120.469 228.438 110.938 228.438C108.907 228.438 107.032 227.969 105.469 227.031ZM200.469 195.312C203.125 211.719 200.938 223.281 194.532 227.031C192.969 227.969 191.094 228.438 189.063 228.438C179.688 228.438 167.969 220.781 156.25 209.219C161.719 203.281 167.188 196.406 172.5 188.906C181.563 188.125 190.157 186.719 198.282 185C199.219 188.594 199.844 192.031 200.469 195.312ZM214.531 170.938C211.406 172.188 207.969 173.281 204.531 174.219C202.031 166.406 198.906 158.125 195.156 149.844C198.906 141.563 202.188 133.438 204.531 125.625C226.094 131.875 239.063 141.25 239.063 150C239.063 157.344 230 165.156 214.531 170.938Z" fill="white"/></svg>