<svg viewBox="0 0 300 300" fill="none" xmlns="http://www.w3.org/2000/svg"><path d="M298 150C298 231.738 231.738 298 150 298C68.2619 298 2 231.738 2 150C2 68.2619 68.2619 2 150 2C231.738 2 298 68.2619 298 150Z" fill="#780000"/><path fill-rule="evenodd" clip-rule="evenodd" d="M150 300C232.843 300 300 232.843 300 150C300 67.1573 232.843 0 150 0C67.1573 0 0 67.1573 0 150C0 232.843 67.1573 300 150 300ZM150 290C227.32 290 290 227.32 290 150C290 72.6801 227.32 10 150 10C72.6801 10 10 72.6801 10 150C10 227.32 72.6801 290 150 290Z" fill="#919191"/><path fill-rule="evenodd" clip-rule="evenodd" d="M150 300C232.843 300 300 232.843 300 150C300 67.1573 232.843 0 150 0C67.1573 0 0 67.1573 0 150C0 232.843 67.1573 300 150 300ZM150 290C227.32 290 290 227.32 290 150C290 72.6801 227.32 10 150 10C72.6801 10 10 72.6801 10 150C10 227.32 72.6801 290 150 290Z" fill="#400000" style="mix-blend-mode:color"/><path d="M240.313 195.469C229.844 200.937 175.625 223.125 164.063 229.219C152.5 235.312 146.094 235.156 137.032 230.781C127.969 226.406 70.3128 203.281 59.844 198.281C54.6878 195.781 52.0315 193.75 52.0315 191.719L52.0315 171.875C52.0315 171.875 127.031 155.469 139.219 151.25C151.406 146.875 155.469 146.719 165.781 150.469C176.094 154.219 237.813 165.312 247.969 169.062L247.969 188.594C247.969 190.625 245.625 192.812 240.313 195.469Z" fill="#F0B2AC"/><path d="M240.313 175.781C229.844 181.25 175.625 203.437 164.063 209.531C152.5 215.625 146.094 215.469 137.032 211.094C127.969 206.719 70.3128 183.437 59.844 178.437C49.5315 173.437 49.219 170 59.3752 166.094C69.5315 162.031 126.875 139.531 139.063 135.312C151.25 130.937 155.313 130.781 165.625 134.531C175.938 138.281 229.844 159.687 240 163.437C250.469 167.187 250.782 170.312 240.313 175.781Z" fill="#BB6868"/><path d="M240.313 163.281C229.844 168.75 175.625 190.937 164.063 197.031C152.5 202.969 146.094 202.969 137.032 198.594C127.969 194.219 70.3127 170.937 59.844 165.937C54.6877 163.437 52.0315 161.406 52.0315 159.375L52.0314 139.531C52.0314 139.531 127.031 123.125 139.219 118.906C151.406 114.531 155.469 114.375 165.781 118.125C176.094 121.875 237.813 132.969 247.969 136.719L247.969 156.25C247.969 158.281 245.625 160.469 240.313 163.281Z" fill="#F0B2AC"/><path d="M240.313 143.437C229.844 148.906 175.625 171.094 164.063 177.187C152.5 183.125 146.094 183.125 137.032 178.75C127.969 174.375 70.3127 151.094 59.844 146.094C49.3752 141.094 49.219 137.656 59.3752 133.75C69.5314 129.687 126.875 107.187 139.063 102.969C151.25 98.5936 155.313 98.4374 165.625 102.187C175.938 105.937 229.844 127.344 240 131.094C250.469 134.844 250.781 137.969 240.313 143.437Z" fill="#BB6868"/><path d="M240.313 129.687C229.844 135.156 175.625 157.344 164.063 163.437C152.5 169.375 146.094 169.375 137.031 165C127.969 160.781 70.3127 137.5 59.8439 132.5C54.6877 130 51.8752 127.969 51.8752 125.937L51.8751 106.094C51.8751 106.094 126.875 89.6874 139.063 85.4686C151.25 81.0936 155.313 80.9374 165.625 84.6874C175.938 88.4374 237.656 99.5311 247.813 103.281L247.813 122.812C247.969 124.844 245.625 126.875 240.313 129.687Z" fill="#F0B2AC"/><path d="M240.313 109.844C229.844 115.312 175.625 137.5 164.063 143.594C152.5 149.531 146.094 149.531 137.031 145.156C127.969 140.781 70.3126 117.656 59.8439 112.656C49.3751 107.656 49.2188 104.219 59.3751 100.312C69.5313 96.2499 126.875 73.7499 139.063 69.5311C151.25 65.1561 155.313 64.9999 165.625 68.7499C175.938 72.4999 229.844 93.9061 240 97.6561C250.469 101.406 250.781 104.531 240.313 109.844Z" fill="#BB6868"/><path d="M175.625 90.7813L158.75 92.6562L154.844 101.719L148.75 91.5625L129.219 89.8438L143.75 84.5313L139.375 76.4062L153.125 81.7188L165.938 77.5L162.5 85.9375L175.625 90.7813ZM153.906 135.156L122.188 122.031L167.656 115.156L153.906 135.156Z" fill="#FFE6E6"/><path d="M110 114.688C123.376 114.688 134.219 110.49 134.219 105.313C134.219 100.135 123.376 95.9375 110 95.9375C96.6245 95.9375 85.7814 100.135 85.7814 105.313C85.7814 110.49 96.6245 114.688 110 114.688Z" fill="#FFE6E6"/><path d="M195.781 93.2812L222.656 103.906L195.781 114.531L195.781 93.2812Z" fill="#7A0C00"/><path d="M166.094 105.156L195.781 93.2812L195.781 114.531L192.813 115.781L166.094 105.156Z" fill="#AD2115"/></svg>