<svg viewBox="0 0 300 300" fill="none" xmlns="http://www.w3.org/2000/svg"><path d="M298 150C298 231.738 231.738 298 150 298C68.2619 298 2 231.738 2 150C2 68.2619 68.2619 2 150 2C231.738 2 298 68.2619 298 150Z" fill="#293138"/><path fill-rule="evenodd" clip-rule="evenodd" d="M150 300C232.843 300 300 232.843 300 150C300 67.1573 232.843 0 150 0C67.1573 0 0 67.1573 0 150C0 232.843 67.1573 300 150 300ZM150 290C227.32 290 290 227.32 290 150C290 72.6801 227.32 10 150 10C72.6801 10 10 72.6801 10 150C10 227.32 72.6801 290 150 290Z" fill="#919191"/><path fill-rule="evenodd" clip-rule="evenodd" d="M150 300C232.843 300 300 232.843 300 150C300 67.1573 232.843 0 150 0C67.1573 0 0 67.1573 0 150C0 232.843 67.1573 300 150 300ZM150 290C227.32 290 290 227.32 290 150C290 72.6801 227.32 10 150 10C72.6801 10 10 72.6801 10 150C10 227.32 72.6801 290 150 290Z" fill="#293138" style="mix-blend-mode:color"/><path d="M220.328 94.75L161.375 59.75C157.859 57.6719 153.922 56.625 150 56.625C146.078 56.625 142.141 57.6719 138.625 59.7656L79.6563 94.7656C72.6251 98.9375 68.2814 106.656 68.2814 115.016L68.2815 185.016C68.2815 193.375 72.6097 201.094 79.6566 205.266L138.61 240.266C142.125 242.359 146.047 243.391 149.985 243.391C153.907 243.391 157.844 242.344 161.36 240.266L220.328 205.266C227.36 201.094 231.703 193.359 231.703 185.016L231.703 115C231.703 106.656 227.375 98.9219 220.328 94.75ZM174.672 204.047L174.766 209.078C174.766 209.688 174.375 210.375 173.907 210.625L170.922 212.344C170.453 212.578 170.047 212.297 170.047 211.688L170 206.734C167.453 207.797 164.86 208.047 163.219 207.391C162.907 207.266 162.766 206.812 162.891 206.281L163.969 201.734C164.063 201.375 164.25 201.016 164.5 200.797C164.594 200.703 164.688 200.641 164.782 200.594C164.953 200.5 165.125 200.484 165.266 200.547C167.047 201.141 169.313 200.859 171.5 199.766C174.282 198.359 176.141 195.516 176.11 192.703C176.078 190.141 174.703 189.094 171.344 189.062C167.063 189.078 163.063 188.234 163 181.922C162.953 176.734 165.641 171.328 169.922 167.922L169.875 162.844C169.875 162.219 170.25 161.531 170.735 161.281L173.625 159.438C174.094 159.203 174.5 159.5 174.5 160.109L174.547 165.188C176.672 164.344 178.516 164.109 180.188 164.5C180.547 164.594 180.719 165.094 180.563 165.672L179.438 170.172C179.344 170.516 179.157 170.859 178.922 171.078C178.835 171.166 178.735 171.24 178.625 171.297C178.469 171.375 178.328 171.391 178.188 171.375C177.422 171.203 175.61 170.812 172.75 172.25C169.75 173.766 168.703 176.375 168.719 178.313C168.75 180.625 169.922 181.328 174.016 181.391C179.469 181.484 181.813 183.859 181.875 189.344C181.953 194.719 179.078 200.516 174.672 204.047ZM215.828 109.516L160.047 143.969C153.094 148.031 147.969 152.594 147.953 160.984L147.953 229.719C147.954 234.734 149.985 237.984 153.094 238.938C152.079 239.109 151.032 239.234 150 239.234C146.735 239.234 143.516 238.344 140.688 236.672L81.7347 201.672C75.9691 198.25 72.3909 191.859 72.3909 185L72.3908 115C72.3907 108.141 75.9688 101.75 81.7345 98.3281L140.703 63.3281C143.531 61.6563 146.75 60.7656 150.016 60.7656C153.281 60.7656 156.5 61.6563 159.328 63.3281L218.297 98.3281C223.156 101.219 226.438 106.203 227.36 111.812C225.375 107.641 220.969 106.516 215.828 109.516Z" fill="white"/><path d="M204.875 191.766L190.188 200.547C189.797 200.781 189.516 201.031 189.516 201.5L189.516 205.344C189.516 205.812 189.828 206.016 190.219 205.781L205.125 196.719C205.516 196.484 205.578 196.063 205.578 195.594L205.578 192.203C205.578 191.734 205.266 191.547 204.875 191.766Z" fill="#4FA847"/></svg>