<svg viewBox="0 0 300 300" fill="none" xmlns="http://www.w3.org/2000/svg"><path d="M298 150C298 231.738 231.738 298 150 298C68.2619 298 2 231.738 2 150C2 68.2619 68.2619 2 150 2C231.738 2 298 68.2619 298 150Z" fill="#7FC9EE"/><path fill-rule="evenodd" clip-rule="evenodd" d="M150 300C232.843 300 300 232.843 300 150C300 67.1573 232.843 0 150 0C67.1573 0 0 67.1573 0 150C0 232.843 67.1573 300 150 300ZM150 290C227.32 290 290 227.32 290 150C290 72.6801 227.32 10 150 10C72.6801 10 10 72.6801 10 150C10 227.32 72.6801 290 150 290Z" fill="#919191"/><path fill-rule="evenodd" clip-rule="evenodd" d="M150 300C232.843 300 300 232.843 300 150C300 67.1573 232.843 0 150 0C67.1573 0 0 67.1573 0 150C0 232.843 67.1573 300 150 300ZM150 290C227.32 290 290 227.32 290 150C290 72.6801 227.32 10 150 10C72.6801 10 10 72.6801 10 150C10 227.32 72.6801 290 150 290Z" fill="#95D7F4" style="mix-blend-mode:color"/><g clip-path="url(#clip0_3995_3098)"><path d="M158.594 204.962C158.502 203.822 158.447 203.087 158.447 203.087C158.447 203.087 155 179.823 150.891 172.878C150.244 171.773 150.958 167.262 152.777 160.566C153.839 162.392 158.308 170.241 159.211 172.769C160.224 175.619 160.43 176.436 160.43 176.436C160.43 176.436 157.977 163.808 153.955 156.441C154.932 153.157 155.976 149.893 157.086 146.651C158.606 149.323 162.263 155.806 163.067 158.058C163.227 158.516 163.367 158.906 163.489 159.267C163.525 159.053 163.567 158.839 163.605 158.62C162.683 154.708 160.871 147.901 158.392 142.867C163.892 114.23 182.659 75.9546 201.892 58.8765L76.4063 58.8765C67.9891 58.8765 61.111 65.7608 61.111 74.1718L61.1113 212.562C61.1113 220.973 67.9957 227.858 76.4082 227.858H159.06C158.433 220.243 158.278 212.598 158.596 204.964" fill="white"/><path d="M152.777 160.566C153.839 162.391 158.308 170.234 159.21 172.767C160.224 175.617 160.43 176.434 160.43 176.434C160.43 176.434 157.977 163.806 153.955 156.439C154.933 153.153 155.977 149.887 157.086 146.642C158.472 149.091 161.652 154.719 162.792 157.38L162.921 155.878C161.908 151.978 160.369 146.869 158.392 142.866C163.458 116.505 179.767 81.9749 197.339 63.3374L76.4047 63.3374C73.5323 63.3399 70.7782 64.4819 68.7469 66.5129C66.7157 68.5439 65.5732 71.2978 65.5703 74.1702L65.5706 202.467C92.9565 191.95 125.983 182.342 154.407 182.758C153.356 178.687 152.155 175.008 150.891 172.876C150.244 171.772 150.958 167.256 152.777 160.566Z" fill="url(#paint0_linear_3995_3098)"/><path d="M231.172 54.3454C222.578 46.6798 212.166 49.7626 201.9 58.8751C200.315 60.2935 198.795 61.7841 197.347 63.3423C179.769 81.9767 163.466 116.503 158.4 142.866C160.372 146.87 161.916 151.978 162.922 155.878C163.185 156.878 163.422 157.819 163.613 158.619C164.058 160.505 164.296 161.738 164.296 161.738C164.296 161.738 164.138 161.139 163.491 159.266C163.369 158.906 163.228 158.509 163.069 158.058C163.002 157.863 162.905 157.63 162.8 157.38C161.653 154.719 158.48 149.091 157.088 146.65C155.897 150.166 154.842 153.463 153.956 156.439C157.985 163.806 160.439 176.434 160.439 176.434C160.439 176.434 160.225 175.617 159.217 172.767C158.314 170.234 153.841 162.392 152.785 160.566C150.966 167.255 150.246 171.772 150.899 172.878C152.163 175.006 153.358 178.694 154.414 182.758C156.796 191.925 158.455 203.089 158.455 203.089C158.455 203.089 158.503 203.822 158.602 204.964C158.285 212.597 158.44 220.242 159.066 227.856C159.853 237.403 161.336 245.611 163.229 250L164.522 249.299C161.739 240.65 160.61 229.309 161.103 216.242C161.853 196.253 166.45 172.156 174.941 147.041C189.302 109.119 209.219 78.7001 227.444 64.1735C210.83 79.1767 188.345 127.742 181.613 145.728C174.081 165.87 168.741 184.766 165.517 202.875C171.064 185.902 189.028 178.609 189.028 178.609C189.028 178.609 197.836 167.738 208.133 152.222C201.961 153.633 191.836 156.038 188.449 157.459C183.449 159.559 182.094 160.272 182.094 160.272C182.094 160.272 198.299 150.409 212.203 145.942C231.319 115.833 252.144 73.0548 231.173 54.347" fill="#003956"/></g><defs><linearGradient id="paint0_linear_3995_3098" x1="141.547" y1="66.1721" x2="141.547" y2="194.723" gradientUnits="userSpaceOnUse"><stop stop-color="#95D7F4"/><stop offset="0.92" stop-color="#0F7FCC"/><stop offset="1" stop-color="#0F7FCC"/></linearGradient><clipPath id="clip0_3995_3098"><rect width="200" height="200" fill="white" transform="translate(50 50)"/></clipPath></defs></svg>