<svg viewBox="0 0 300 300" fill="none" xmlns="http://www.w3.org/2000/svg"><path d="M298 150C298 231.738 231.738 298 150 298C68.2619 298 2 231.738 2 150C2 68.2619 68.2619 2 150 2C231.738 2 298 68.2619 298 150Z" fill="#1679A7"/><path fill-rule="evenodd" clip-rule="evenodd" d="M150 300C232.843 300 300 232.843 300 150C300 67.1573 232.843 0 150 0C67.1573 0 0 67.1573 0 150C0 232.843 67.1573 300 150 300ZM150 290C227.32 290 290 227.32 290 150C290 72.6801 227.32 10 150 10C72.6801 10 10 72.6801 10 150C10 227.32 72.6801 290 150 290Z" fill="#919191"/><path fill-rule="evenodd" clip-rule="evenodd" d="M150 300C232.843 300 300 232.843 300 150C300 67.1573 232.843 0 150 0C67.1573 0 0 67.1573 0 150C0 232.843 67.1573 300 150 300ZM150 290C227.32 290 290 227.32 290 150C290 72.6801 227.32 10 150 10C72.6801 10 10 72.6801 10 150C10 227.32 72.6801 290 150 290Z" fill="#316A99" style="mix-blend-mode:color"/><g clip-path="url(#clip0_4044_6187)"><path d="M98.0464 81.1111C88.7464 81.1111 81.1112 88.6889 81.1112 98.0463L81.1115 201.954C81.1115 211.311 88.6893 218.889 98.0467 218.889H201.954C211.254 218.889 218.889 211.311 218.889 201.954L218.889 98.0463C218.888 88.6889 211.311 81.1111 201.954 81.1111L98.0464 81.1111ZM98.0464 87.3685H201.954C207.924 87.3685 212.574 92.0644 212.574 98.0463L212.574 178.417H182.321C180.398 173.847 167.567 141.274 183.945 115.843C184.231 115.391 184.39 114.87 184.405 114.335C184.42 113.8 184.29 113.271 184.03 112.804C183.769 112.337 183.387 111.949 182.925 111.681C182.462 111.414 181.936 111.277 181.402 111.284C151.321 111.759 134.328 129.597 125.487 146.934C117.737 162.09 116.13 175.121 115.785 178.681H87.3688L87.3687 98.3104C87.3686 92.34 92.0588 87.6326 97.989 87.6326L98.0464 87.3685ZM176.121 117.45C161.08 147.531 177.544 182.894 177.544 182.894C177.781 183.41 178.161 183.847 178.638 184.154C179.115 184.46 179.67 184.623 180.237 184.622H212.5L212.5 202.132C212.5 208.102 207.81 212.809 201.879 212.809H97.972C92.0017 212.809 87.3517 208.114 87.3517 202.132L87.3516 184.622H118.294C119.04 184.622 119.758 184.339 120.305 183.832C120.851 183.324 121.187 182.629 121.245 181.884C121.245 181.884 122.542 165.81 130.774 149.621C138.467 134.58 151.843 119.941 176.184 117.645L176.121 117.45Z" fill="white"/></g><defs><clipPath id="clip0_4044_6187"><rect width="200" height="200" fill="white" transform="translate(50 50)"/></clipPath></defs></svg>